<svg xmlns="http://www.w3.org/2000/svg" xmlns:xlink="http://www.w3.org/1999/xlink" width="1920" height="4210" viewBox="0 0 1920 4210">
  <defs>
    <clipPath id="clip-path">
      <rect id="Rectangle_15" data-name="Rectangle 15" width="1920" height="4210" transform="translate(0 -90)" fill="none"/>
    </clipPath>
  </defs>
  <g id="bg" transform="translate(0 90)" clip-path="url(#clip-path)">
    <path id="Path_3" data-name="Path 3" d="M431.291-6.814c-4.51-4.387-9.184-8.564-13.921-12.511-46.35-38.624-103.541-65.622-163.7-70.209S130.639-74.819,87.66-32.476c-46.194,45.51-65.766,111.8-107.3,161.6-38.729,46.441-97.86,81.306-110.939,140.348C-158.688,396.388-1.187,494.327,107.933,454.047c15.64-5.773,30.453-13.786,46.465-18.433,20.392-5.918,41.926-6.159,63.007-8.7a290.681,290.681,0,0,0,160.332-73.636c22.63-20.719,42.381-45.974,50.18-75.649,8.417-32.032,2.3-66.523,10.71-98.558,8.835-33.668,33.275-62.964,35.245-97.716C475.784,47.624,456.006,17.233,431.291-6.814Z" fill="#bf9460"/>
    <path id="Path_4" data-name="Path 4" d="M1865.14,673.714a287.191,287.191,0,0,0-53.4,4.856c-47.55,9.084-93.678,33.539-120.858,73.6-28.563,42.1-33.294,96.1-29,146.795s16.659,100.56,18.776,151.388c1.757,42.2-3.453,85.552,8.923,125.939,15.167,49.493,61.557,85.146,109.234,61.392,56.95-28.375,113.73-74.941,168.13-109.319,62.022-39.2,122.419-85.505,158.574-149.346s43.055-148.776.231-208.35c-38.09-52.989-105.57-75.439-169.719-87.422C1926.1,677.652,1895.53,673.65,1865.14,673.714Z" fill="#95bf56" opacity="0.6"/>
    <g id="Group_24" data-name="Group 24">
      <path id="Path_5" data-name="Path 5" d="M329.907,206.765c.286,1.312.373,1.635.426,1.964.579,3.585,2.211,5.6,4.607,5.692,2.334.085,4.867-2.821,5.34-5.964a2.388,2.388,0,0,0-1.634-2.789,11.8,11.8,0,0,0-3.413-.915c-1.823-.165-2.934-.947-2.812-2.823.2-3.079-2.984-5.131-2.314-8.485.233-1.166-2.079-1.012-2.2-.262-.462,2.866-3.136,3.224-4.746,4.734-2.753,2.582-3.023,3.989-1.151,7.546,1.443,2.743,2.574,3.2,6.237,2.406C328.7,207.771,329.075,207.332,329.907,206.765Z" fill="#fff"/>
      <path id="Path_6" data-name="Path 6" d="M327.547,215.821c-3.586.322-3.921-2.9-5.245-5.09-1.472-2.439-2.567-2.906-4.823-1.3-1.642,1.17-4.075,1.76-3.948,4.729.154,3.608,2.1,5.931,5.651,5.548,2.076-.224,3.74-.88,4.962,1.719.6,1.278,2.5,1.618,4.035.692,1.361-.823,2.481-1.929,2.345-3.646C330.393,216.815,328.719,216.654,327.547,215.821Z" fill="#fff"/>
      <path id="Path_7" data-name="Path 7" d="M301.394,298.837a8.815,8.815,0,0,0-5.114-1.46,4.785,4.785,0,0,0-5.212,3.708,4.952,4.952,0,0,0,2.36,6.032c2.307,1.326,4.434.93,6.451-.87,1.585-1.414.939-4.911,4.378-4.628.337.027.1-.857-.154-1.266C303.511,299.413,302.434,299.3,301.394,298.837Z" fill="#fff"/>
      <path id="Path_8" data-name="Path 8" d="M270.815,132.742c-1.666-2.074.709-5-1.316-7.042-1.523-1.538-3.032-3.073-5.64-2.545-2.624.531-4.025,1.864-4.285,4.713-.33,3.617.439,4.538,3.257,5.849,2.634,1.226,4.8-.262,7.179-.47C270.4,133.212,270.679,133.255,270.815,132.742Z" fill="#fff"/>
      <path id="Path_9" data-name="Path 9" d="M237.853,245.257a3.932,3.932,0,0,0-4.685.77c-1.636,1.468-2.668,3.578-1.763,5.888.472,1.2,1.092,2.6,2.377,3.147,1.7.723,2.883,1.512,2.4,3.648a1.077,1.077,0,0,0,1.16,1.311c.927-.058,1.845-.724,1.492-1.58-.811-1.97.267-2.917,1.359-4.324C242.813,250.739,241.885,247.233,237.853,245.257Z" fill="#fff"/>
      <path id="Path_10" data-name="Path 10" d="M203.418,202.468c-1.263,2.524-.821,4.349.867,5.891,2.038,1.862,4.029,2.012,6.481.554,1.89-1.124,3.259-3.808,2.186-5.557-1.252-2.041-1.056-5.654-4.192-5.816C205.528,197.374,205.271,201.276,203.418,202.468Z" fill="#fff"/>
      <path id="Path_11" data-name="Path 11" d="M248.809,41.547c3.215,1.5,5.551.939,6.878-1.659a5.888,5.888,0,0,0-2.522-8.158,5.6,5.6,0,0,0-6.813,2.686,5.236,5.236,0,0,0,2.457,7.131Z" fill="#fff"/>
      <path id="Path_12" data-name="Path 12" d="M301.249,128.313c-2.594-1.271-2.447-3.843-3.344-5.861-1.428-3.216-2.218-3.561-5.323-1.986a14.276,14.276,0,0,0-1.315.769c-2.688,1.751-3.432,3.673-2.279,5.854,1.325,2.506,4.472,4.1,6.8,2.9A19.443,19.443,0,0,1,301.249,128.313Z" fill="#fff"/>
      <path id="Path_13" data-name="Path 13" d="M235.3,321.82c4.365,2.07,8.021.192,8.353-3.906a4.571,4.571,0,0,0-2.125-4.692,5,5,0,0,0-5.68.254c-1.5,1.142-3.178,2.667-3.192,4.822A3.71,3.71,0,0,0,235.3,321.82Z" fill="#fff"/>
      <path id="Path_14" data-name="Path 14" d="M328.832,144.713a4.718,4.718,0,0,0-6.489,1.675c-1.651,2.894-1.261,6,.9,7.127,3.067,1.606,6.863.907,8.058-1.483A5.746,5.746,0,0,0,328.832,144.713Z" fill="#fff"/>
      <path id="Path_15" data-name="Path 15" d="M262.043,326.8c-1.906-1.109-5.689.159-7.056,2.365a5.726,5.726,0,0,0,2.076,7.442c2.125,1.175,5.125.013,6.833-2.647C264.985,332.267,263.842,327.851,262.043,326.8Z" fill="#fff"/>
      <path id="Path_16" data-name="Path 16" d="M363.752,114.542c-2.225-1.04-6.008.775-7.078,3.4-.758,1.858.869,5.507,2.879,6.459,2.169,1.027,5.851-.53,6.817-2.881C367.316,119.21,365.95,115.569,363.752,114.542Z" fill="#fff"/>
      <path id="Path_17" data-name="Path 17" d="M208.321,154.174c-1.489,2.992-.865,6.588,1.312,7.561,1.8.8,6.176-.783,7.171-2.6a5.491,5.491,0,0,0-2.2-7.021C211.959,150.78,209.63,151.543,208.321,154.174Z" fill="#fff"/>
      <path id="Path_18" data-name="Path 18" d="M306.093,258.915a4.855,4.855,0,0,0,6.8-2.289c.894-1.981-.07-5.334-1.8-6.278-1.995-1.086-6.416.56-7.932,2.955C302.194,254.823,303.674,257.65,306.093,258.915Z" fill="#fff"/>
      <path id="Path_19" data-name="Path 19" d="M384.671,219.825c-1.5-.791-4.447.808-5.772,3.132a4.8,4.8,0,0,0,1.876,6.575,5.036,5.036,0,0,0,6.545-2.074C388.182,225.532,386.545,220.815,384.671,219.825Z" fill="#fff"/>
      <path id="Path_20" data-name="Path 20" d="M346.459,156.566a3.062,3.062,0,0,0-.132-.771c-3.512-5.73-4.715-5.777-8.783-.468-.707.922-1.773,1.568-2.475,2.493a2.346,2.346,0,0,0,1.8,3.9c1.443.107,2.926.294,4.234-.943C342.677,159.3,344.505,158.082,346.459,156.566Z" fill="#fff"/>
      <path id="Path_21" data-name="Path 21" d="M279.68,239.7c-1.482,3.356-1.3,4.463.907,5.529,3.086,1.492,6.216.721,7.469-1.839a4.6,4.6,0,0,0-2.119-6.421C283.012,235.52,281.171,236.324,279.68,239.7Z" fill="#fff"/>
      <path id="Path_22" data-name="Path 22" d="M179.119,165.142c.049-1.342.082-2.23,1.009-2.62,3.32-1.393,1.651-3.083.142-4.483-1.043-.968-2.175-2.312-3.935-1.7-1.853.647-2.483,2.193-2.413,3.994a12.449,12.449,0,0,1-.837,4.922,2.581,2.581,0,0,0,1.175,3.445c1.31.7,2.14-.373,2.9-1.311C177.868,166.513,179.315,166.169,179.119,165.142Z" fill="#fff"/>
      <path id="Path_23" data-name="Path 23" d="M120.355,221.521c.882-1.736-.584-6.159-2.38-7.181-2.152-1.225-5.556-.3-6.626,1.8a4.588,4.588,0,0,0,2.047,6.03C115.6,223.4,119.59,223.027,120.355,221.521Z" fill="#fff"/>
      <path id="Path_24" data-name="Path 24" d="M230.507,176.585c-.444,1.6-1.984,3.61.337,5.155,1.4.928,1.941,3.569,4.3,2.6,1.484-.608,2.439-5.764,1.52-7.366a9.4,9.4,0,0,0-1.328-1.478C232.839,172.759,232.1,172.892,230.507,176.585Z" fill="#fff"/>
      <path id="Path_25" data-name="Path 25" d="M249.221,235.278a11.054,11.054,0,0,0,2.2,1.211,3.319,3.319,0,0,0,4.126-3.225c-.193-2.843-5.649-5.707-8.081-4.241-2.762,1.664-2.779,3.479-.021,5.281a16.7,16.7,0,0,0,1.811.9Z" fill="#fff"/>
      <path id="Path_26" data-name="Path 26" d="M269.84,213.065c.961-2.2.734-5.466-.413-5.926-1.424-.571-6.61,1.2-7.309,2.5-.837,1.555.921,4.467,3.278,5.43a3.386,3.386,0,0,0,4.444-2Z" fill="#fff"/>
      <path id="Path_27" data-name="Path 27" d="M250.729,238.991c-2.51,1.114-3.583,3.352-4.321,5.762a2.655,2.655,0,0,0,1.213,3.454,3.51,3.51,0,0,0,3.762-.661C254.974,244.767,254.736,242.109,250.729,238.991Z" fill="#fff"/>
      <path id="Path_28" data-name="Path 28" d="M361.065,277.126a5.04,5.04,0,0,0-6.135,2.091,3.474,3.474,0,0,0,1.547,4.712c2.831,1.393,4.1.9,5.374-2.064C362.94,279.325,362.694,277.846,361.065,277.126Z" fill="#fff"/>
      <path id="Path_29" data-name="Path 29" d="M212.687,79.451c-.471,1.436-1.552,2.759-.521,4.288.952,1.412,2.3,1.67,3.943,1.382,2.693-.473,3.744-2.059,2.783-4.551a3.422,3.422,0,0,0-.782-1.264c-.925-.857-1.079-2.673-2.772-2.543C213.749,76.884,213.431,78.452,212.687,79.451Z" fill="#fff"/>
      <path id="Path_30" data-name="Path 30" d="M304.043,126.921a3.349,3.349,0,0,0,1.08,3.513c1.128,1.159,2.364,1.871,4,1.046.765-.387,1.663-.969,1.653-1.751-.026-2.04,2.046-4.073.156-6.076C310.251,122.934,304.817,125.533,304.043,126.921Z" fill="#fff"/>
      <path id="Path_31" data-name="Path 31" d="M282.826,215.205c1.429-1.867.3-3.13-1.215-4.031a3.765,3.765,0,0,0-5.2,1.256c-.633,1.308.523,5.67,1.693,6.387C279.356,219.583,281.287,218.112,282.826,215.205Z" fill="#fff"/>
      <path id="Path_32" data-name="Path 32" d="M298.433,195.2a26.093,26.093,0,0,0-.769,2.714c-.215,1.183-.152,2.307,1.157,2.981a3.96,3.96,0,0,0,4.648-.49,2.643,2.643,0,0,0,.7-3.59,11.306,11.306,0,0,0-3.074-3.185C299.69,192.686,299.117,194.074,298.433,195.2Z" fill="#fff"/>
      <path id="Path_33" data-name="Path 33" d="M363.962,287.514a3.472,3.472,0,0,0-5.013,1.636,3.362,3.362,0,0,0,1.472,4.687,4.253,4.253,0,0,0,5.563-1.823,3.515,3.515,0,0,0-2.022-4.5Z" fill="#fff"/>
      <path id="Path_34" data-name="Path 34" d="M314.507,318.95c-1.9-1.178-3.353-.46-4.418,1.063-.984,1.4-.58,5.185.421,5.615,1.037.446,5.265-1.09,6.013-2.185C317.4,322.16,316.38,319.943,314.507,318.95Z" fill="#fff"/>
      <path id="Path_35" data-name="Path 35" d="M354.922,160.467c.951-2,.481-3.9-1.192-4.821a3.789,3.789,0,0,0-5.084,1.8,4.247,4.247,0,0,0,1.673,4.879C351.82,163.153,354.081,162.243,354.922,160.467Z" fill="#fff"/>
      <path id="Path_36" data-name="Path 36" d="M284.558,339.568c1.2,1.787,3.091,1.965,4.91,2.2a2.467,2.467,0,0,0,3.073-1.92,3.877,3.877,0,0,0-1.271-4.1,2.691,2.691,0,0,0-3.708-.116,8.758,8.758,0,0,0-3,3.931Z" fill="#fff"/>
      <path id="Path_37" data-name="Path 37" d="M175.769,200.6c-1.115-.664-4.517-.076-5.143.889-.653,1.006.617,4.65,1.918,5.331,1.847.966,3.288.187,4.318-1.333A3.567,3.567,0,0,0,175.769,200.6Z" fill="#fff"/>
      <path id="Path_38" data-name="Path 38" d="M324.01,67.485c-1.816-.909-3.229-.041-4.274,1.4-1.132,1.562-.282,4.36,1.488,5.249,2.1,1.055,3.519-.462,4.912-1.565C327.032,71.863,325.552,68.419,324.01,67.485Z" fill="#fff"/>
      <path id="Path_39" data-name="Path 39" d="M278.96,136.24c-1.261-.641-3.958.443-4.816,1.936-.943,1.639,0,3.7,2.13,5.005,1.943,1.188,2.869-.23,3.674-1.45C281.049,140.065,280.373,136.958,278.96,136.24Z" fill="#fff"/>
      <path id="Path_40" data-name="Path 40" d="M331.46,314.864a3.32,3.32,0,0,0,.882,3.151,2.223,2.223,0,0,0,2.769.45,13.757,13.757,0,0,0,2.863-1.994,2.571,2.571,0,0,0,.352-3.634c-.82-1.115-1.922-.867-3.149-.4C332.69,313.39,331.853,313.8,331.46,314.864Z" fill="#fff"/>
      <path id="Path_41" data-name="Path 41" d="M401.6,165.459a3.063,3.063,0,0,0-4.206,1.483A3.95,3.95,0,0,0,399.1,171.7c2.178,1.037,3.469-.429,4.617-1.888C404.566,168.735,403.359,166.391,401.6,165.459Z" fill="#fff"/>
      <path id="Path_42" data-name="Path 42" d="M227.655,256.938a17,17,0,0,0,.772-2.858c.267-2.811-2.043-4.366-4.6-3.1-1.213.6-2.527,1.409-2.423,2.933a3.576,3.576,0,0,0,2.782,3.212,6.492,6.492,0,0,0,3.468-.2Z" fill="#fff"/>
      <path id="Path_43" data-name="Path 43" d="M333.335,72.016A3.658,3.658,0,0,0,328.67,73.6a3.953,3.953,0,0,0,1.448,4.818,3.543,3.543,0,0,0,4.586-1.772,3.194,3.194,0,0,0-1.369-4.63Z" fill="#fff"/>
      <path id="Path_44" data-name="Path 44" d="M167.615,194.5a3.53,3.53,0,0,0-4.54,1.953,2.886,2.886,0,0,0,1.4,4.2,3.557,3.557,0,0,0,4.742-1.408,3.74,3.74,0,0,0-1.6-4.745Z" fill="#fff"/>
      <path id="Path_45" data-name="Path 45" d="M151.718,264c-1.768-.4-3.428-.38-4.4,1.415-.859,1.58.144,3.741,1.976,4.55a2.794,2.794,0,0,0,4.035-1.713C153.827,266.507,153.552,264.921,151.718,264Z" fill="#fff"/>
      <path id="Path_46" data-name="Path 46" d="M227.652,256.925a15.632,15.632,0,0,0-1.719,5.67,2.629,2.629,0,0,0,2.352,3.217c2.071.4,3.153-.758,3.741-2.462.524-1.52.366-2.854-1.318-3.8-1.151-.643-3.9.4-3.054-2.614Z" fill="#fff"/>
      <path id="Path_47" data-name="Path 47" d="M158.569,257.2c-1.677-.917-4.229-.257-4.795,1.368a4,4,0,0,0,1.19,4.534c.878.751,4.392-.489,4.967-1.52a3.4,3.4,0,0,0-1.362-4.382Z" fill="#fff"/>
      <path id="Path_48" data-name="Path 48" d="M412.319,172.884c1.159-2.053.634-4.034-1.065-4.919-1.876-.977-3.246,0-4.361,1.271-1.033,1.181-.212,3.908,1.321,4.708a2.949,2.949,0,0,0,4.1-1.06Z" fill="#fff"/>
      <path id="Path_49" data-name="Path 49" d="M393.087,193.876c-.452-1.557.284-2.975.494-4.457a2.607,2.607,0,0,0-2.277-3.283c-2.082-.44-3.189.655-3.832,2.387a2.609,2.609,0,0,0,1.567,3.7c1.4.572,2.831,1.051,4.248,1.571Z" fill="#fff"/>
      <path id="Path_50" data-name="Path 50" d="M307.974,175.467a8.509,8.509,0,0,0,3.077-4.363,3.022,3.022,0,0,0-1.178-3.915,2.309,2.309,0,0,0-2.774.056c-1.334.92-1.314,2.245-.9,3.564C306.633,172.22,307.242,173.577,307.974,175.467Z" fill="#fff"/>
      <path id="Path_51" data-name="Path 51" d="M350.537,192.935c-.846,1.679-1.583,3.442.81,4.611,2,.979,3.2-.086,4-1.8a3.7,3.7,0,0,0-1.724-5.123C351.535,189.8,350.994,191.313,350.537,192.935Z" fill="#fff"/>
      <path id="Path_52" data-name="Path 52" d="M263.512,45.54c-1.4-.611-4.094.46-4.8,1.912-.679,1.394.215,3.394,1.861,4.162A3.237,3.237,0,0,0,264.789,50C265.474,48.314,264.847,46.12,263.512,45.54Z" fill="#fff"/>
      <path id="Path_53" data-name="Path 53" d="M393.287,193.789a27.2,27.2,0,0,0-2.2,3.331,2.813,2.813,0,0,0,1.157,3.908,3.5,3.5,0,0,0,4.75-1.419,2.779,2.779,0,0,0-1-3.924c-.944-.651-2.3-.628-2.914-1.806Z" fill="#fff"/>
      <path id="Path_54" data-name="Path 54" d="M368.907,180.882c-.717,1.678-1.3,2.716-.914,3.975.373,1.229,1.027,2.149,2.394,2.232,1.482.089,2.08-.862,2.256-2.171.156-1.165.3-2.334.4-3.505.108-1.223.052-2.565-1.4-2.837-1.357-.255-2.06.87-2.583,1.986C368.921,180.866,368.768,181.166,368.907,180.882Z" fill="#fff"/>
      <path id="Path_55" data-name="Path 55" d="M280.989,295.966c.3,1.6,1.516,2.354,2.364,3.317a2.554,2.554,0,0,0,3.587.507,2.327,2.327,0,0,0,1.109-2.988c-.647-1.45-1.79-2.528-3.462-2.239a18.408,18.408,0,0,0-3.6,1.4Z" fill="#fff"/>
      <path id="Path_56" data-name="Path 56" d="M247.766,301.964a3.5,3.5,0,0,0-4.215,1.223c-.862,1.15.076,4.375,1.327,4.695a3.523,3.523,0,0,0,4.306-1.563,3.016,3.016,0,0,0-1.418-4.355Z" fill="#fff"/>
      <path id="Path_57" data-name="Path 57" d="M231.616,238.176a3.684,3.684,0,0,0-1.914-4.068,3.146,3.146,0,0,0-4.157,1.537c-.791,1.7-.236,3.855,1.125,4.368C228.133,240.565,231.016,239.574,231.616,238.176Z" fill="#fff"/>
      <path id="Path_58" data-name="Path 58" d="M326.478,108.32c-1.085,1.622-1.167,3.177.78,4.234,1.76.956,2.932,0,3.646-1.551,1-2.174.348-4.928-1.261-5.311C327.58,105.2,327.169,106.946,326.478,108.32Z" fill="#fff"/>
      <path id="Path_59" data-name="Path 59" d="M372.185,217.9c-.948-.556-5.627.779-6.26,1.971a1.981,1.981,0,0,0,.472,2.287,2.8,2.8,0,0,0,3.57,1c1.4-.752,3.067-1.512,3.232-3.5a1.82,1.82,0,0,0-1.014-1.758Z" fill="#fff"/>
      <path id="Path_60" data-name="Path 60" d="M287.642,227.975c.394-1.319.2-2.913-1.335-3.093-1.823-.212-4.2-1.266-5.524.581-.882,1.224-.124,2.9,1.539,3.638C284.6,230.11,286.98,229.648,287.642,227.975Z" fill="#fff"/>
      <path id="Path_61" data-name="Path 61" d="M196.9,213.07c.8-1.737.034-4.5-1.4-4.865a3.259,3.259,0,0,0-4.139,1.858c-.74,1.806.27,3.273,1.818,4.159C194.779,215.136,196.019,214.338,196.9,213.07Z" fill="#fff"/>
      <path id="Path_62" data-name="Path 62" d="M260.267,313.825a3.391,3.391,0,0,0-4.362,2.186c-.563,1.6.245,2.485,1.608,3.1,1.707.769,3.228.808,4.183-1.116a3.02,3.02,0,0,0-1.429-4.17Z" fill="#fff"/>
      <path id="Path_63" data-name="Path 63" d="M348.762,279.565c-.71,1.794-1.231,2.851-1.543,3.966-.335,1.2-.259,2.456,1.255,2.767,1.256.258,1.863-.811,1.96-1.773.187-1.856.344-3.609,1.851-4.992a1.09,1.09,0,0,0-.3-1.714,1.416,1.416,0,0,0-1.841.046A12.29,12.29,0,0,0,348.762,279.565Z" fill="#fff"/>
      <path id="Path_64" data-name="Path 64" d="M411.09,202.288c-.367,1.744-1.571,3.711,1.131,4.676,1.537.549,2.836.08,3.106-1.567.293-1.786.666-3.922-1.4-4.95C412.349,199.66,411.408,200.7,411.09,202.288Z" fill="#fff"/>
      <path id="Path_65" data-name="Path 65" d="M359.023,132.874c-.543,1.623-.71,3.247,1.085,4.355a3.464,3.464,0,0,0,4.649-1.638c.678-1.486.124-2.561-1.24-3.347C361.714,131.2,359.864,131.414,359.023,132.874Z" fill="#fff"/>
      <path id="Path_66" data-name="Path 66" d="M327.1,265.392c.334-1.557.545-3.206-1.17-3.922a3.053,3.053,0,0,0-4.144,1.75c-.738,1.515-.719,3.05,1.044,3.8C324.652,267.8,325.994,266.779,327.1,265.392Z" fill="#fff"/>
      <path id="Path_67" data-name="Path 67" d="M304.234,218.873c2.589,2.923,4.2,3.546,5.706,2.152,1.153-1.069,1.408-2.719.308-3.579C307.887,215.6,305.949,217.086,304.234,218.873Z" fill="#fff"/>
      <path id="Path_68" data-name="Path 68" d="M284.789,126.489c-1.674-.452-3.247-.511-4.23,1.328-.543,1.016-1.274,2.091-.114,3.123.951.846,4.4.3,5.021-.871A2.665,2.665,0,0,0,284.789,126.489Z" fill="#fff"/>
      <path id="Path_69" data-name="Path 69" d="M119.411,256.634c1.366.78,2.64,1.01,3.631-.389.786-1.109-.519-3.392-2.4-4.4a2.259,2.259,0,0,0-3.39,1.081C116.289,255.021,117.812,255.968,119.411,256.634Z" fill="#fff"/>
      <path id="Path_70" data-name="Path 70" d="M294.9,243a3.435,3.435,0,0,0-4.025,2.448c-.44,1.1-.225,1.911,1.072,2.262,1.493.4,3.142.944,4.008-.763C296.709,245.463,295.947,244.059,294.9,243Z" fill="#fff"/>
      <path id="Path_71" data-name="Path 71" d="M221.178,154.495a2.195,2.195,0,0,0,1.38,3.179c1.41.582,2.674.423,3.383-.964.748-1.464-.009-2.552-1.394-3.147a2.394,2.394,0,0,0-3.369.932Z" fill="#fff"/>
      <path id="Path_72" data-name="Path 72" d="M261.18,273.676a3.179,3.179,0,0,0-3.726,1.956,2.172,2.172,0,0,0,1.492,3.159,2.65,2.65,0,0,0,3.213-1.707A2.6,2.6,0,0,0,261.18,273.676Z" fill="#fff"/>
      <path id="Path_73" data-name="Path 73" d="M361.468,172.688a2.671,2.671,0,0,0-3.724,1.3,2.215,2.215,0,0,0,.436,3.112c1.575,1.2,2.877.281,3.826-.907S362.679,173.731,361.468,172.688Z" fill="#fff"/>
      <path id="Path_74" data-name="Path 74" d="M272.579,271.807a2.461,2.461,0,0,0-1.715-2.742,3.066,3.066,0,0,0-4.151,1.692,1.879,1.879,0,0,0,1.478,2.669C269.717,273.872,272.229,272.916,272.579,271.807Z" fill="#fff"/>
      <path id="Path_75" data-name="Path 75" d="M290,78.7a1.984,1.984,0,0,0-3,.648c-1,1.457-.629,3.682.822,4.412,1.1.555,2.267.626,3-.733C291.734,81.359,291.854,79.851,290,78.7Z" fill="#fff"/>
      <path id="Path_76" data-name="Path 76" d="M315.031,261.5c-1.2-.333-2.445-.235-2.923,1.082a2.555,2.555,0,0,0,1.437,3.347c1.224.59,2.412.407,2.874-1a2.6,2.6,0,0,0-1.388-3.429Z" fill="#fff"/>
      <path id="Path_77" data-name="Path 77" d="M315.184,200.562c.839-2.1.137-3.289-1.6-3.773-.976-.272-2.312-1.335-2.931.519a3.146,3.146,0,0,0,1.784,4.2,1.979,1.979,0,0,0,2.747-.946Z" fill="#fff"/>
      <path id="Path_78" data-name="Path 78" d="M263.11,243.779a18.454,18.454,0,0,0-2.331-.84,1.674,1.674,0,0,0-2.239,1.365c-.185,1.1.727,1.348,1.588,1.419.942.078,2.1-.37,2.534.917.363,1.082.9,2.021,2.036,1.126,1.391-1.092.678-2.4-.239-3.462a3.978,3.978,0,0,0-1.286-.663Z" fill="#fff"/>
      <path id="Path_79" data-name="Path 79" d="M158.426,224.33c-1.48-.374-3.007-.639-3.883,1.122-.7,1.4.22,2.209,1.311,2.835,1.557.891,3.006.724,3.849-.921C160.355,226.092,159.424,225.158,158.426,224.33Z" fill="#fff"/>
      <path id="Path_80" data-name="Path 80" d="M113.695,206.786c-.559,1.469-.257,2.63,1.291,3.21a1.967,1.967,0,0,0,2.756-1.328c.459-1.181.444-2.371-.765-3.065C115.525,204.771,114.47,205.486,113.695,206.786Z" fill="#fff"/>
      <path id="Path_81" data-name="Path 81" d="M338.349,267.913a3.2,3.2,0,0,0-3.607,1.94,2.6,2.6,0,0,0,1.263,3.406c1.641.888,2.365-.56,2.855-1.777S339.775,268.939,338.349,267.913Z" fill="#fff"/>
      <path id="Path_82" data-name="Path 82" d="M240.79,41.3c-1.611-.151-3.222.294-3.865,1.7-.553,1.212.682,2.151,1.834,2.539,1.358.458,2.789.4,3.341-1.213C242.521,43.1,241.836,42.072,240.79,41.3Z" fill="#fff"/>
      <path id="Path_83" data-name="Path 83" d="M247.139,268.9a10.924,10.924,0,0,0-.463,1.955,1.772,1.772,0,0,0,1.142,2.031,2.337,2.337,0,0,0,2.289-.706c.9-.82.577-1.846.583-2.839a2.182,2.182,0,0,0-1.617-2.3C247.585,266.641,247.705,268.153,247.139,268.9Z" fill="#fff"/>
      <path id="Path_84" data-name="Path 84" d="M255.24,134.568a3.532,3.532,0,0,0-3.948,1.444c-1.1,1.368.283,2.1,1.248,2.641,1.514.839,3.056.613,3.856-.979C256.98,136.512,256.144,135.446,255.24,134.568Z" fill="#fff"/>
      <path id="Path_85" data-name="Path 85" d="M374.811,228.388c-1.417-.573-2.709-.541-3.48.935a1.936,1.936,0,0,0,.98,2.923,2.153,2.153,0,0,0,3.054-.827C376.007,230.318,376.085,229.189,374.811,228.388Z" fill="#fff"/>
      <path id="Path_86" data-name="Path 86" d="M314.579,156.94c-.608.942-.114,1.557.592,2.061,1.374.979,2.861,1.076,3.957-.24.922-1.108.069-2.369-.792-3C316.747,154.6,315.66,156.011,314.579,156.94Z" fill="#fff"/>
      <path id="Path_87" data-name="Path 87" d="M321.965,162.747c-1.04-.467-2-.482-2.512.721-.591,1.389-.462,2.776,1.028,3.42,1.013.439,2.513.751,3-.741A2.8,2.8,0,0,0,321.965,162.747Z" fill="#fff"/>
      <path id="Path_88" data-name="Path 88" d="M206.609,190.21a2.471,2.471,0,0,0-3.115,1.117c-.613,1.019-.9,2.35.293,3.184a2.087,2.087,0,0,0,3.08-.617C207.686,192.66,207.284,191.364,206.609,190.21Z" fill="#fff"/>
      <path id="Path_89" data-name="Path 89" d="M264.262,263.894a4.765,4.765,0,0,0,.449-3.835c-.167-.844-.4-1.61-1.466-1.735a2.227,2.227,0,0,0-2.35,1.493c-.4.783-.556,1.667.276,2.256C262.1,262.726,263.124,263.233,264.262,263.894Z" fill="#fff"/>
      <path id="Path_90" data-name="Path 90" d="M269.75,333.035a2.126,2.126,0,0,0,1.459,3.028c.9.3,2.088.9,2.577-.326a2.663,2.663,0,0,0-1.553-3.654,1.688,1.688,0,0,0-2.483.952Z" fill="#fff"/>
      <path id="Path_91" data-name="Path 91" d="M248.389,323.984a2.318,2.318,0,0,0-2.709,1.832,2.834,2.834,0,0,0,1.951,3.2c1.079.463,1.906-.562,2.155-1.6a2.919,2.919,0,0,0-1.4-3.432Z" fill="#fff"/>
      <path id="Path_92" data-name="Path 92" d="M383.653,180.174a2.444,2.444,0,0,0-.9-3.038,1.761,1.761,0,0,0-2.635.119c-.963,1.071-.5,2.22.447,3.023a2.2,2.2,0,0,0,3.088-.1Z" fill="#fff"/>
      <path id="Path_93" data-name="Path 93" d="M349.542,114.831c-.838-.151-1.957-.885-2.361.633a2.647,2.647,0,0,0,1.459,3.329,1.583,1.583,0,0,0,2.406-.881C351.755,116.363,351.165,115.373,349.542,114.831Z" fill="#fff"/>
      <path id="Path_94" data-name="Path 94" d="M303.556,78.922a2.454,2.454,0,0,0-1.47-3.218c-1.141-.522-1.868.128-2.22,1.188a1.9,1.9,0,0,0,1.259,2.722C302.1,79.95,303.049,80.213,303.556,78.922Z" fill="#fff"/>
      <path id="Path_95" data-name="Path 95" d="M196.489,199.445c-.946-.4-1.779-.758-2.353.207a2.3,2.3,0,0,0,.907,3.445c.854.523,1.621.047,2.1-.751a1.921,1.921,0,0,0-.654-2.9Z" fill="#fff"/>
      <path id="Path_96" data-name="Path 96" d="M158.558,239.453a1.612,1.612,0,0,0-.9-2.06c-1.528-.67-2.514-.051-3.046,1.429-.373,1.038.289,1.514,1.117,1.78a2.145,2.145,0,0,0,2.829-1.149Z" fill="#fff"/>
      <path id="Path_97" data-name="Path 97" d="M309.348,139.487c-1.061-.114-1.674.133-1.9.831a1.952,1.952,0,0,0,.863,2.524,1.248,1.248,0,0,0,1.7-.477C310.788,141.071,309.462,140.387,309.348,139.487Z" fill="#fff"/>
      <path id="Path_98" data-name="Path 98" d="M331.655,177.509c-.021-1.276-.433-2.151-1.5-2.451-.961-.269-1.547.45-1.888,1.2-.623,1.36.765,1.131,1.335,1.472a1.446,1.446,0,0,0,2.053-.221Z" fill="#fff"/>
      <path id="Path_99" data-name="Path 99" d="M294.488,227.325c-.362,1.006-.363,1.71.407,1.888.943.218,2.053.178,2.408-.93a1.9,1.9,0,0,0-.65-1.675C295.508,225.862,295.073,227.165,294.488,227.325Z" fill="#fff"/>
      <path id="Path_100" data-name="Path 100" d="M307.735,264.4a1.958,1.958,0,0,0-2.57,1.155,1.558,1.558,0,0,0,.8,2.046,1.237,1.237,0,0,0,1.948-.673A2.2,2.2,0,0,0,307.735,264.4Z" fill="#fff"/>
      <path id="Path_101" data-name="Path 101" d="M339.749,163.491a1.237,1.237,0,0,0-1.838.254,1.817,1.817,0,0,0,.18,2.689,1.617,1.617,0,0,0,2.271-.39C341.062,165.066,340.5,164.152,339.749,163.491Z" fill="#fff"/>
      <path id="Path_102" data-name="Path 102" d="M299.128,182.064c-.995-.329-1.6-.088-1.776.679-.23,1.006-.211,2.145.889,2.583a1.632,1.632,0,0,0,2.1-.975C300.666,183.256,299.737,182.565,299.128,182.064Z" fill="#fff"/>
      <path id="Path_103" data-name="Path 103" d="M278.219,91.777c-.763-.222-1.4-.026-1.62.7a1.818,1.818,0,0,0,.956,2.479,1.361,1.361,0,0,0,1.709-.631C279.686,93.248,278.919,92.469,278.219,91.777Z" fill="#fff"/>
      <path id="Path_104" data-name="Path 104" d="M290.742,52.624a2.035,2.035,0,0,0,.813,2.551,1.2,1.2,0,0,0,1.64-.647,1.818,1.818,0,0,0-.7-2.178C291.925,51.837,291.28,52.057,290.742,52.624Z" fill="#fff"/>
      <path id="Path_105" data-name="Path 105" d="M264.621,165.481c-1.5-.283-1.763.82-2.173,1.668-.481.992.232,1.641.95,1.93,1.436.575,1.489-.826,1.844-1.6a1.493,1.493,0,0,0-.621-2Z" fill="#fff"/>
      <path id="Path_106" data-name="Path 106" d="M348.087,245.171a1.135,1.135,0,0,0-.738-1.758c-.8-.269-1.27.268-1.575.864-.382.746-.719,1.7.26,2.155C346.894,246.83,347.609,246.272,348.087,245.171Z" fill="#fff"/>
      <path id="Path_107" data-name="Path 107" d="M274.965,275.98a2.242,2.242,0,0,0,1.914-1.4c.326-1.02-.316-1.56-1.2-1.785-.834-.214-1.152.418-1.37,1.065a1.633,1.633,0,0,0,.656,2.12Z" fill="#fff"/>
      <path id="Path_108" data-name="Path 108" d="M280.567,189.176c-1.475.575-2.247,1.9-3.366,2.841C280.346,191.788,280.346,191.788,280.567,189.176Z" fill="#fff"/>
      <path id="Path_109" data-name="Path 109" d="M281.925,277.8c-.173.737-.011,1.368.73,1.551a1.762,1.762,0,0,0,2.091-.873,1.316,1.316,0,0,0-.93-1.925,1.85,1.85,0,0,0-1.891,1.247Z" fill="#fff"/>
      <path id="Path_110" data-name="Path 110" d="M180.728,194.146a1.726,1.726,0,0,0-2.313,1.116,1.5,1.5,0,0,0,.7,2.069c1.164.492,1.891-.4,2.368-1.2a1.293,1.293,0,0,0-.755-1.99Z" fill="#fff"/>
      <path id="Path_111" data-name="Path 111" d="M300.8,241.148c.457.224.606.367.735.35,1.056-.135,2.445.564,2.914-1.072a.97.97,0,0,0-.27-.87C302.7,238.812,301.7,239.4,300.8,241.148Z" fill="#fff"/>
      <path id="Path_112" data-name="Path 112" d="M309.886,312.669a1.275,1.275,0,0,0-1.753.317,1.119,1.119,0,0,0,.234,1.718,1.248,1.248,0,0,0,1.748-.318C310.683,313.767,310.363,313.189,309.886,312.669Z" fill="#fff"/>
      <path id="Path_113" data-name="Path 113" d="M244.268,276.215c.3-.732.207-1.444-.466-1.748-.955-.431-1.628.31-2.065,1a1.4,1.4,0,0,0,.379,1.319C242.962,277.359,243.679,276.842,244.268,276.215Z" fill="#fff"/>
      <path id="Path_114" data-name="Path 114" d="M182.562,236.268c-1.244-.377-2.122-.561-2.678.239a1,1,0,0,0,.613,1.567c.783.251,1.738.355,2.16-.611C182.827,237.072,182.587,236.5,182.562,236.268Z" fill="#fff"/>
      <path id="Path_115" data-name="Path 115" d="M221.336,192.154c.891.378,1.218-.223,1.5-.829.4-.837.374-1.665-.516-2.132a1.286,1.286,0,0,0-1.774.38,1.98,1.98,0,0,0,.79,2.581Z" fill="#fff"/>
      <path id="Path_116" data-name="Path 116" d="M181.754,202.213c.249-.63.435-1.352-.165-1.79-.906-.661-1.474.09-1.958.741-.411.554-.685,1.3.042,1.689a1.5,1.5,0,0,0,2.081-.64Z" fill="#fff"/>
      <path id="Path_117" data-name="Path 117" d="M362.395,196.492c-.791-.357-1.228.12-1.473.736a1.483,1.483,0,0,0,.7,2.043,1.365,1.365,0,0,0,1.94-.868C363.785,197.589,363.092,196.952,362.395,196.492Z" fill="#fff"/>
      <path id="Path_118" data-name="Path 118" d="M197.715,155.356a2.154,2.154,0,0,0,.944-.757c.413-.674-.155-1.18-.763-1.453a1.281,1.281,0,0,0-1.7.419C195.8,154.237,196.231,154.749,197.715,155.356Z" fill="#fff"/>
      <path id="Path_119" data-name="Path 119" d="M319.974,80.708a2.014,2.014,0,0,0-.888-2.527,1.225,1.225,0,0,0-1.678.518,1.6,1.6,0,0,0,.3,2.207A1.72,1.72,0,0,0,319.974,80.708Z" fill="#fff"/>
      <path id="Path_120" data-name="Path 120" d="M200.763,224.72a1.283,1.283,0,0,0-1.683.6,1.729,1.729,0,0,0,.755,2.439,1.3,1.3,0,0,0,1.225-.376,2.356,2.356,0,0,0-.3-2.663Z" fill="#fff"/>
      <path id="Path_121" data-name="Path 121" d="M150.73,213.188c.148-.91-.564-1.13-1.168-1.34-.894-.31-1.725-.173-1.907.917-.112.671.026,1.4.981,1.443C149.51,214.245,150.325,214.131,150.73,213.188Z" fill="#fff"/>
      <path id="Path_122" data-name="Path 122" d="M317.122,73.216a1.294,1.294,0,0,0-1.752.369,1.5,1.5,0,0,0,.525,2.12.843.843,0,0,0,1.245-.363C317.541,74.641,318,73.893,317.122,73.216Z" fill="#fff"/>
      <path id="Path_123" data-name="Path 123" d="M382.73,191.737a1.755,1.755,0,0,0-2.123.716,1.219,1.219,0,0,0,.415,1.729c.894.6,1.566.1,1.972-.711C383.282,192.894,383.489,192.226,382.73,191.737Z" fill="#fff"/>
      <path id="Path_124" data-name="Path 124" d="M300.986,207.838a1.181,1.181,0,0,0,.438,1.694,1.312,1.312,0,0,0,1.8-.336c.472-.648.114-1.274-.478-1.669a1.194,1.194,0,0,0-1.76.311Z" fill="#fff"/>
      <path id="Path_125" data-name="Path 125" d="M396.971,177.157c-.123.862-.059,1.688,1.016,1.863a1.162,1.162,0,0,0,1.392-1.05,1.4,1.4,0,0,0-.889-1.577C397.7,175.992,397.294,176.5,396.971,177.157Z" fill="#fff"/>
      <path id="Path_126" data-name="Path 126" d="M395.949,171.42c-1.468.232-1.952.626-1.96,1.371-.007.689.273,1.422,1.051,1.362.984-.077,1.221-.959,1.166-1.795C396.173,171.864,395.835,171.444,395.949,171.42Z" fill="#fff"/>
      <path id="Path_127" data-name="Path 127" d="M288.138,193.729a1.272,1.272,0,0,0-1.653.728c-.312.776.142,1.3.851,1.542a.977.977,0,0,0,1.26-.548,1.215,1.215,0,0,0-.458-1.722Z" fill="#fff"/>
      <path id="Path_128" data-name="Path 128" d="M345.023,175.322a1.244,1.244,0,0,0-1.684.522c-.371.607-.524,1.262.26,1.67.627.327,1.292.385,1.65-.415C345.525,176.483,345.69,175.838,345.023,175.322Z" fill="#fff"/>
      <path id="Path_129" data-name="Path 129" d="M240.966,294.783c.214-.6.549-1.263-.167-1.706a1.011,1.011,0,0,0-1.546.537,1.21,1.21,0,0,0,.555,1.623C240.35,295.547,240.69,295.221,240.966,294.783Z" fill="#fff"/>
      <path id="Path_130" data-name="Path 130" d="M289.993,284.156a1.049,1.049,0,0,0-1.525.743c-.269.779.258,1.242.852,1.58.809.461,1.237-.059,1.473-.726C291.062,284.995,290.6,284.518,289.993,284.156Z" fill="#fff"/>
      <path id="Path_131" data-name="Path 131" d="M398.468,221.1a.9.9,0,0,0-1.242.127c-.473.639-.179,1.176.471,1.474a.844.844,0,0,0,1.2-.375,1.011,1.011,0,0,0-.429-1.226Z" fill="#fff"/>
      <path id="Path_132" data-name="Path 132" d="M369.445,158.118a1.378,1.378,0,0,0-.8-1.58.909.909,0,0,0-1.427.7c-.127.756.5,1.149,1.093,1.4a.836.836,0,0,0,1.134-.52Z" fill="#fff"/>
      <path id="Path_133" data-name="Path 133" d="M148.763,253.056a1.292,1.292,0,0,0,.255,1.806,1.416,1.416,0,0,0,2.094-.356c.5-.635.179-1.246-.357-1.67a1.272,1.272,0,0,0-1.992.22Z" fill="#fff"/>
      <path id="Path_134" data-name="Path 134" d="M291.857,264.373c-1.155-.53-1.831-.529-2.065.249a1.387,1.387,0,0,0,.452,1.25c.555.311,1.351.366,1.644-.429a2.186,2.186,0,0,0-.031-1.07Z" fill="#fff"/>
      <path id="Path_135" data-name="Path 135" d="M265.523,102.413c-.224.706-.033,1.156.489,1.337.583.2.913-.224,1.119-.7.23-.53.074-1.094-.46-1.165C266.288,101.833,265.842,102.253,265.523,102.413Z" fill="#fff"/>
      <path id="Path_136" data-name="Path 136" d="M155.9,252.284c-.681-.208-1.379-.173-1.632.55a1.342,1.342,0,0,0,.847,1.591.974.974,0,0,0,1.541-.549,1.253,1.253,0,0,0-.756-1.592Z" fill="#fff"/>
      <path id="Path_137" data-name="Path 137" d="M379.017,157c-.338.617-.411,1.256.313,1.579s1.155-.2,1.459-.8a.907.907,0,0,0-.237-1.258C379.9,156.088,379.38,156.365,379.017,157Z" fill="#fff"/>
      <path id="Path_138" data-name="Path 138" d="M279.863,118.1a1.425,1.425,0,0,0-1.019-1.507,1.143,1.143,0,1,0-.588,2.189C278.882,118.863,279.565,118.873,279.863,118.1Z" fill="#fff"/>
      <path id="Path_139" data-name="Path 139" d="M290.75,255.562a.868.868,0,0,0-1.241,0,1.148,1.148,0,0,0-.007,1.7.959.959,0,0,0,1.61-.043,1.17,1.17,0,0,0-.362-1.657Z" fill="#fff"/>
      <path id="Path_140" data-name="Path 140" d="M253.52,182.1a1.5,1.5,0,0,0-1.72.556c-.434.727.278,1.157.81,1.455.613.343,1.282.324,1.6-.437a1.148,1.148,0,0,0-.69-1.574Z" fill="#fff"/>
      <path id="Path_141" data-name="Path 141" d="M224.565,166.65a1.351,1.351,0,0,0,.971,1.5.906.906,0,0,0,1.236-.434,1.038,1.038,0,0,0-.562-1.572,1.2,1.2,0,0,0-1.645.506Z" fill="#fff"/>
      <path id="Path_142" data-name="Path 142" d="M384.455,186.856a1.125,1.125,0,0,0-1.614.508c-.321.627-.247,1.306.554,1.485a1.421,1.421,0,0,0,1.573-.847C385.224,187.5,384.953,187.093,384.455,186.856Z" fill="#fff"/>
      <path id="Path_143" data-name="Path 143" d="M234.937,263.29a.883.883,0,0,0-.015,1.282,1.1,1.1,0,0,0,1.669-.028c.466-.483.69-1.155,0-1.6C235.983,262.547,235.4,262.932,234.937,263.29Z" fill="#fff"/>
      <path id="Path_144" data-name="Path 144" d="M306.669,270.914a1.4,1.4,0,0,0-.841-.952c-.8-.3-1.251.252-1.321.955a1.187,1.187,0,0,0,1.1,1.349C306.112,272.345,306.54,272.172,306.669,270.914Z" fill="#fff"/>
      <path id="Path_145" data-name="Path 145" d="M246.221,73.468c-.323-.033-.783-.189-.872-.069a1.542,1.542,0,0,0,.214,2.161.883.883,0,0,0,.859.046C247.1,74.846,246.719,74.133,246.221,73.468Z" fill="#fff"/>
      <path id="Path_146" data-name="Path 146" d="M256.861,248.129a.844.844,0,0,0-.44-1.2c-.72-.3-1.569-.557-2.112.285-.3.464.048.935.46,1.214a1.445,1.445,0,0,0,2.092-.3Z" fill="#fff"/>
      <path id="Path_147" data-name="Path 147" d="M326.932,238.438a.89.89,0,0,0,1.162-.259.865.865,0,0,0-.049-1.268.813.813,0,0,0-1.246.177.914.914,0,0,0,.133,1.35Z" fill="#fff"/>
      <path id="Path_148" data-name="Path 148" d="M328.644,185.056c-.28-.282-.63-.328-.822,0a1.1,1.1,0,0,0,.4,1.631c.22.133.744.159.846.023C329.572,186.035,329.086,185.534,328.644,185.056Z" fill="#fff"/>
      <path id="Path_149" data-name="Path 149" d="M110.8,232.874a.89.89,0,0,0,.64,1.092.826.826,0,0,0,1.008-.818,1.008,1.008,0,0,0-.4-.821C111.543,232.066,111.079,232.261,110.8,232.874Z" fill="#fff"/>
      <path id="Path_150" data-name="Path 150" d="M233.245,123.716c-.585-.414-.919-.364-.949.011a1.783,1.783,0,0,0,.545,1.8c.335.239.791.164.778-.16a7.8,7.8,0,0,0-.374-1.651Z" fill="#fff"/>
      <path id="Path_151" data-name="Path 151" d="M127.4,205.524c-.753-.186-1.2.24-1.392.93a.946.946,0,0,0,.569,1.19c.83.31,1.2-.28,1.412-.931a.906.906,0,0,0-.589-1.189Z" fill="#fff"/>
      <path id="Path_152" data-name="Path 152" d="M352.215,208.724c.083.269.09.692.267.781.523.266.906-.093,1.061-.554a.834.834,0,0,0-.247-.764C352.772,207.909,352.432,208.247,352.215,208.724Z" fill="#fff"/>
      <path id="Path_153" data-name="Path 153" d="M272.056,230.886a.81.81,0,0,0-.934.714.8.8,0,0,0,.853.917.958.958,0,0,0,.723-.5.8.8,0,0,0-.642-1.131Z" fill="#fff"/>
      <path id="Path_154" data-name="Path 154" d="M346.783,218.527a.774.774,0,0,0-.815.771.71.71,0,0,0,.827.864,1.017,1.017,0,0,0,.7-.542C347.673,219.138,347.5,218.705,346.783,218.527Z" fill="#fff"/>
      <path id="Path_155" data-name="Path 155" d="M289.753,274.13c-.258.131-.668.214-.73.408a.847.847,0,0,0,.349.745c.461.24,1,.233.974-.486C290.339,274.569,289.962,274.352,289.753,274.13Z" fill="#fff"/>
      <path id="Path_156" data-name="Path 156" d="M291.429,150.024c-.3.012-.76-.092-.872.061a.769.769,0,0,0,.314,1.181.891.891,0,0,0,.839-.067C292.113,150.751,291.854,150.341,291.429,150.024Z" fill="#fff"/>
      <path id="Path_157" data-name="Path 157" d="M275.227,311.734c-.6-.158-1.107-.078-1.319.451a.879.879,0,0,0,.318.785.786.786,0,0,0,1.2-.454C275.506,312.3,275.293,311.97,275.227,311.734Z" fill="#fff"/>
      <path id="Path_158" data-name="Path 158" d="M267.5,160.6c.112-.536.043-1.032-.575-1.151-.579-.111-.927.318-1.118.786a.744.744,0,0,0,.594,1.113.91.91,0,0,0,1.1-.748Z" fill="#fff"/>
      <path id="Path_159" data-name="Path 159" d="M287.456,308.145c.207-.479.222-1-.313-1.177-.513-.168-.878.275-1.016.735-.078.257-.031.747.131.843C286.731,308.828,287.141,308.541,287.456,308.145Z" fill="#fff"/>
      <path id="Path_160" data-name="Path 160" d="M235.941,280.525a.793.793,0,0,0-.165-1.229c-.461-.311-.952-.261-1.158.309a1.155,1.155,0,0,0,.126.911C235.087,281.01,235.538,280.908,235.941,280.525Z" fill="#fff"/>
      <path id="Path_161" data-name="Path 161" d="M248.089,214.516c.106.4.085,1.026.371,1.237.528.387.809-.193.964-.615a.848.848,0,0,0-.482-1.193C248.77,213.887,248.451,214.262,248.089,214.516Z" fill="#fff"/>
      <path id="Path_162" data-name="Path 162" d="M274.736,61.167c-.032-.29.044-.7-.117-.844-.4-.369-.9-.33-1.084.242a.88.88,0,0,0,.359.777C274.09,61.445,274.448,61.238,274.736,61.167Z" fill="#fff"/>
      <path id="Path_163" data-name="Path 163" d="M110.794,160.21a.975.975,0,0,0-1.068.688c-.04.168.27.557.486.621a.716.716,0,0,0,1.013-.6C111.248,160.7,110.947,160.448,110.794,160.21Z" fill="#fff"/>
      <path id="Path_164" data-name="Path 164" d="M249.263,107.666c.335-.517.253-.779-.148-.877a1.173,1.173,0,0,0-1.505.725c-.083.208.113.527.182.8Z" fill="#fff"/>
      <path id="Path_165" data-name="Path 165" d="M334.342,143.182c.1-.507-.012-.964-.584-1a.845.845,0,0,0-.915.853.918.918,0,0,0,.39.748C333.742,143.965,334.1,143.629,334.342,143.182Z" fill="#fff"/>
      <path id="Path_166" data-name="Path 166" d="M287.613,249.061c.107.257.172.685.336.727a.866.866,0,0,0,.781-.282c.094-.166-.151-.524-.246-.8Z" fill="#fff"/>
      <path id="Path_167" data-name="Path 167" d="M223.686,179.148c-.29.045-.753,0-.831.154-.158.31.131.549.565.512a9.469,9.469,0,0,0,.938-.159Z" fill="#fff"/>
      <path id="Path_168" data-name="Path 168" d="M333.534,257.093c.148.206.27.564.5.658a.743.743,0,0,0,1.086-.527.858.858,0,0,0-.458-.7.834.834,0,0,0-1.128.569Z" fill="#fff"/>
      <path id="Path_169" data-name="Path 169" d="M144.422,199.2c-.364-.169-.625-.059-.675.344-.037.3-.093.742.069.883.559.492.765-.092.877-.466C144.755,199.75,144.523,199.454,144.422,199.2Z" fill="#fff"/>
      <path id="Path_170" data-name="Path 170" d="M259.185,249.708a.958.958,0,0,0,.1,1.237.715.715,0,0,0,1.18-.193,1.481,1.481,0,0,0-.13-1.235C259.974,249.009,259.526,249.285,259.185,249.708Z" fill="#fff"/>
      <path id="Path_171" data-name="Path 171" d="M204.88,240.749c-.081-.556-.5-.741-.965-.807-.387-.056-.636.2-.474.531a1.743,1.743,0,0,0,.724.558.435.435,0,0,0,.715-.282Z" fill="#fff"/>
      <path id="Path_172" data-name="Path 172" d="M269.763,201.042c-.067.288-.25.792-.183.828.645.343,1.175-.079,1.656-.426a.969.969,0,0,0,.2-.747C270.8,200.3,270.258,200.609,269.763,201.042Z" fill="#fff"/>
      <path id="Path_173" data-name="Path 173" d="M219.359,222.256c-.277.077-.669.072-.764.238a.938.938,0,0,0-.006.86c.457.533.846.2,1.006-.3C219.665,222.838,219.447,222.527,219.359,222.256Z" fill="#fff"/>
      <path id="Path_174" data-name="Path 174" d="M179.164,218.426c-.289.256-.352.6-.036.833a1.154,1.154,0,0,0,.918.2c.783-.289.349-.795.017-1.086C179.9,218.229,179.472,218.4,179.164,218.426Z" fill="#fff"/>
      <path id="Path_175" data-name="Path 175" d="M175.132,188.577c-.3.055-.9-.01-1.107.244-.326.4.064.887.456,1.115a.931.931,0,0,0,.856-.061C175.754,189.517,175.652,189.067,175.132,188.577Z" fill="#fff"/>
      <path id="Path_176" data-name="Path 176" d="M292.4,177.968c-.355.143-.95.2-1.178.52a.8.8,0,0,0,.48,1.18,1.454,1.454,0,0,0,1.268-.392C293.271,178.871,292.979,178.351,292.4,177.968Z" fill="#fff"/>
    </g>
    <path id="Path_177" data-name="Path 177" d="M1680.24,968.662c.192.544.7.711,1.144.939a60.777,60.777,0,0,1,11.929,8.382,50.815,50.815,0,0,1,9.076,9.99,25.058,25.058,0,0,1,2.324,4.192c.231.537.436,1.149-.023,1.647-.55.6-1.222.321-1.818.046a25.536,25.536,0,0,1-5.366-3.71c-6.143-5.058-11.444-10.969-16.916-16.706a13.99,13.99,0,0,1-2.709-3.94,1.243,1.243,0,0,0-1.366-.828,21.8,21.8,0,0,0-4.083.473,1.055,1.055,0,0,0,.563.729,26.1,26.1,0,0,1,7.18,7.828,50.543,50.543,0,0,1,5.836,12.4,39.467,39.467,0,0,1,1.343,5.506,7.423,7.423,0,0,1,.092,2.388,1.113,1.113,0,0,1-1.922.768,6.885,6.885,0,0,1-1.458-1.6,31.847,31.847,0,0,1-1.8-3.233q-4.44-9.118-8.826-18.262a13.74,13.74,0,0,0-3.255-4.594c-1-.873-1.324-.914-2.524-.256a15.305,15.305,0,0,0-4.183,3.463A28.725,28.725,0,0,0,1658,983.39c-1.876,5.2-3.692,10.424-5.565,15.625a71.8,71.8,0,0,0-3.9,15.187c-.148,1.151-.457,2.282-.686,3.424a3.325,3.325,0,0,0,.024,2.14.408.408,0,0,1-.187.546.587.587,0,0,1-.769-.21,1.467,1.467,0,0,1-.285-.788,17.68,17.68,0,0,1,.24-2.165c.453-2.654.936-5.3,1.393-7.956a27.727,27.727,0,0,1,1.078-4.451q3.657-10.512,7.337-21.017a30.681,30.681,0,0,1,6.2-10.435,15.951,15.951,0,0,1,4.206-3.418c1.877-1.029,1.675-.645,1.366-2.868-.1-.719-.281-1.426-.437-2.136-.546-2.486-1.2-4.953-1.624-7.458a32.676,32.676,0,0,1,.209-12.583,19.6,19.6,0,0,1,2.843-6.569,7.4,7.4,0,0,1,2.332-2.26,2.685,2.685,0,0,1,1.445-.422A1.785,1.785,0,0,1,1675,936.9a3.962,3.962,0,0,1,.019,2.367,29.86,29.86,0,0,1-.981,2.888c-.535,1.353-1.156,2.671-1.694,4.022a29.807,29.807,0,0,0-2.068,12.175c.074,2.185.319,4.352.519,6.525.1,1.068.131,2.142.2,3.324a39.9,39.9,0,0,1,5.519-.671c.645-.049.893-.353.916-1,.015-.435-.012-.873-.032-1.309a95.858,95.858,0,0,1,.206-10.254c.382-6.27,2.334-12.117,4.847-17.8a15.935,15.935,0,0,1,2.045-3.344,4.444,4.444,0,0,1,.735-.789.867.867,0,0,1,1.367.524,5.441,5.441,0,0,1,.022,1.514,19.8,19.8,0,0,1-.489,2.349,154.808,154.808,0,0,0-3.826,19.033c-.435,3.16-1.348,6.255-2.061,9.375-.342,1.5-.335,1.548,1.1,1.441,1.814-.135,3.626-.3,5.436-.481,1.022-.1,1.1-.211,1.076-1.209-.074-3.273-.181-6.547-.222-9.821-.019-1.526.044-3.056.137-4.581a36.637,36.637,0,0,1,4.383-14.522,16.489,16.489,0,0,1,4.2-5.245,7.116,7.116,0,0,1,1.28-.818.792.792,0,0,1,1.031.536,5.459,5.459,0,0,1,.012,1.51,25.041,25.041,0,0,1-.649,2.76c-.576,1.953-1.187,3.9-1.8,5.839a122.224,122.224,0,0,0-3.483,13.747,97.916,97.916,0,0,1-2.431,10.188c-.084.274-.129.559-.177.776.179.411.469.394.757.35,2.661-.4,5.323-.8,7.981-1.224.855-.135.976-.3.889-1.154-.095-.941-.227-1.878-.347-2.816a32.286,32.286,0,0,1-.037-8.057,46.582,46.582,0,0,1,8.413-21.525,7.759,7.759,0,0,1,1.619-1.755,2.132,2.132,0,0,1,1.63-.474,1.267,1.267,0,0,1,1.141.884,5.5,5.5,0,0,1,.234,1.5,10.637,10.637,0,0,1-.193,1.95,25.529,25.529,0,0,1-.653,2.76c-1.98,6.4-4.056,12.758-6.43,19.019a66.353,66.353,0,0,1-2.779,6.4,5.188,5.188,0,0,0-.842,2.4,1.034,1.034,0,0,0,1.067.082c1.547-.407,3.093-.819,4.627-1.272a9.782,9.782,0,0,0,2.573-1.173,1.623,1.623,0,0,0,.791-1.232c.121-1.012.258-2.023.442-3.024a81.531,81.531,0,0,1,4.948-16.258,28.881,28.881,0,0,1,4.336-7.29,8.716,8.716,0,0,1,1.888-1.8,1.258,1.258,0,0,1,1.965.613,5,5,0,0,1,.155,2.585,16.883,16.883,0,0,1-1.571,4.75q-1.875,3.94-3.8,7.86c-1.823,3.719-3.667,7.428-5.5,11.143-.028.058,0,.14-.005.338a2.864,2.864,0,0,0,1.97-.944,24.464,24.464,0,0,1,5.39-4.055,66.775,66.775,0,0,1,16.252-7.866,26.308,26.308,0,0,1,7.26-1.415,8.422,8.422,0,0,1,1.951.129,1.259,1.259,0,0,1,.861,1.869,4.324,4.324,0,0,1-1.815,1.833,24.309,24.309,0,0,1-3.76,1.732c-6.637,2.391-13.261,4.815-19.917,7.149a32.971,32.971,0,0,1-5.389,1.729,8.727,8.727,0,0,0-2.112.969c.019.676.482.557.788.575a60.269,60.269,0,0,1,10.762,1.738,35.064,35.064,0,0,1,11.382,4.852,13.207,13.207,0,0,1,3.392,3.046c1.348,1.826.706,3.424-1.526,3.745a10.306,10.306,0,0,1-4.1-.413,38.2,38.2,0,0,1-7.135-2.694q-5-2.443-9.75-5.346c-1.735-1.064-3.511-2.061-5.248-3.121a2.263,2.263,0,0,0-2.632-.069,17.118,17.118,0,0,1-4.676,1.77,3.439,3.439,0,0,0-1.6.6c.228.641.82.541,1.262.653a42.719,42.719,0,0,1,13.578,6.314,34.276,34.276,0,0,1,8.579,8.611,9.515,9.515,0,0,1,1.125,2.108,1.233,1.233,0,0,1-1.346,1.828,9.169,9.169,0,0,1-1.911-.417,19.068,19.068,0,0,1-4.354-2,139.471,139.471,0,0,1-15.408-11.051,38,38,0,0,1-4.607-4.647,1.341,1.341,0,0,0-1.3-.6,73.79,73.79,0,0,0-7.511,1.231c-.012.7.573.636.924.77a36.8,36.8,0,0,1,9.717,5.328,26.7,26.7,0,0,1,2.932,2.607A62.522,62.522,0,0,1,1714.12,987a9.992,9.992,0,0,1,1.1,2.365.947.947,0,0,1-1.093,1.218,5.857,5.857,0,0,1-2.057-.69,22.641,22.641,0,0,1-3.98-2.663,77.881,77.881,0,0,1-6.677-6.27,95.21,95.21,0,0,0-7.606-6.871,26.547,26.547,0,0,1-4.88-5.271,1.989,1.989,0,0,0-2.042-.9c-1.953.206-3.913.354-5.87.522a1.032,1.032,0,0,0-.78.307l-.051-.008Zm-10.393-2.529c-.084.142-.127.15-.131.026l.125.062a1.159,1.159,0,0,0-.912-1.024c.233-.127.644-.065.634-.457-.017-.723-.084-1.445-.143-2.167a44.944,44.944,0,0,1-.174-8.26,33.192,33.192,0,0,1,2.745-10.266c.593-1.324,1.144-2.669,1.659-4.025a4.725,4.725,0,0,0,.327-2.563.862.862,0,0,0-1.145-.68,3.714,3.714,0,0,0-2.045,1.534,17.815,17.815,0,0,0-3.078,6.672,31.419,31.419,0,0,0-.113,12.762c.416,2.209.942,4.4,1.4,6.6a4.963,4.963,0,0,1-.018.84c.292.318.582.635.862.946Zm15.339-31.07.063-.069.011.08a5.222,5.222,0,0,0-1.827,2.634,50.667,50.667,0,0,0-4.513,15.175,85.405,85.405,0,0,0-.462,12.613c.009.274-.06.593.325.7.085-.1.217-.2.245-.313a97.8,97.8,0,0,0,2.242-9.978,126.482,126.482,0,0,1,3.026-15.816q.5-1.895.951-3.8c.093-.409.313-.84-.067-1.226Zm15.574,26.66c.357,0,.508-.26.63-.518.556-1.181,1.145-2.35,1.639-3.557,2.889-7.06,5.191-14.325,7.461-21.6a24.744,24.744,0,0,0,.736-3.4,7.017,7.017,0,0,0-.038-1.723c-.03-.329-.558-.5-.874-.333a5.377,5.377,0,0,0-1.815,1.842,45.928,45.928,0,0,0-7.931,20.054,34.152,34.152,0,0,0-.142,8.038,1.679,1.679,0,0,0,.334,1.2Zm23.858,17.533a38.033,38.033,0,0,0-12.732-9.579,39.9,39.9,0,0,0-8.418-2.967c-.245-.057-.613-.227-.739.164a.714.714,0,0,0,.207.549,32.627,32.627,0,0,0,2.428,2.5,132.2,132.2,0,0,0,15.49,11.292,19.193,19.193,0,0,0,4.112,2,16.27,16.27,0,0,0,1.68.444c.123.028.364-.027.393-.1a.852.852,0,0,0,.055-.612,21.37,21.37,0,0,0-2.474-3.691Zm-10.146-16.722c.076.124.119.289.223.352,4.17,2.513,8.313,5.073,12.684,7.234a44.521,44.521,0,0,0,6.664,2.7,15.634,15.634,0,0,0,3.409.715,4.734,4.734,0,0,0,1.94-.179.806.806,0,0,0,.487-1.214,9,9,0,0,0-2.666-2.84,29.728,29.728,0,0,0-8.332-4.222,60.142,60.142,0,0,0-13.445-2.725c-.326-.03-.7-.17-.966.179ZM1680.95,972.3c1.182,1.2,2.444,2.412,3.619,3.7a144.074,144.074,0,0,0,14.59,14.071,16.1,16.1,0,0,0,3.8,2.529.408.408,0,0,0,.366-.084.482.482,0,0,0,.1-.385,2.446,2.446,0,0,0-.248-.6,36.085,36.085,0,0,0-5.8-8.152,77.057,77.057,0,0,0-11.611-9.874c-1.666-1.157-3.485-2.093-5.236-3.128-.189-.112-.441-.181-.545.024a.723.723,0,0,0,.06.6c.255.433.575.834.9,1.3Zm9.7-3.564a16.028,16.028,0,0,0,3.648,4.287l2.838,2.383c2.844,2.391,5.377,5.106,8.03,7.7a35.859,35.859,0,0,0,5.331,4.484c.972.637,1.819,1.68,3.213,1.365a8.733,8.733,0,0,0-1.571-3.02,55.715,55.715,0,0,0-7.335-8.915,28.046,28.046,0,0,0-5.406-4.38,30.331,30.331,0,0,0-8.748-3.9Zm-1.822-4.331.453.072c.213-.674.47-1.338.632-2.025.536-2.26,1.106-4.515,1.54-6.795a139.627,139.627,0,0,1,4.284-16.651c.623-1.933,1.148-3.9,1.7-5.851.076-.267.166-.591-.116-.8-.323-.238-.543.064-.72.246a18.146,18.146,0,0,0-3.206,4.1,36.816,36.816,0,0,0-4.3,12.489,37.583,37.583,0,0,0-.356,4.993q.051,5.115.091,10.222Zm-17.15,6.3a25.355,25.355,0,0,1,2.751,4.509c3.079,6.425,6.225,12.817,9.331,19.229a12.268,12.268,0,0,0,1.794,2.725.782.782,0,0,0,.533.257c.288-.008.279-.306.268-.506A23.723,23.723,0,0,0,1685.4,992a51.533,51.533,0,0,0-7.475-15.678,22.649,22.649,0,0,0-4.618-4.917,2.113,2.113,0,0,0-1.628-.7Zm46.886-13.213a3.4,3.4,0,0,0,2.166-.4q7.409-2.6,14.8-5.275c2.258-.813,4.51-1.643,6.748-2.508a9.965,9.965,0,0,0,2.889-1.51c.318-.265.815-.488.7-.991-.126-.568-.685-.45-1.088-.446a19.767,19.767,0,0,0-2.175.148,28.745,28.745,0,0,0-5.511,1.315,68.306,68.306,0,0,0-15.111,7.242,13.148,13.148,0,0,0-3.422,2.425Zm-6.294.975a3.722,3.722,0,0,0,1.2-1.755q4.107-8.422,8.182-16.861a17.718,17.718,0,0,0,1.36-3.673,6.22,6.22,0,0,0,.2-2.374.661.661,0,0,0-.227-.345.407.407,0,0,0-.583.059c-.649.682-1.316,1.354-1.9,2.092a24.249,24.249,0,0,0-3.1,5.237,84.824,84.824,0,0,0-5.229,16.376c-.083.386-.293.814.1,1.244Z" transform="translate(-14 -166)" fill="#bf9460"/>
    <path id="Path_178" data-name="Path 178" d="M463.325,1692.51a104.26,104.26,0,0,0,13.294-24.967c7.078-19.431,7.718-40.591,12.963-60.6,14.553-55.5,63.986-101.265,62.194-158.611-1.368-43.8-35.03-82.375-75.961-98.014s-87.323-11.241-128.752,3.024-78.948,37.75-116.3,60.659c-48.407,29.69-99.967,61.743-123.552,113.4-61.008,133.622,87.542,238.019,206.535,240.841,31.309.742,61.784-10.613,89.237-25.683C426.005,1729.93,448.256,1713.59,463.325,1692.51Z" transform="translate(-39 -56)" fill="#1d5902"/>
    <path id="Path_179" data-name="Path 179" d="M1681.36,2350.23a288.435,288.435,0,0,0,54.666-10.254,115.621,115.621,0,0,0,42.055-22.585c17.7-14.806,26.98-33.512,24.385-57.3a32.078,32.078,0,0,0-10.959-21.449,92.858,92.858,0,0,0-23.365-15.066c-6.1-2.806-12.484-4.974-18.56-7.818-7.473-3.5-15.213-6.717-22.024-11.274-15.471-10.348-16.815-29.814-3.135-42.449,4.111-3.8,9.213-6.585,14.055-9.515,8.4-5.083,16.927-9.943,24.56-16.2a37.572,37.572,0,0,0,12.284-17.5c4.37-13.141,1.114-24.692-9.606-33.271a43.224,43.224,0,0,0-14.961-7.986c-8.917-2.582-17.9-4.967-26.887-7.284-5-1.289-10.147-2.009-15.086-3.466a22.545,22.545,0,0,1-12.325-8.917c-4.449-6.346-4.351-11.452,1.127-16.539a87.6,87.6,0,0,1,9.932-7.4c7.218-5,14.556-9.832,21.736-14.889a63.1,63.1,0,0,0,13.569-12.647,32.475,32.475,0,0,0,6.433-13.9c5.131-25.634-33.019-30.123-50.267-29.307-22.851,1.081-48.919,2.8-70.139,11.824a118.1,118.1,0,0,0-27.255,16.459c-4.028,3.208-17.956,21.293-21.871,21.524-27.477,32.449-42.543,70.831-49.045,112.26-7.057,44.963-4.315,89.664,9.929,133.251a143.184,143.184,0,0,0,16.46,34.93c26.919,40.617,65.358,58.462,113.366,57.386C1673.02,2350.81,1675.6,2350.57,1681.36,2350.23Z" transform="matrix(0.799, 0.602, -0.602, 0.799, 1598.342, -722.251)" fill="#e1c7a6"/>
    <g id="Group_25" data-name="Group 25" transform="translate(-53.298 -80)" opacity="0.6">
      <path id="Path_180" data-name="Path 180" d="M193.141,1715.57c-1.374,1.667-3.361,3.127-3.9,5.622a.87.87,0,0,1-.246.5c-1.724,1.263-2,3.4-3.045,5.069a4.36,4.36,0,0,0-.426,3.858,1.651,1.651,0,0,0,1.383,1.279,20.806,20.806,0,0,1,3.886.925,4.76,4.76,0,0,0,2.267.02c2.064-.368,4.132-.709,6.2-1.078a13.946,13.946,0,0,0,4.272-1.561,5.032,5.032,0,0,0,2.218-2.859,1.907,1.907,0,0,0-.132-1.658c-1.246-2.237-1.854-4.792-3.424-6.871a3.167,3.167,0,0,1-.531-1.006,2.264,2.264,0,0,0-2.277-1.81,2.8,2.8,0,0,1-2.034-.9c-1.1-1.193-2.2-.819-3.335-.127C193.773,1715.13,193.544,1715.3,193.141,1715.57Z" fill="#1d5902"/>
      <path id="Path_181" data-name="Path 181" d="M216.073,1699.3c-1.1,1.206-2.959,2.632-3.414,5.059a.813.813,0,0,1-.257.5c-1.812,1.206-1.933,3.422-3.014,5.069a3.968,3.968,0,0,0-.374,3.585,1.879,1.879,0,0,0,1.593,1.438,1.206,1.206,0,0,1,.282.046c4.582,1.828,9.016.2,13.466-.636a8.486,8.486,0,0,0,2.847-1.3,3.585,3.585,0,0,0,1.433-4.932,83.875,83.875,0,0,0-3.807-7.64,2.222,2.222,0,0,0-1.758-1.3,4.3,4.3,0,0,1-2.567-1.076c-1.158-.906-1.655-.879-2.816-.1C217.292,1698.27,216.939,1698.6,216.073,1699.3Z" fill="#1d5902"/>
      <path id="Path_182" data-name="Path 182" d="M185.442,1752.66c-1.271,1.64-3.159,2.941-3.664,5.238a1.322,1.322,0,0,1-.382.747c-1.736,1.28-1.881,3.473-2.966,5.126a3.5,3.5,0,0,0-.4,2.224c.114,1.375.684,1.916,2.066,2.327a13.333,13.333,0,0,0,8.127.274,27.8,27.8,0,0,1,3.389-.531,9.846,9.846,0,0,0,4.444-1.868,3.369,3.369,0,0,0,1.088-4.537c-1.193-2.483-2.486-4.918-3.74-7.371a2.02,2.02,0,0,0-1.795-1.23,2.752,2.752,0,0,1-2.056-.865c-.986-1.1-2-.857-3.072-.224C186.149,1752.17,185.842,1752.4,185.442,1752.66Z" fill="#1d5902"/>
      <path id="Path_183" data-name="Path 183" d="M195.687,1771.15c-.932,1.078-2.455,2.412-3.051,4.418-.08.269-.13.63-.324.768-1.594,1.136-1.716,3.133-2.735,4.6a3.91,3.91,0,0,0-.641,2.459c.077,1.362.454,2.423,2.123,2.521a8.4,8.4,0,0,1,2.213.549,5.983,5.983,0,0,0,3.1.191c1.783-.316,3.573-.595,5.356-.91a13.556,13.556,0,0,0,4.025-1.423,4.61,4.61,0,0,0,2.036-2.3,2.184,2.184,0,0,0,.1-1.937q-2.019-4.083-4.119-8.126a1.661,1.661,0,0,0-1.382-.9,3.163,3.163,0,0,1-2.309-.961c-.878-1-1.861-.771-2.834-.19a18.512,18.512,0,0,0-1.558,1.241Z" fill="#1d5902"/>
      <path id="Path_184" data-name="Path 184" d="M248.449,1734.56c-1.2,1.335-2.753,2.757-3.458,4.812a2.219,2.219,0,0,1-.49,1c-1.5,1.206-1.749,3.127-2.707,4.64a4.313,4.313,0,0,0-.494,1.917c-.123,1.606.533,2.394,2.164,2.794.834.2,1.669.408,2.493.649a5.411,5.411,0,0,0,2.545.139c1.971-.364,3.946-.7,5.921-1.043a9.3,9.3,0,0,0,4.2-1.716c1.717-1.326,2.124-2.791,1.174-4.757-1.115-2.309-2.344-4.562-3.484-6.859a2.115,2.115,0,0,0-1.77-1.263,3.732,3.732,0,0,1-1.833-.674C251.011,1733.02,250.276,1733.09,248.449,1734.56Z" fill="#1d5902"/>
      <path id="Path_185" data-name="Path 185" d="M162.508,1772.65a21.687,21.687,0,0,0-3.276,4.531c-.694,1.5-1.732,2.889-2.5,4.4a6.52,6.52,0,0,0-.9,2.986,2.141,2.141,0,0,0,1.916,2.4c.834.2,1.675.385,2.495.634a5.361,5.361,0,0,0,2.547.123c1.786-.314,3.581-.578,5.356-.947a18.443,18.443,0,0,0,3-.911,4.536,4.536,0,0,0,2.223-1.739,2.781,2.781,0,0,0,.364-2.959c-1.255-2.457-2.47-4.935-3.727-7.391a1.686,1.686,0,0,0-1.351-.954,4.3,4.3,0,0,1-2.107-.778c-1.441-.975-1.977-.932-3.314.022C163.083,1772.17,162.94,1772.3,162.508,1772.65Z" fill="#1d5902"/>
      <path id="Path_186" data-name="Path 186" d="M203.75,1684.18a19.967,19.967,0,0,0-3.2,4.249c-.827,1.57-1.759,3.107-2.591,4.691a4.415,4.415,0,0,0-.558,3.3,1.642,1.642,0,0,0,1.284,1.362c1.116.25,2.22.55,3.337.792a3.016,3.016,0,0,0,1.135.052c2.441-.424,4.889-.826,7.309-1.357a6.993,6.993,0,0,0,2.307-1.1c1.733-1.166,2.077-2.474,1.163-4.411-.972-2.06-2.02-4.085-3.052-6.116a2.006,2.006,0,0,0-1.8-1.215,2.485,2.485,0,0,1-1.79-.787,1.794,1.794,0,0,0-2.564-.157C204.412,1683.68,204.112,1683.92,203.75,1684.18Z" fill="#1d5902"/>
      <path id="Path_187" data-name="Path 187" d="M147.365,1754.33a15,15,0,0,0-3.218,4.26c-.78,1.479-1.72,2.9-2.488,4.41a4.054,4.054,0,0,0-.407,3.038,1.481,1.481,0,0,0,1.1,1.185c2.209.459,4.363,1.315,6.706.475a20.732,20.732,0,0,1,3.37-.56,9.233,9.233,0,0,0,3.444-1.309,3.018,3.018,0,0,0,1.206-4.181,46.744,46.744,0,0,0-2.955-5.829,2.578,2.578,0,0,0-1.755-1.294,3.979,3.979,0,0,1-1.312-.474C149.176,1753,148.972,1753,147.365,1754.33Z" fill="#1d5902"/>
      <path id="Path_188" data-name="Path 188" d="M231.529,1718.6a6.8,6.8,0,0,0-2.3,2.742c-.886,1.875-2.232,3.471-3.013,5.39a6.3,6.3,0,0,0-.621,2.179c-.045,1.449.418,1.854,1.85,2.37,3.758,1.355,7.3,0,10.893-.718a5.367,5.367,0,0,0,1.77-.9,2.781,2.781,0,0,0,1.163-3.894c-.951-2.061-2.011-4.072-3.047-6.093a1.659,1.659,0,0,0-1.333-.96,3.572,3.572,0,0,1-2.056-.9,1.718,1.718,0,0,0-2.338.014C232.182,1718.05,231.9,1718.31,231.529,1718.6Z" fill="#1d5902"/>
      <path id="Path_189" data-name="Path 189" d="M222.092,1756.89a11.215,11.215,0,0,0-1.465,1.734c-1.181,1.94-2.27,3.938-3.341,5.942a4.357,4.357,0,0,0-.435,1.643,1.988,1.988,0,0,0,1.663,2.275,9.634,9.634,0,0,0,5.9.223,22.048,22.048,0,0,1,3.1-.545,7.561,7.561,0,0,0,2.885-1.219,2.775,2.775,0,0,0,1.061-3.731c-.866-1.9-1.854-3.746-2.78-5.62a1.753,1.753,0,0,0-1.058-.9c-.537-.186-1.217-.208-1.6-.56C224.662,1754.87,223.6,1755.55,222.092,1756.89Z" fill="#1d5902"/>
      <path id="Path_190" data-name="Path 190" d="M172.856,1789.27a24.579,24.579,0,0,0-2.163,2.652c-1.036,1.684-1.929,3.457-2.862,5.2a4.173,4.173,0,0,0-.539,2.482,1.947,1.947,0,0,0,1.57,1.784,9.7,9.7,0,0,0,5.891.271,23.827,23.827,0,0,1,3.1-.521,6.792,6.792,0,0,0,3.1-1.4,2.825,2.825,0,0,0,.821-3.8,39.543,39.543,0,0,0-2.56-5.1,2.484,2.484,0,0,0-1.741-1.314,1.877,1.877,0,0,1-1.049-.385C175.164,1787.86,174.044,1788.34,172.856,1789.27Z" fill="#1d5902"/>
      <path id="Path_191" data-name="Path 191" d="M158.376,1719.54a20.994,20.994,0,0,0-1.993,2.4c-1.083,1.764-2.043,3.6-3.034,5.423a4.037,4.037,0,0,0-.524,2.187,1.673,1.673,0,0,0,1.435,1.831c1.929.478,3.832,1,5.867.32a30.316,30.316,0,0,1,3.637-.659,5.712,5.712,0,0,0,3.179-1.782,2.211,2.211,0,0,0,.5-2.616c-1-2.035-2-4.072-3.045-6.082a1.785,1.785,0,0,0-.891-.647c-.52-.215-1.246-.17-1.594-.523C160.62,1718.08,159.547,1718.63,158.376,1719.54Z" fill="#1d5902"/>
      <path id="Path_192" data-name="Path 192" d="M135.585,1739.98a11.541,11.541,0,0,0-2.594,3.332,31.6,31.6,0,0,1-1.921,3.445,3.915,3.915,0,0,0-.571,1.887,1.778,1.778,0,0,0,1.343,1.931c1.651.37,3.266.862,5.035.343,1.624-.478,3.385-.427,4.955-1.214a2.948,2.948,0,0,0,1.427-1.31,2.207,2.207,0,0,0,.113-2.164,21,21,0,0,1-1.445-3.093c-.679-2.145-2.516-2.886-4.252-3.778a1.135,1.135,0,0,0-1.092.056C136.173,1739.65,135.767,1739.88,135.585,1739.98Z" fill="#1d5902"/>
      <path id="Path_193" data-name="Path 193" d="M185.862,1704.9c-.693-1.375-2.259-1.271-3.344-1.962-.152-.1-.578.079-.782.245a9.324,9.324,0,0,0-1.881,1.731,28.007,28.007,0,0,0-2.8,4.949,2.668,2.668,0,0,0-.173,1.673,1.072,1.072,0,0,0,.666.867,10.769,10.769,0,0,0,1.655.433,13.863,13.863,0,0,0,7.5-1.221,2.03,2.03,0,0,0,1.041-2.867C187.18,1707.44,186.495,1706.18,185.862,1704.9Z" fill="#1d5902"/>
      <path id="Path_194" data-name="Path 194" d="M171.169,1734.61a18.223,18.223,0,0,0-3.771,6.522,1.485,1.485,0,0,0,1.113,1.981,6.8,6.8,0,0,0,3.64.342,38.65,38.65,0,0,0,4.435-1.033,2.451,2.451,0,0,0,1.386-3.47c-.453-.717-.746-1.534-1.132-2.3a5.62,5.62,0,0,0-3.066-2.783C172.949,1733.55,172.312,1733.65,171.169,1734.61Z" fill="#1d5902"/>
      <path id="Path_195" data-name="Path 195" d="M211.335,1741.96c-1.549-1.445-2.688-1.591-3.709-.108a21.979,21.979,0,0,0-1.684,2.95c-.5,1.033-.171,1.646.893,1.908a7.378,7.378,0,0,0,4.947-.675,1.31,1.31,0,0,0,.656-1.692C212.086,1743.47,211.648,1742.63,211.335,1741.96Z" fill="#1d5902"/>
    </g>
    <path id="Path_196" data-name="Path 196" d="M1885.39,2034.73c-.24-14.842-10.714-27.177-18.658-39.716a133.3,133.3,0,0,1-13.7-111.688c5.317-16,13.651-30.808,21.933-45.5l85.3-151.3" transform="translate(0 -197.823)" fill="none" stroke="#95bf56" stroke-width="3"/>
    <path id="Path_514" data-name="Path 514" d="M1885.39,2034.73c-.24-14.842-10.714-27.177-18.658-39.716a133.3,133.3,0,0,1-13.7-111.688c5.317-16,13.651-30.808,21.933-45.5l85.3-151.3" transform="translate(2853.628 2411.385) rotate(99)" fill="none" stroke="#95bf56" stroke-width="3"/>
    <path id="Path_197" data-name="Path 197" d="M1762.02,3000.52c24.924,27.032,56.419,49.276,84.678,75.189a185.722,185.722,0,0,0,54.167,34.869c21.226,8.833,43.074,12.643,65.595,7.106,69.281-17.035,126.066-53.865,168.2-111.367,31.738-43.314,38.349-92.144,23.913-143.678-16.287-58.144-41.809-112.063-75.034-162.439-32.889-49.864-84.026-54.3-126.492-40.282a62,62,0,0,0-27.445,18.629,236.076,236.076,0,0,0-47.185,82.636c-5.948,18.19-5.4,36.147,2.248,53.822,4.438,10.252,8.989,20.474,12.9,30.929,3.933,10.509,6.709,21.378,5.148,32.8-1.684,12.325-10.15,18.494-22.032,15.41-10.9-2.83-20.77-8.293-30.106-14.477-8.651-5.729-17.207-11.687-25.255-18.221-10.851-8.811-23.2-13.71-36.64-16.807-21.169-4.877-37.746,2.352-50.664,18.836-4.894,6.245-8.855,13.286-12.724,20.252-4.645,8.359-8.546,17.131-13.126,25.528-3.95,7.24-4.993,14.58-4.875,22.925.212,15.058,7.747,25.6,17.9,35.036C1736.89,2978.09,1748.87,2988.66,1762.02,3000.52Z" transform="translate(-62.562 272.938)" fill="#e1dbcf"/>
    <path id="Path_198" data-name="Path 198" d="M277.8,2750.5a78.8,78.8,0,0,0,13.641,15.065,111.347,111.347,0,0,0,13.64,10.4c3.315,2.14,6.83,3.83,10.869,4.094a5.518,5.518,0,0,0,2.659-.255,1.754,1.754,0,0,0,.919-2.249,7.2,7.2,0,0,0-1.3-1.813c-1.1-1.022-2.277-1.968-3.465-2.889q-12.493-9.69-25-19.364a46.152,46.152,0,0,0-7.512-4.99c-.672-.338-1.367-.63-2.284-1.049l5.966-9.383c1.5-.124,1.673.92,2.044,1.651,6.126,12.091,15.574,20.9,27.2,27.543a55.124,55.124,0,0,0,5.319,2.466,8.261,8.261,0,0,0,3.976.632,2.321,2.321,0,0,0,2.027-2.921,8.225,8.225,0,0,0-2.373-3.782c-2.519-2.372-5.056-4.731-7.675-6.991-4.217-3.639-8.562-7.132-12.751-10.8-4.413-3.868-8.711-7.867-13.05-11.82-1.063-.968-1.107-1.406-.159-2.7a56.52,56.52,0,0,1,14.456-13.5c8.647-5.786,18.091-9.519,28.566-10.282a52.4,52.4,0,0,1,5.409-.076,96.21,96.21,0,0,1,41.3,10.178c2.277,1.161,4.492,2.452,6.678,3.778a8.2,8.2,0,0,1,3.539,3.378.868.868,0,0,0,1.455.357,1.462,1.462,0,0,0,.212-1.679,6.854,6.854,0,0,0-2.713-2.954c-2.545-1.6-5.061-3.277-7.718-4.676-13.73-7.226-28.48-10.38-43.893-10.755-9.079-.222-17.568,2.12-25.7,6a65.569,65.569,0,0,0-15.034,9.9c-1.107.969-2.23,1.919-3.369,2.9-.887-1.114-.064-1.845.233-2.585a100.854,100.854,0,0,0,6.876-34.793,7.246,7.246,0,0,0-.423-3.543,1.762,1.762,0,0,0-2.65-.674,11.205,11.205,0,0,0-2.777,4.069,74.46,74.46,0,0,0-5.214,14.411c-.273,1.087-.507,2-2.028,1.676-1.19-.255-1.92.731-2.619,1.492a23.727,23.727,0,0,0-4.7,8.171c-.51,1.411-.927,2.856-1.384,4.277-.787.257-.967-.407-1.316-.814-1.6-1.869-2.565-1.923-3.825-.143-.687.97-1.261,2.019-1.853,2.98-.875-.143-.871-.826-1.165-1.286-1.583-2.476-3.048-2.517-4.778-.131a16.563,16.563,0,0,0-2.322,4.875c-2.8,9.055-5.782,18.076-7.48,27.419a76.039,76.039,0,0,0-1.386,16.61c.1,2.65-.175,2.858-3.663,3.12.478-2.228,1.015-4.4,1.406-6.6a176.739,176.739,0,0,0,2.636-36.392c-.036-1.2.027-2.414-.083-3.61-.179-1.946-.4-3.893-.723-5.818-.283-1.673-.842-3.406-2.731-3.773-2.012-.391-2.873,1.323-3.669,2.75a31.034,31.034,0,0,0-3.142,9.377,82.3,82.3,0,0,0-.914,24.273,157.008,157.008,0,0,0,2.67,18.323,11.022,11.022,0,0,1,.3,1.778c.092,1.548-.561,2.426-2.15,3-.142.051-.287.091-.432.131-7.737,2.147-6.361,2.235-6.174-4.432a164.273,164.273,0,0,0-1.647-26.56c-.8-5.968-1.812-11.91-2.181-17.935a35.924,35.924,0,0,0-.861-5.346,9.594,9.594,0,0,0-1.04-2.466,1.961,1.961,0,0,0-1.818-1.125,1.784,1.784,0,0,0-1.583,1.413,38.259,38.259,0,0,0-1.091,4.836,90.512,90.512,0,0,0,4.455,44.021c.932,2.543,1.913,5.069,2.77,7.637.5,1.5.011,2.184-1.59,2.573-.584.142-1.179.245-1.773.343-2.893.475-3.018.331-3.333-2.541a116.5,116.5,0,0,0-4.272-21.675c-2.169-7.046-3.994-14.2-5.968-21.306-.926-3.336-1.8-6.688-2.795-10a33.535,33.535,0,0,0-1.668-4.189,7.541,7.541,0,0,0-2.2-2.826,2.048,2.048,0,0,0-2.1-.413,1.813,1.813,0,0,0-1.191,1.744c-.027,1.8-.109,3.621.043,5.414.763,9.014,1.879,17.961,4.557,26.663a141.825,141.825,0,0,0,10.813,26.729,14.571,14.571,0,0,1,.944,2.022.85.85,0,0,1-.533,1.074,4.791,4.791,0,0,1-1.3.316c-6.8.819-5.828.992-6.9-4.884a136.15,136.15,0,0,0-4.255-16.148c-1.976-6.32-3.983-12.631-5.946-18.955a20.9,20.9,0,0,0-2.563-5.746c-.964-1.4-2.159-2.586-4.075-2.3-1.38.2-2.207,1.6-2.437,3.894a25.179,25.179,0,0,0,.292,6.3,93.248,93.248,0,0,0,12.87,34.456c.544.9,1.157,1.761,1.7,2.665.528.886.27,1.519-.652,1.606-.9.085-1.81.022-2.7.148-1.9.268-2.967-.331-3.749-2.264-3.61-8.923-7.39-17.778-11.152-26.638-.821-1.934-1.8-3.8-2.743-5.683a10.5,10.5,0,0,0-2.814-3.492c-2.568-2.078-5.153-1.186-5.589,2.04a17.145,17.145,0,0,0,.6,7.594,44.506,44.506,0,0,0,5.412,11.375c3.36,4.992,6.778,9.945,10.164,14.919.248.364.444.763.655,1.129-.641.753-1.38.449-2.106.319a134.008,134.008,0,0,0-28.763-2.051,60.183,60.183,0,0,0-13.827,1.993,22.194,22.194,0,0,0-7.308,3.451,7.034,7.034,0,0,0-2.385,2.66,2.444,2.444,0,0,0,.987,3.13,7.159,7.159,0,0,0,3.451.935c2.857.058,5.725.244,8.568.059,8.561-.56,17.125-1.148,25.663-1.981,4.032-.393,8.006-1.38,12.01-2.078a24.151,24.151,0,0,1,3.116-.4.575.575,0,0,1,.5.916c-.741,1.13-1.549,2.219-2.363,3.3a80.422,80.422,0,0,0-13.492,25.9,51.435,51.435,0,0,0-2.4,16,9.475,9.475,0,0,0,.539,3.546,2.1,2.1,0,0,0,3.342.847,12.614,12.614,0,0,0,2.356-2.7,51.207,51.207,0,0,0,3.432-6.345c5.853-13.7,11.614-27.45,15.884-41.76.661-2.218.73-2.27,3.081-2.457a6.522,6.522,0,0,1,1.788.072.8.8,0,0,1,.647,1c-.325,1.153-.7,2.3-1.113,3.421a209.91,209.91,0,0,0-8,29.135,28.21,28.21,0,0,0-.021,12.549,6.993,6.993,0,0,0,2.109,3.9,2.771,2.771,0,0,0,4.026-.33,12.481,12.481,0,0,0,2.556-6.189c.779-4.444,1.563-8.9,2.068-13.378.977-8.667,1.765-17.357,2.624-26.038.06-.6,0-1.213.106-1.8a3.123,3.123,0,0,1,3.329-2.973c1.614-.055,3.266-.5,4.958.1a38.3,38.3,0,0,1-1.541,8.015,117.929,117.929,0,0,0-3.5,32.2,57.516,57.516,0,0,0,1.782,12.045,9.71,9.71,0,0,0,1.925,4.04,2.341,2.341,0,0,0,3.841-.264,9.444,9.444,0,0,0,1.449-4.234c.378-2.983.806-5.968,1-8.965.407-6.3.755-12.616.978-18.93a93.864,93.864,0,0,0-1.224-19.347c-.23-1.334-.432-2.675-.587-4.02a1.45,1.45,0,0,1,1.186-1.65c.577-.163,1.178-.248,1.77-.355,4.061-.731,4.1-.668,3.991,3.327a278.012,278.012,0,0,0,.927,32.024,53.545,53.545,0,0,0,3.821,16.666,14.714,14.714,0,0,0,3.26,5.352,1.719,1.719,0,0,0,2.9-.7,19.823,19.823,0,0,0,.634-7.147,190.417,190.417,0,0,0-3.744-31.813c-1.117-5.611-2.3-11.209-3.454-16.813-.409-1.992-.218-2.4,1.719-2.9,5.564-1.45,4.931-1.7,5.3,3.369a74.1,74.1,0,0,0,1.663,10.247c2.941,13.559,6.556,26.912,12.728,39.43a38.025,38.025,0,0,0,4.88,8.1c1,1.173,2.083,2.415,3.753,2.064,1.918-.4,2.3-2.127,2.638-3.81a14.684,14.684,0,0,0-.058-4.941,68.7,68.7,0,0,0-4.042-14.78,239.316,239.316,0,0,0-14.031-30.772,69.786,69.786,0,0,1-3.256-6.943c-1.461-3.563-.915-4.747,2.586-6.263.414-.179.818-.382,1.234-.554a1.168,1.168,0,0,1,1.529.566c.9,1.56,1.781,3.137,2.56,4.76a105.739,105.739,0,0,0,18.4,26.086A60.235,60.235,0,0,0,288.6,2812a49.49,49.49,0,0,0,5.95,3.208c1.2.564,2.643,1.122,3.782-.107,1.287-1.389.53-2.907-.257-4.157a30.18,30.18,0,0,0-3.555-4.642c-3.409-3.613-6.91-7.14-10.418-10.658a251.915,251.915,0,0,1-22.246-24.9,4.443,4.443,0,0,1-1.4-2.554,47.394,47.394,0,0,1,6.652-4.509c1.58,2,3.091,3.858,4.536,5.764a99.669,99.669,0,0,0,17.632,18.038,65.339,65.339,0,0,0,15.8,9.537,19.482,19.482,0,0,0,6.525,1.686,2.063,2.063,0,0,0,2.051-3.058,9.8,9.8,0,0,0-2.418-3.231c-1.648-1.544-3.331-3.053-5.06-4.5-7.843-6.587-15.835-12.986-24.106-19.033-3.038-2.221-5.953-4.609-8.942-6.9-1.774-1.359-2.374-1.879-.569-4.5C274.1,2755.25,275.8,2753.15,277.8,2750.5Zm-1.143-7.738c1.46,2.653-.117,4.929-.919,7.288-.114-.068-.243-.21-.339-.191-.441.092-.542-.009-.228-.249.053-.041.392.292.6.452-.249-.369-.725-.748-.709-1.106.092-2.163.026-4.4,1.707-6.13-.142-.351-.334-.712.158-.948.015-.007.2.224.176.269a5.79,5.79,0,0,1-.441.613ZM286,2726.7a24.582,24.582,0,0,0,.334,3.576c.693,2.906-.994,4.625-2.918,6.319a87.6,87.6,0,0,1,1.63-9.168.945.945,0,0,1,1-.67c-.034-.3-.612-.589-.01-.894Zm-24.833,37.359a100.444,100.444,0,0,1,4.31-10.646c.974,2.6.32,4.717.584,6.756a1.165,1.165,0,0,1-.213.845,8.218,8.218,0,0,1-4.681,3.046Z" transform="translate(-40.281 278.553)" fill="#95bf56"/>
    <g id="Group_26" data-name="Group 26" transform="translate(-246.191 -4.229)">
      <path id="Path_200" data-name="Path 200" d="M231.574,3698.86a12.522,12.522,0,0,0-.331,17.087c4.19,4.373,16.355,2.669,19.279-2.7,2.561-4.7.877-12.065-3.5-15.329a11.507,11.507,0,0,0-15.448.942Z" transform="translate(40.541 48.063)" fill="#fff"/>
      <path id="Path_201" data-name="Path 201" d="M262.6,3680.95c2.545,2.071,5.241,3.912,8.456,1.513,2.387-1.783,2.606-5.784.877-9.624a11.034,11.034,0,0,0-11.481-6.481,12.5,12.5,0,0,0-10.089,8.8,10.37,10.37,0,0,0,4.191,11.63c1.881,1.357,3.962,2.059,6.163.894,1.982-1.05,2.034-2.947,1.8-4.92a6.874,6.874,0,0,1,.273-1.826Z" transform="translate(51.153 33.956)" fill="#fff"/>
      <path id="Path_202" data-name="Path 202" d="M208.173,3753.6c-3.275-3.238-7.431-4.282-11.142-2.66-4.191,1.832-6.12,5.252-6.149,9.687a19.642,19.642,0,0,0,.86,5.526c.968,3.343,2.77,4.764,6.25,4.151,2.546-.448,4.945-.086,7.417-.1,3.863-.013,6.307-2.515,6.656-6.453a12.106,12.106,0,0,0-3.892-10.151Z" transform="translate(22.534 74.617)" fill="#fff"/>
      <path id="Path_203" data-name="Path 203" d="M266.036,3630.16c-2.893-3.042-5.7-4.271-9.081-4.027a7.084,7.084,0,0,0-6.44,4.8c-1.078,3.3-.411,7.052,2.77,8.188,4.567,1.629,6.1,5.02,7.778,8.835a4.774,4.774,0,0,0,5.437,2.835,5.5,5.5,0,0,0,4.3-4.577C271.782,3639.83,269.121,3634.5,266.036,3630.16Z" transform="translate(51.202 14.484)" fill="#fff"/>
      <path id="Path_204" data-name="Path 204" d="M300.212,3650.32c3.882,4.077,9.09,3.29,10.989-.727,2.307-4.882.475-12.943-3.735-16.437a8.17,8.17,0,0,0-9.647-.815,7.585,7.585,0,0,0-2.695,9.189,88.946,88.946,0,0,0,5.088,8.79Z" transform="translate(72.756 16.923)" fill="#fff"/>
      <path id="Path_205" data-name="Path 205" d="M303.326,3682.14c3.345-3.21,3.271-8.048-.184-11.875-3.753-4.16-9.7-4.409-13.488-.566a10.2,10.2,0,0,0-.432,13.8C292.835,3687.61,298.152,3687.1,303.326,3682.14Z" transform="translate(68.991 34.29)" fill="#fff"/>
      <path id="Path_206" data-name="Path 206" d="M270.961,3600.33c-3.663-3.649-8.338-4.568-11.736-2.665-3.591,2.011-5.187,6.265-4.011,10.7,1.05,3.961,11.2,8.655,15.091,7.031a6.286,6.286,0,0,0,3.753-5.129,11.738,11.738,0,0,0-3.1-9.937Z" transform="translate(53.527 0.234)" fill="#fff"/>
      <path id="Path_207" data-name="Path 207" d="M230.333,3614.09c1.283-2.888,3.818-2.946,5.6-4.129a6.953,6.953,0,0,0,3.268-7.263,7.443,7.443,0,0,0-6.158-6.308,11.066,11.066,0,0,0-11.332,5.088c-2.105,3.79-2.677,7.729-.021,11.563a7.167,7.167,0,0,0,4.516,3.17,3.589,3.589,0,0,0,4.127-2.121Z" transform="translate(36.6)" fill="#fff"/>
      <path id="Path_208" data-name="Path 208" d="M146.057,3676.84a15.961,15.961,0,0,0,3.6.979c2.292.076,3.161-1.443,3.618-3.541.33-1.5,1.357-1.963,2.493-.466a7.143,7.143,0,0,0,1.1,1.526c3.545,2.638,7.821.787,8.335-3.57a10.22,10.22,0,0,0-10.933-11.314,11.049,11.049,0,0,0-9.729,12.78,18.487,18.487,0,0,0,1.516,3.606Z" transform="translate(0 31.112)" fill="#fff"/>
      <path id="Path_209" data-name="Path 209" d="M186.806,3736.39a18.452,18.452,0,0,0,1.614-3.232,13.844,13.844,0,0,0-1.525-10.875,7.9,7.9,0,0,0-12.159-1.777,10.886,10.886,0,0,0-3.394,9.358,5.97,5.97,0,0,0,1.06,2.57c.949,1.461,9.864,5.373,11.669,5.086a13.134,13.134,0,0,0,2.735-1.129Z" transform="translate(13.041 59.219)" fill="#fff"/>
      <path id="Path_210" data-name="Path 210" d="M288.786,3716.12a5.275,5.275,0,0,0,1.98-4.521c-.264-3.935-3.547-7.441-7.729-8.353a9.968,9.968,0,0,0-10.113,15.8c1.617,1.952,5.138,2.742,6.592.79,2-2.684,4.219-3.15,7.168-2.847C287.475,3717.07,288.354,3716.31,288.786,3716.12Z" transform="translate(61.324 51.762)" fill="#fff"/>
      <path id="Path_211" data-name="Path 211" d="M228.1,3628.21c-3.032-3.432-9.331-3.285-12.538.544a13.2,13.2,0,0,0-2.607,13.18c1.018,3.129,4.47,4.536,6.558,2.255,2.047-2.237,4.785-2.836,7.022-4.44a7.875,7.875,0,0,0,1.565-11.539Z" transform="translate(32.872 14.317)" fill="#fff"/>
      <path id="Path_212" data-name="Path 212" d="M187.58,3696.88a9.791,9.791,0,0,0,1.354-1.94,15.022,15.022,0,0,0,.108-11.916,7.514,7.514,0,0,0-7.316-4.92c-3.18.111-5.232,1.926-6.618,4.571-1.93,3.682-1.369,6.328,1.82,10.069,1.2,1.412,2.108,3.091,3.392,4.412C181.983,3698.87,185.424,3698.76,187.58,3696.88Z" transform="translate(14.351 39.686)" fill="#fff"/>
      <path id="Path_213" data-name="Path 213" d="M178.954,3645.7a81.746,81.746,0,0,0,7.488,3.75c2.994,1.158,6.5-.7,7.775-3.729a9.659,9.659,0,0,0-4.326-12.233,7.791,7.791,0,0,0-8.823,1.19c-2.828,2.475-4.242,6.544-3.187,9.346a9.9,9.9,0,0,0,1.073,1.676Z" transform="translate(16.065 17.645)" fill="#fff"/>
      <path id="Path_214" data-name="Path 214" d="M320.448,3708.59c2.435-2.352,2.141-7.228-.616-10.257a8.863,8.863,0,0,0-11.9-.925c-3.784,3.214-3.734,9.5.108,13.388C311.035,3713.84,315.92,3712.97,320.448,3708.59Z" transform="translate(77.898 48.134)" fill="#fff"/>
      <path id="Path_215" data-name="Path 215" d="M218.733,3742.37c3.866,4.236,9.309,5,12.432,1.741,2.96-3.083,2.717-8.747-.515-11.967a8.379,8.379,0,0,0-11.144-.539,7.115,7.115,0,0,0-.773,10.766Z" transform="translate(35.013 64.71)" fill="#fff"/>
      <path id="Path_216" data-name="Path 216" d="M216.045,3661.64c-2.889-2.854-6.249-3.437-9.022-1.9-3.527,1.954-5.294,6.056-3.9,9.579a5.074,5.074,0,0,0,2.326,2.75,27,27,0,0,1,7.393,3.837c2.093,1.667,5.175.153,5.9-2.5a12,12,0,0,0-2.7-11.766Z" transform="translate(28.236 30.385)" fill="#fff"/>
      <path id="Path_217" data-name="Path 217" d="M266.484,3743.63c2.963-3.329,2.488-9.3-.849-11.95a7.071,7.071,0,0,0-10.514,2.116,13.128,13.128,0,0,0-1.369,7.28c.322,4.176,2.886,6.117,7.021,5.217C262.906,3745.83,265.092,3745.39,266.484,3743.63Z" transform="translate(52.979 64.929)" fill="#fff"/>
      <path id="Path_218" data-name="Path 218" d="M197.51,3608.38c3.948,4.009,8.159,4.844,10.814,2.145,2.818-2.864,2.487-8.036-.713-11.142-2.816-2.733-7.714-2.9-10.4-.352C194.667,3601.44,194.8,3605.63,197.51,3608.38Z" transform="translate(24.718 0.488)" fill="#fff"/>
      <path id="Path_219" data-name="Path 219" d="M207.238,3701.37a6.9,6.9,0,0,0-9.358-.635,7.435,7.435,0,0,0-1.024,10.182c2.11,2.6,7.439,2.978,10.34.743C209.768,3709.68,209.789,3704.36,207.238,3701.37Z" transform="translate(24.675 49.912)" fill="#fff"/>
    </g>
    <path id="Path_220" data-name="Path 220" d="M1713.39,3713.89l-1.761-.687a1.859,1.859,0,0,1-1.172-1.288c-1.5-4.655-5.011-7.476-9.063-9.757a8.963,8.963,0,0,0-3.513-1.012,62.485,62.485,0,0,1-15.27-3.721c-4.1-1.52-8.277-2.846-12.083-5.085a49.377,49.377,0,0,1-6.564-4.341,8.854,8.854,0,0,0-1.075-.742.565.565,0,0,0-.718.107.554.554,0,0,0-.094.7,3.007,3.007,0,0,0,.486.615,144.038,144.038,0,0,1,9.833,10.944c4.641,5.63,10.627,9.036,17.384,11.273a72.423,72.423,0,0,1,7.149,2.6,15.887,15.887,0,0,0,8.725,1.244c1.214-.154,2.429-.309,3.638-.5a5.1,5.1,0,0,1,4.447,1.779,2.877,2.877,0,0,1,.585,1.965,29.864,29.864,0,0,1-1,10.414,44.566,44.566,0,0,1-8.111,16.648q-8.782,11.147-17.589,22.277a40.563,40.563,0,0,1-4.932,5.092,66.227,66.227,0,0,0-6.516,6.849c-.183.218-.269.458-.08.686a.643.643,0,0,0,.935.076,6.494,6.494,0,0,0,.916-.931,63.176,63.176,0,0,1,5.936-5.952,40.873,40.873,0,0,0,5.069-5.321q8.536-10.839,17.1-21.659a44.745,44.745,0,0,0,8.619-17.827,9.055,9.055,0,0,1,2.117-4.144,4.892,4.892,0,0,1,3.306-1.8,13.508,13.508,0,0,0,11.3-8.3,117.31,117.31,0,0,0,6.342-16.957,47.818,47.818,0,0,0,.888-5.174,90.181,90.181,0,0,1,3.669-12.87c.648-2,1.376-3.97,2.057-5.957a10.966,10.966,0,0,0,.426-1.514c.062-.325.079-.711-.352-.865a.621.621,0,0,0-.694.222c-.236.258-.457.53-.666.81-.577.771-1.166,1.535-1.714,2.328-4.087,5.915-8.75,11.39-13.078,17.121a54.725,54.725,0,0,0-6.542,10.748,39.717,39.717,0,0,0-3.67,15.75c-.009.789-.011,1.58-.081,2.364a3.256,3.256,0,0,1-.343,1.242c-.484.893-1.513,1.606-1.756,1.3-.425-.538-.184-1.169-.167-1.75a37.234,37.234,0,0,0-3.392-16.061,99.84,99.84,0,0,0-5.227-10.308,6.878,6.878,0,0,1-1-3.974c.072-1.4.239-2.787.442-4.176a4.262,4.262,0,0,1,2.281-3.3c1.667-.959,3.255-2.058,4.849-3.139a12.493,12.493,0,0,0,4.444-5.415,28.128,28.128,0,0,0,1.274-3.165c2.161-7.121,4.318-14.242,6.4-21.385a86.826,86.826,0,0,0,2.689-14.983c.162-1.48.285-2.964.4-4.448a.564.564,0,0,0-.4-.6.589.589,0,0,0-.7.189,8.986,8.986,0,0,0-.83,1.325c-.768,1.67-1.5,3.358-2.242,5.039-1.526,3.441-3.033,6.891-4.587,10.319a39.027,39.027,0,0,1-4.466,7.412c-1.9,2.518-3.861,4.988-5.99,7.319a26.937,26.937,0,0,0-4.037,5.81,14.68,14.68,0,0,0-.937,12.2c.119.33.232.662.373.983a6.5,6.5,0,0,1,.343,5.068,20.832,20.832,0,0,0-.574,4.146.511.511,0,0,1-.307.341.536.536,0,0,1-.461-.113c-3.041-3.56-6.861-6.239-10.4-9.232a21.053,21.053,0,0,1-4.061-4.451,4.718,4.718,0,0,1-.808-3.465,24.812,24.812,0,0,0,.113-7.59,17.977,17.977,0,0,0-2.128-6.174,66.209,66.209,0,0,0-6.035-8.915,35.017,35.017,0,0,0-5.051-4.967c-4.353-3.54-8.463-7.356-12.608-11.131a49.091,49.091,0,0,1-5.163-5.6,13.182,13.182,0,0,0-1.211-1.374.74.74,0,0,0-.7-.069.9.9,0,0,0-.307.671,2.7,2.7,0,0,0,.2,1.023c2.714,6.667,4.3,13.7,6.6,20.5a96.575,96.575,0,0,0,4.451,10.657,19.652,19.652,0,0,0,8.4,8.774c1.752.99,3.482,2.02,5.209,3.052a18.136,18.136,0,0,0,5.282,2.278,2.337,2.337,0,0,1,1.741,1.422,18.288,18.288,0,0,0,5.086,6.282c1.737,1.474,3.513,2.9,5.3,4.318a32.881,32.881,0,0,1,9.168,11.36c1.082,2.2,2.231,4.369,3.3,6.577a41.468,41.468,0,0,1,3.007,8.394,2.231,2.231,0,0,1-.063,1.572Z" transform="translate(83 245.078)" fill="#bf9460"/>
    <path id="Path_221" data-name="Path 221" d="M-59.622,2093.65a48.073,48.073,0,0,0,26.26,30.122c7.351,3.269,15.4,4.614,23,7.258,24.544,8.542,42.7,30.251,52.98,54.117s13.769,50.015,17.151,75.781" transform="translate(570.525 42.171) rotate(15.009)" fill="none" stroke="#1d5902" stroke-width="2"/>
  </g>
</svg>
