<svg xmlns="http://www.w3.org/2000/svg" width="150" height="150.004" viewBox="0 0 150 150.004">
  <g id="footer-logo" transform="translate(-394.461 -2576.956)">
    <circle id="Ellipse_16" data-name="Ellipse 16" cx="75" cy="75" r="75" transform="translate(394.461 2576.956)" fill="#fff"/>
    <g id="Group_116" data-name="Group 116" transform="translate(394.46 2576.956)">
      <path id="Path_397" data-name="Path 397" d="M469.461,2726.96a75,75,0,1,1,75-75,75,75,0,0,1-75,75m0-148.168a73.163,73.163,0,1,0,73.161,73.163,73.164,73.164,0,0,0-73.161-73.163" transform="translate(-394.46 -2576.956)" fill="#053a7a"/>
      <path id="Path_398" data-name="Path 398" d="M407.9,2620.71a.475.475,0,0,1-.465-.365h-.97a.328.328,0,1,1-.354.538.316.316,0,0,1-.1-.223l-.313-.115a.273.273,0,0,0-.025.042l.807.81a.376.376,0,1,1-.1.632.391.391,0,0,1-.065-.464l-.814-.814a.532.532,0,0,1-.218.087v1.562a.482.482,0,1,1-.238,0v-1.562a.61.61,0,0,1-.234-.1l-.807.813a.4.4,0,0,1-.07.461.406.406,0,0,1-.558,0,.4.4,0,0,1-.115-.283.39.39,0,0,1,.115-.276.4.4,0,0,1,.46-.073l.81-.815-.013-.015-.3.11a.311.311,0,0,1-.089.223.341.341,0,0,1-.461,0,.331.331,0,0,1,0-.465.445.445,0,0,1,.1-.073h-.974a.474.474,0,0,1-.461.365.481.481,0,1,1,0-.962.468.468,0,0,1,.461.362h1.644a.656.656,0,0,1,.1-.238l-.809-.814a.388.388,0,0,1-.457-.07.394.394,0,0,1,0-.559.4.4,0,0,1,.555,0,.389.389,0,0,1,.07.461l.811.818a.591.591,0,0,1,.217-.091v-1.652a.48.48,0,1,1,.238,0v1.652a.6.6,0,0,1,.234.1l.809-.809a.391.391,0,1,1,.169.168l-.814.813a.619.619,0,0,1,.091.223h1.656a.477.477,0,1,1,.465.6m2.922-1.1a2.331,2.331,0,0,0-3.349-2.134,1.933,1.933,0,0,0,.028-.263,2.351,2.351,0,1,0-4.7,0,.964.964,0,0,0,.012.11,4.164,4.164,0,1,0,2.294,6.909,9.4,9.4,0,0,0,5.718-4.624" transform="translate(-392.966 -2565.788)" fill="#307e39"/>
      <g id="Group_110" data-name="Group 110" transform="translate(13.274 5.355)">
        <path id="Path_399" data-name="Path 399" d="M503.683,2620.71a.475.475,0,0,1-.461-.365h-.97a.344.344,0,0,1,.107.074.34.34,0,0,1,0,.459.332.332,0,0,1-.461.005.355.355,0,0,1-.094-.223l-.312-.115a.153.153,0,0,0-.025.042l.805.81a.4.4,0,1,1-.164.168l-.814-.814a.527.527,0,0,1-.217.087v1.562a.48.48,0,1,1-.238,0v-1.562a.61.61,0,0,1-.234-.1l-.8.813a.394.394,0,0,1-.07.461.408.408,0,0,1-.559,0,.4.4,0,0,1-.115-.283.39.39,0,0,1,.115-.276.4.4,0,0,1,.46-.073l.81-.815-.013-.015-.3.11a.355.355,0,0,1-.1.223.336.336,0,0,1-.457,0,.324.324,0,0,1,0-.465.364.364,0,0,1,.1-.074h-.971a.48.48,0,1,1,0-.235h1.644a.543.543,0,0,1,.1-.238l-.809-.814a.385.385,0,0,1-.456-.07.394.394,0,1,1,.554-.559.389.389,0,0,1,.07.461l.811.818a.6.6,0,0,1,.217-.091v-1.652a.48.48,0,1,1,.238,0v1.652a.6.6,0,0,1,.234.1l.809-.809a.391.391,0,1,1,.169.168l-.811.813a.613.613,0,0,1,.087.223h1.656a.472.472,0,0,1,.461-.362.481.481,0,0,1,0,.962m2.926-1.1a2.331,2.331,0,0,0-3.35-2.134,1.942,1.942,0,0,0,.029-.263,2.351,2.351,0,1,0-4.7,0c0,.04.012.073.012.11a4.24,4.24,0,0,0,.255,8.127,2.322,2.322,0,0,1,4.115.058,24.248,24.248,0,0,1,3.642-5.9" transform="translate(-378.007 -2571.143)" fill="#2a7d3a"/>
        <path id="Path_400" data-name="Path 400" d="M404.909,2612.77a2.86,2.86,0,0,1,.391-.531.157.157,0,0,1,.061-.042c.136-.316.272-.637.4-.97a2.811,2.811,0,0,0-.431-.14,1.148,1.148,0,0,0-.342.013.378.378,0,0,1-.214.008c-.074-.042-.085-.115-.028-.218a1.322,1.322,0,0,1,.395-.448c.217-.2.361-.276.436-.234.04.021.085.045.135.074a1.687,1.687,0,0,0,.329.217c.066-.185.136-.374.2-.563-.1-.061-.181-.11-.247-.143a2.284,2.284,0,0,0-.588-.214.54.54,0,0,1-.161-.049c-.049-.028-.049-.094.009-.2a1.588,1.588,0,0,1,.448-.523c.263-.235.44-.329.539-.274l.041.1a1.391,1.391,0,0,0,.259.255c.008,0,.016.007.028.016q.1-.344.21-.719a2.152,2.152,0,0,1,.662-.556c.473-.287.76-.4.871-.341a.153.153,0,0,1,.057.119,1.923,1.923,0,0,0,.264.678,4.611,4.611,0,0,1,.592.792,1.059,1.059,0,0,1,.23.552,1.484,1.484,0,0,1-.05.246.2.2,0,0,1,.07-.036c.2-.107.342-.136.423-.091a.8.8,0,0,1,.194.144.262.262,0,0,1,.065.2c-.229.667-.488,1.349-.772,2.043-.206.493-.37.856-.493,1.081-.041.077-.083.144-.124.206.412.316.773.62,1.09.909.25-.625.46-1.185.637-1.686q.326-.864.6-1.8a2.489,2.489,0,0,1,.164-.4.97.97,0,0,1,.394-.354.48.48,0,0,1,.486-.008c.151.087.21.165.168.242-.085.153-.168.308-.255.465.091-.045.2-.1.317-.172q.536-.209.654-.149c.032.017.032.07.008.165q-.085.45-.284,1.308c.23-.119.452-.242.662-.367a13.492,13.492,0,0,0,2.487-2.01l.127.07c.038.021.021.106-.045.259a15.524,15.524,0,0,1-.866,1.92.9.9,0,0,1-.289.365,15.564,15.564,0,0,1-2.771.76,5.621,5.621,0,0,0-.8.23,3.508,3.508,0,0,0-.35.168c-.057.149-.114.3-.168.465.157-.1.28-.131.37-.082a.7.7,0,0,1,.107.119,10.347,10.347,0,0,0,1.151.818c.057-.531.115-.982.172-1.357a.691.691,0,0,1,.057-.242c.013-.026.058-.017.136.025a.747.747,0,0,1,.161.189,15.379,15.379,0,0,0,.382,2.416.19.19,0,0,1,0,.125.571.571,0,0,1-.44.28c-.234.02-.353.028-.361.024a.4.4,0,0,0-.218-.07,1.11,1.11,0,0,0-.234-.552,9.176,9.176,0,0,0-1.312-.794.508.508,0,0,0-.308-.07,1.027,1.027,0,0,1-.14.07c.115.124.217.243.312.359a5.586,5.586,0,0,1,.826,1.52,5.134,5.134,0,0,1,.219,1.62.423.423,0,0,1-.058.194l-.038-.021a5.855,5.855,0,0,0-.488-1.213,6.606,6.606,0,0,0-1.259-1.669,7.938,7.938,0,0,0-1.529-1.1.7.7,0,0,0-.444-.119.4.4,0,0,1-.221,0c-.111-.057-.144-.127-.1-.2a3.421,3.421,0,0,1,.473-.621c.4-.813.69-1.475.875-1.977a9.117,9.117,0,0,0,.321-1.175.571.571,0,0,1,.061-.2.16.16,0,0,1-.061,0c-.033,0-.067,0-.1.008a14.378,14.378,0,0,0-.777,1.76,11.3,11.3,0,0,1-.427,1.114.07.07,0,0,1-.025.024.242.242,0,0,1-.013.2.437.437,0,0,1-.337.206.522.522,0,0,1-.312-.013,3.107,3.107,0,0,1-.983-.23,2.228,2.228,0,0,0-.715-.094.649.649,0,0,0-.408.111c-.136-.074-.18-.147-.14-.221m2.487-.289c.058-.131.123-.287.2-.463-.155-.066-.3-.132-.427-.2-.015.033-.032.058-.041.079a.525.525,0,0,1-.284.242.367.367,0,0,1-.284-.009.087.087,0,0,1-.04-.123c.049-.136.1-.271.159-.406-.135-.053-.259-.1-.378-.144-.1.235-.189.448-.271.633Zm-.321-2.034c-.114-.073-.221-.14-.312-.2-.07.183-.136.365-.2.537.106.05.221.1.344.165.062-.176.115-.341.164-.5m1.176-.153c.034-.119.066-.229.094-.333a1.143,1.143,0,0,1,.1-.267.493.493,0,0,1,.085-.115,3.139,3.139,0,0,0-.465-.55,2.24,2.24,0,0,0-.431-.325c-.176-.094-.3-.083-.37.045-.065.2-.127.407-.193.6.091.079.185.153.28.23.2-.346.423-.448.671-.312.065.032.078.1.04.193-.061.189-.123.371-.18.535q.178.15.369.3m-.41,1.09.008-.017c.049-.123.1-.238.132-.354-.132-.077-.259-.16-.386-.246-.045.115-.091.229-.14.344a.21.21,0,0,1-.034.083c.144.061.28.123.42.189m2.072-.387q.377-.683.864-.418c.053.024.062.089.032.189q-.27.831-.579,1.558c-.161.391-.268.641-.325.748a.79.79,0,0,1-.353.329.491.491,0,0,1-.363-.024c-.036-.021-.045-.059-.025-.112.264-.7.478-1.368.654-2a1.2,1.2,0,0,1,.094-.267m1.312,1.389a1.894,1.894,0,0,1,.221-.091c.363-.132.7-.276,1.016-.423-.041-.123-.083-.234-.124-.342a2.683,2.683,0,0,0-.32-.571.615.615,0,0,1-.111-.073c-.255.514-.486,1.011-.682,1.5" transform="translate(-404.712 -2573.376)" fill="#2a7d3a"/>
        <path id="Path_401" data-name="Path 401" d="M409.82,2604.68a1.992,1.992,0,0,1,.246-.238,2.39,2.39,0,0,1,.641-.361.494.494,0,0,1,.453.11.416.416,0,0,1,.127.3.6.6,0,0,1-.119.321.276.276,0,0,1-.21.082,4.549,4.549,0,0,1-1.04-.094.254.254,0,0,1-.119-.024.094.094,0,0,1,.021-.094m.386-1.644a1.843,1.843,0,0,1,.571-.465c.293-.189.482-.254.559-.193.021.021.049.042.083.07a6.024,6.024,0,0,0,.953.933c.087-.144.168-.28.243-.4a12.541,12.541,0,0,0-1.279-1.242.9.9,0,0,0-.274-.094.351.351,0,0,1-.153-.053.147.147,0,0,1-.017-.234,1.673,1.673,0,0,1,.559-.457c.3-.2.489-.263.576-.193a.677.677,0,0,0,.074.1,7.38,7.38,0,0,0,.983,1.365c.291-.493.522-.887.69-1.187a8.544,8.544,0,0,1,.625-.937,2.372,2.372,0,0,1,.571-.325c.37-.112.6-.123.715-.038q.34.272.013.678a3.482,3.482,0,0,1-.3.3,3.522,3.522,0,0,0-.37.387q-.494.61-.949,1.216a.19.19,0,0,1,.193.021c.013.009.021.049.028.119a3.21,3.21,0,0,0,.013.329c.017.1.028.2.041.317.032-.079.065-.153.1-.23a1.467,1.467,0,0,1,.2-.337.848.848,0,0,1,.456-.276.48.48,0,0,1,.48.078c.136.111.177.2.124.268-.432.539-.818,1.068-1.16,1.594a.637.637,0,0,1,.251-.05.452.452,0,0,1,.144.2c.049-.095.094-.181.144-.263a2.055,2.055,0,0,1,.189-.325c.329-.412.646-.5.937-.263.058.045.049.123-.021.235-.234.406-.469.788-.7,1.151.075.057.145.115.21.172.234-.4.416-.7.543-.934a5.78,5.78,0,0,1,.429-.637,2.291,2.291,0,0,1,.5-.276c.312-.11.518-.127.616-.053.2.161.206.353.021.58a3.1,3.1,0,0,1-.263.259,3.156,3.156,0,0,0-.317.321c-.221.274-.435.546-.637.813l.045-.008a8.724,8.724,0,0,0,1.735-.334,9.817,9.817,0,0,0,2.277-1.114l.1.083c.034.029.013.1-.061.214a13.618,13.618,0,0,1-1.024,1.48.615.615,0,0,1-.246.221,14.917,14.917,0,0,1-2.347-.032,4.322,4.322,0,0,0-.641.015q.843.691,1.639,1.361c.284.231.423.416.419.56a.517.517,0,0,1-.061.455c-.062.079-.21.107-.436.094a1.54,1.54,0,0,1-.736-.369,1.281,1.281,0,0,1-.2-.243,1.976,1.976,0,0,0-.28-.365c-.168-.153-.337-.308-.518-.469.021.218.037.456.058.715a6.793,6.793,0,0,1-.115,1.389,7.037,7.037,0,0,1-.329,1.1,4.238,4.238,0,0,1-.251.523l-.057.069a7.131,7.131,0,0,0,.082-1.18,9.12,9.12,0,0,0-.041-1.647,5.418,5.418,0,0,0-.148-.834l-.2.344c-.119.23-.255.527-.408.884-.032.057-.044.091-.036.1-.053.07-.23.119-.531.156a1.241,1.241,0,0,1-.5-.045c-.041-.028-.041-.07-.009-.115.087-.128.189-.279.308-.465.448-.719.835-1.34,1.16-1.858-.079-.066-.161-.127-.238-.193-.272.435-.457.707-.552.826a.708.708,0,0,1-.414.255.457.457,0,0,1-.342-.078.09.09,0,0,1-.013-.125c.285-.444.548-.871.79-1.291a.744.744,0,0,0-.366-.14.684.684,0,0,1-.078-.02c-.136.25-.276.522-.414.809a1.224,1.224,0,0,1-.128.259.683.683,0,0,1-.444.189.565.565,0,0,1-.407-.032.041.041,0,0,1,0-.062c.407-.67.747-1.258,1.023-1.775q.172-.321.346-.654a2.345,2.345,0,0,0-.247-.354.873.873,0,0,0-.168-.189.394.394,0,0,0-.168-.054,1.721,1.721,0,0,0-.119.17c-.234.323-.461.677-.682,1.056a1.613,1.613,0,0,1,.267-.107.488.488,0,0,1,.391.136.363.363,0,0,1,.123.28.578.578,0,0,1-.106.344c-.03.033-.091.041-.185.021a3.187,3.187,0,0,1-.786-.172q-.133.24-.25.469a13.37,13.37,0,0,0-.593,1.365c-.057.095-.082.148-.07.157-.061.078-.271.135-.616.172a1.734,1.734,0,0,1-.579-.074.08.08,0,0,1-.037-.059.079.079,0,0,1,.023-.065c.128-.184.28-.4.444-.656.465-.748.875-1.427,1.242-2.031a11.446,11.446,0,0,0-1.3-.818.826.826,0,0,0-.234-.036.269.269,0,0,1-.14-.017.149.149,0,0,1-.07-.114.151.151,0,0,1,.049-.125m2.208-2.971a1.389,1.389,0,0,1,.6-.28c.317-.091.527-.1.633-.009.058.045.066.128.021.238-.07.206-.144.444-.217.72a3.317,3.317,0,0,1-.255.854c-.017.025-.036.028-.053.013a.092.092,0,0,1-.041-.087,3.112,3.112,0,0,0-.246-.661,3.406,3.406,0,0,0-.4-.654c-.045-.066-.062-.111-.045-.136" transform="translate(-403.215 -2575.631)" fill="#2a7d3a"/>
        <path id="Path_402" data-name="Path 402" d="M418.162,2596.28a1.213,1.213,0,0,1,.333-.163c.242-.017.4.012.473.094a.709.709,0,0,1,.136.226.3.3,0,0,1-.013.248c-.21.287-.427.574-.645.862.017-.011.028-.024.041-.032a2.337,2.337,0,0,1,.682-.427c.238-.111.39-.132.46-.053a.464.464,0,0,1,.041.2c0,.206.013.365.021.486a5.836,5.836,0,0,1,0,.932c.132-.14.259-.287.387-.435a3.349,3.349,0,0,1,.246-.247.569.569,0,0,1,.856.119c.053.062-.038.2-.276.416a14.112,14.112,0,0,0-1.291,1.431c-.366.448-.814,1.043-1.336,1.792l-.127.168a1.459,1.459,0,0,1-.539.111,1.036,1.036,0,0,1-.748-.259c-.017-.025,0-.053.038-.091.316-.288.637-.6.957-.925.357-.378.839-.917,1.435-1.612a7.7,7.7,0,0,0-.344-.826,2.084,2.084,0,0,0-.243-.4,1.129,1.129,0,0,0-.369-.155c-.013-.017-.013-.042,0-.079q-.216.283-.469.555a6.062,6.062,0,0,1-.7.773c-.341.3-.645.4-.9.3a.691.691,0,0,1-.338-.14c-.036-.037-.028-.073.013-.111a16.8,16.8,0,0,0,1.476-1.62,6.486,6.486,0,0,0,.607-.955.448.448,0,0,1,.132-.183m-2.059-.108a2.311,2.311,0,0,1,.658-.374,1.487,1.487,0,0,1,.616-.152.49.49,0,0,1,.32.168c.23.263.194.526-.115.794-.106.1-.353.086-.735-.033a1.985,1.985,0,0,1-.752-.283.079.079,0,0,1-.023-.062.079.079,0,0,1,.031-.057m.932,3.181a1.9,1.9,0,0,1,.284-.189,2.186,2.186,0,0,1,.675-.267.471.471,0,0,1,.412.172.5.5,0,0,1,.085.416.749.749,0,0,1-.234.407.2.2,0,0,1-.2.017,4.364,4.364,0,0,1-.93-.386.177.177,0,0,1-.1-.054.087.087,0,0,1,.012-.115m1.4,2.532a3.207,3.207,0,0,1,.55-.366c.025-.012.049-.024.07-.032.243-.288.514-.637.818-1.047a8.3,8.3,0,0,0,.552-.839.337.337,0,0,1,.082-.119,1.661,1.661,0,0,1,.6-.206c.435-.087.69-.087.76,0a.287.287,0,0,1,.062.234,4.174,4.174,0,0,0,.168,1.053.271.271,0,0,1,.115.015,1.126,1.126,0,0,1,.51.2.087.087,0,0,1-.038.09,14.459,14.459,0,0,0-1.3,1.3c-.2.227-.348.4-.46.514.157.221.168.391.037.5a.437.437,0,0,1-.383.075.491.491,0,0,1-.3-.12,4.019,4.019,0,0,1-.814-.588,2.614,2.614,0,0,0-.592-.348.69.69,0,0,0-.4-.079c-.091-.106-.1-.185-.042-.242m2.015-8.538a2.962,2.962,0,0,1,.711-.329c.48-.095.769-.095.854,0a.243.243,0,0,1,.013.28,9.945,9.945,0,0,0-.091,2.243.45.45,0,0,0,.049.157c.021.021.058.025.111.008a3.582,3.582,0,0,1,1.582-.189,1.71,1.71,0,0,1,.633.243,2.84,2.84,0,0,1,.514.476,2.135,2.135,0,0,1,.329.522,1.2,1.2,0,0,1,.045.6.621.621,0,0,1-.172.366.286.286,0,0,1-.227.053c-.658.009-1.246.03-1.756.062-.066.012-.106.012-.115,0-.025-.029-.025-.053,0-.07a5.325,5.325,0,0,0,.868-.531c.157-.131.172-.263.057-.394a2.247,2.247,0,0,0-.949-.56,3.342,3.342,0,0,0-1.192-.094.2.2,0,0,1-.18-.09.224.224,0,0,1-.051-.087c-.123-.571-.25-1.051-.373-1.434a1.4,1.4,0,0,0-.21-.394c-.041-.042-.091-.038-.157.019a.461.461,0,0,0-.087.119,5.692,5.692,0,0,1-.386.568.041.041,0,0,0,.008.025,1.585,1.585,0,0,0,.423.7q2.375,2.718,3,3.556a8.549,8.549,0,0,1,1,1.475q.272.642.136.765t-.65-.357q-.227-.119-4.538-5.048a1.818,1.818,0,0,0-.847-.588c-.032-.038-.021-.082.041-.136a3.4,3.4,0,0,1,.6-.424c.136-.057.247-.1.333-.131a2.533,2.533,0,0,0,.259-.383,2.794,2.794,0,0,0,.309-.8.309.309,0,0,1,.1-.193m-.032,8.9c.131-.144.284-.312.452-.509.193-.218.357-.416.493-.588a6.252,6.252,0,0,0-.333-.547,1.709,1.709,0,0,0-.177-.251.159.159,0,0,0-.255-.025,5.242,5.242,0,0,0-.464.554,6.789,6.789,0,0,0-.482.708Z" transform="translate(-401.412 -2577.595)" fill="#2a7d3a"/>
        <path id="Path_403" data-name="Path 403" d="M423.123,2591.49a3.061,3.061,0,0,1,.6-.264.452.452,0,0,1,.075,0q.411-.3.838-.633a2.884,2.884,0,0,0-.3-.337,1.031,1.031,0,0,0-.3-.16.416.416,0,0,1-.189-.1c-.041-.073-.016-.14.083-.2a1.4,1.4,0,0,1,.571-.193c.284-.062.448-.053.493.02.025.036.049.082.083.131a1.4,1.4,0,0,0,.172.354c.152-.127.3-.253.452-.389-.053-.1-.1-.185-.136-.247a2.415,2.415,0,0,0-.407-.48.754.754,0,0,1-.111-.123c-.028-.05.005-.1.1-.164a1.58,1.58,0,0,1,.649-.227c.35-.074.552-.062.6.028l-.008.112a1.171,1.171,0,0,0,.1.349l.015.025c.173-.16.353-.333.539-.514a2.3,2.3,0,0,1,.856-.148c.55-.009.858.036.921.144.021.029.016.074-.009.131a2,2,0,0,0-.115.716,4.53,4.53,0,0,1,.115.987,1.008,1.008,0,0,1-.078.592,1.456,1.456,0,0,1-.164.189.191.191,0,0,1,.078,0c.227.009.363.053.412.132a.884.884,0,0,1,.1.221.279.279,0,0,1-.041.206c-.535.455-1.1.917-1.7,1.377a11.459,11.459,0,0,1-.971.686,1.934,1.934,0,0,1-.208.115c.2.485.357.925.484,1.331q.8-.616,1.4-1.134c.477-.391.949-.8,1.426-1.254a2.51,2.51,0,0,1,.342-.259.921.921,0,0,1,.518-.108.475.475,0,0,1,.423.238c.091.149.1.248.025.293-.151.091-.3.18-.461.274.107,0,.227.01.366.01.378.057.592.123.637.2.021.033,0,.083-.074.149-.2.235-.5.563-.9.99.264.012.514.015.761.012a13.434,13.434,0,0,0,3.161-.484l.074.123c.021.038-.036.1-.168.2a15.47,15.47,0,0,1-1.714,1.226.985.985,0,0,1-.431.173,15.641,15.641,0,0,1-2.779-.74,5.532,5.532,0,0,0-.81-.2,2.918,2.918,0,0,0-.386-.032c-.128.1-.251.206-.378.316.185-.008.3.025.357.115a.572.572,0,0,1,.032.157,11.5,11.5,0,0,0,.584,1.287c.317-.429.6-.79.831-1.086a.9.9,0,0,1,.172-.18c.025-.013.062.016.106.091a.609.609,0,0,1,.042.242,15.272,15.272,0,0,0-.883,2.281.167.167,0,0,1-.062.1.574.574,0,0,1-.522.025c-.214-.1-.321-.155-.325-.159a.412.412,0,0,0-.157-.173,1.162,1.162,0,0,0,.079-.592,9.454,9.454,0,0,0-.741-1.348.484.484,0,0,0-.23-.214.673.673,0,0,1-.155-.009c.036.164.07.317.091.465a5.478,5.478,0,0,1-.051,1.734,5.2,5.2,0,0,1-.624,1.509.4.4,0,0,1-.148.136l-.021-.037a5.552,5.552,0,0,0,.185-1.295,6.516,6.516,0,0,0-.247-2.072,7.751,7.751,0,0,0-.773-1.718.673.673,0,0,0-.32-.329.4.4,0,0,1-.194-.111c-.065-.1-.061-.182.013-.227a4.063,4.063,0,0,1,.724-.3c.756-.506,1.335-.93,1.751-1.27a8.5,8.5,0,0,0,.867-.856.64.64,0,0,1,.157-.144.107.107,0,0,1-.058-.029.747.747,0,0,0-.089-.046,15.832,15.832,0,0,0-1.559,1.127,10.42,10.42,0,0,1-.928.752c-.013.007-.025.012-.034.007a.234.234,0,0,1-.115.17.408.408,0,0,1-.386.008.491.491,0,0,1-.267-.168,3.087,3.087,0,0,1-.737-.69,2.084,2.084,0,0,0-.571-.441.645.645,0,0,0-.407-.111c-.079-.131-.083-.218-.009-.263m2.294,1c.119-.087.25-.189.4-.3q-.148-.2-.272-.383a.728.728,0,0,1-.074.045.509.509,0,0,1-.365.066.361.361,0,0,1-.238-.144.094.094,0,0,1-.016-.072.092.092,0,0,1,.041-.061c.11-.09.225-.18.341-.271a3.269,3.269,0,0,0-.255-.312c-.2.152-.386.288-.55.407Zm.748-1.924c-.066-.119-.124-.231-.173-.325-.151.123-.3.246-.439.366.065.1.14.2.217.316.14-.12.271-.239.395-.358m.184,1.2.021-.017c.1-.078.2-.157.289-.234-.075-.136-.14-.271-.21-.407-.094.074-.194.151-.293.225a.317.317,0,0,1-.07.054c.091.123.181.25.263.378m1.99.7c.448-.268.765-.247.958.07.029.053,0,.11-.07.18-.432.391-.86.741-1.283,1.056-.333.259-.55.42-.658.485a.776.776,0,0,1-.469.108.475.475,0,0,1-.3-.2c-.025-.037-.013-.074.032-.111.58-.477,1.1-.941,1.571-1.4a1.479,1.479,0,0,1,.217-.185m-1.085-1.438c.091-.091.172-.17.251-.243a1.218,1.218,0,0,1,.217-.18.37.37,0,0,1,.131-.053,3.171,3.171,0,0,0-.123-.715,2.027,2.027,0,0,0-.21-.493c-.106-.174-.217-.227-.344-.148-.157.144-.313.284-.469.418.04.111.085.227.131.342.346-.2.592-.177.737.066.036.061.016.123-.066.189-.149.131-.289.255-.42.369.053.149.106.3.164.449m1.521,3.3c.07.008.151.021.238.036.378.066.739.115,1.089.145q.037-.193.062-.359a2.558,2.558,0,0,0,.012-.654.772.772,0,0,1-.057-.118q-.722.475-1.344.95" transform="translate(-399.302 -2578.963)" fill="#2a7d3a"/>
        <path id="Path_404" data-name="Path 404" d="M433.569,2587.76a1.137,1.137,0,0,1,.4-.025c.25.066.395.153.435.263a.7.7,0,0,1,.054.259.314.314,0,0,1-.1.227c-.221.2-.439.386-.658.563q.113.32.223.616l.029.07a2.167,2.167,0,0,1,.756.058.7.7,0,0,1,.359.424.373.373,0,0,1-.034.3.61.61,0,0,1-.271.229.256.256,0,0,1-.23-.05,1.755,1.755,0,0,1-.284-.2l1.142,2.988a.847.847,0,0,1-.029.592c0,.235-.078.382-.23.44s-.35-.021-.567-.239a1.3,1.3,0,0,1-.39-.563c-.087-.51-.2-1.036-.338-1.584a9.516,9.516,0,0,0-.464-1.6,9.24,9.24,0,0,1-.227,1.02,4.588,4.588,0,0,1-.58,1.352,4.06,4.06,0,0,1-.851.966l-.028-.082a6.5,6.5,0,0,0,.259-.6,8.54,8.54,0,0,0,.395-1.4,9.581,9.581,0,0,0,.229-1.928,3.212,3.212,0,0,1-.546.3.952.952,0,0,1-1.015-.058.784.784,0,0,1-.284-.288c-.009-.024.012-.049.066-.07a10.364,10.364,0,0,0,1.809-1.052c.021-.016.036-.032.053-.045a14.351,14.351,0,0,0-.884-2,2.833,2.833,0,0,0-.592-.634c-.028-.078,0-.127.079-.161a2.2,2.2,0,0,1,.981-.119c.346.017.548.1.6.247a.6.6,0,0,1,.032.267c.157.612.321,1.189.486,1.722a.281.281,0,0,0,.041-.074.342.342,0,0,1,.168-.144m4.653-1.83a1.54,1.54,0,0,1,.744-.065c.369.09.592.226.662.411a.368.368,0,0,1-.045.251.358.358,0,0,1-.21.217c-.5.193-.954.382-1.365.571.609,1.583,1.183,2.931,1.735,4.041a1.98,1.98,0,0,1,.065,1.151c-.085.313-.189.493-.3.535a.428.428,0,0,1-.5-.078,5.87,5.87,0,0,0-1.644-.65.157.157,0,0,1,.1-.227,5.178,5.178,0,0,0,.86-.189c.07-.024.087-.11.053-.262a9.863,9.863,0,0,0-.394-1.361c-.268-.818-.563-1.656-.888-2.527-.091.049-.177.1-.259.143a8.726,8.726,0,0,0-1.414,1,.187.187,0,0,1-.091.059c-.1.036-.276-.017-.539-.157-.223-.115-.35-.209-.378-.287-.021-.053,0-.091.061-.116q.581-.371.958-.6c.247-.14.552-.324.9-.554.159-.108.312-.21.456-.3-.214-.531-.412-.99-.6-1.378a3.244,3.244,0,0,0-.69-1.015.258.258,0,0,1-.082-.094c-.041-.1.019-.185.184-.246a2.927,2.927,0,0,1,1.111-.145c.369-.029.583.042.645.2a.235.235,0,0,1-.012.147,3.516,3.516,0,0,0,.127,1.279c.057.2.115.4.181.584a2.02,2.02,0,0,1,.567-.334m-2.738,3.425a1.272,1.272,0,0,1,.387-.078,2.3,2.3,0,0,1,.9.053.692.692,0,0,1,.416.444.462.462,0,0,1-.062.386.746.746,0,0,1-.337.28.294.294,0,0,1-.268-.061,6.267,6.267,0,0,1-.974-.815.274.274,0,0,1-.111-.1c0-.058.013-.094.053-.111" transform="translate(-397.046 -2580.222)" fill="#2a7d3a"/>
        <path id="Path_405" data-name="Path 405" d="M441.771,2583.17a2.979,2.979,0,0,1,.688.1,2.238,2.238,0,0,1,.394.156.192.192,0,0,1-.025-.061c-.021-.115.168-.21.567-.288a.493.493,0,0,1,.264.04,3.841,3.841,0,0,0,.1-.4,4.946,4.946,0,0,0,.111-.694c-.021-.123-.025-.185,0-.189a1.141,1.141,0,0,1,.492.151c.28.153.429.268.44.346a.148.148,0,0,1-.07.148,9.714,9.714,0,0,1-.851.761.343.343,0,0,0,.029.028c.3.23.588.448.875.649.153-.242.28-.464.383-.669a3.123,3.123,0,0,0,.341-.93c-.012-.135.005-.208.049-.218a1.373,1.373,0,0,1,.584.165c.346.185.527.321.543.406s-.028.14-.127.21c-.338.28-.867.667-1.6,1.16.259.176.5.35.752.509a7.149,7.149,0,0,0,1.213.6,10.971,10.971,0,0,0,2.079.4.249.249,0,0,1,.127.209c.013.07-.049.119-.184.144a14.131,14.131,0,0,1-1.7.423,1.99,1.99,0,0,1-.739.053,9.293,9.293,0,0,1-1-.8.177.177,0,0,1-.045.054.626.626,0,0,0-.217.32.667.667,0,0,0-.012.268,1.071,1.071,0,0,0,.089.3c.041.074.124.1.247.074a.428.428,0,0,0,.176-.124.161.161,0,0,1,.091-.094.918.918,0,0,1,.412.066c.193.091.3.2.325.318.012.049-.045.14-.17.274a1.5,1.5,0,0,1-.649.289,1.324,1.324,0,0,1-.86-.021.645.645,0,0,1-.308-.342,2.545,2.545,0,0,1-.16-.547.689.689,0,0,1-.008-.151.476.476,0,0,0-.005-.145c-.019-.119-.078-.172-.159-.156a.6.6,0,0,1-.247.168,8.455,8.455,0,0,1,.111.875,1.967,1.967,0,0,1-.062.654,1.442,1.442,0,0,1-.4.563.8.8,0,0,1-.267.161,1.952,1.952,0,0,0,.057-.329,3.9,3.9,0,0,0,.025-.58,7.787,7.787,0,0,0-.161-1.114,1.081,1.081,0,0,0-.119-.342.387.387,0,0,0-.21-.18.214.214,0,0,1-.04-.025c-.009-.058.057-.1.21-.132a1.978,1.978,0,0,1,.7,0,.436.436,0,0,0,.124-.091,1.331,1.331,0,0,0,.267-.291.067.067,0,0,1,.057-.046,2.731,2.731,0,0,1,.629.046,1.722,1.722,0,0,1,.37.073c-.083-.077-.157-.153-.223-.222a16.6,16.6,0,0,0-1.253-1.18,1.464,1.464,0,0,0-.629-.333.7.7,0,0,1-.14-.029l.005.01c.008.051-.03.119-.115.21a2.148,2.148,0,0,0-.408.707q-.381.969-.722,1.665a.685.685,0,0,0,.2-.206c.058-.078.1-.119.14-.123a1.676,1.676,0,0,1,.539.083c.325.119.493.213.51.292a.189.189,0,0,1-.021.128,2.043,2.043,0,0,0-.3.62,2.7,2.7,0,0,0-.057.444.785.785,0,0,1,.225.312.046.046,0,0,1-.036.049,3.465,3.465,0,0,0-.822.268,2.545,2.545,0,0,1-.42.179h-.021a1.14,1.14,0,0,0-.045.284.642.642,0,0,0-.025.172c0,.029.049.032.136.017.017,0,.176-.079.489-.226a2.1,2.1,0,0,1,.558.038c.334.115.51.225.531.333a1.417,1.417,0,0,0-.21.7,3.988,3.988,0,0,1-.132,1.928c-.225.312-.4.476-.526.5-.074.013-.152-.032-.221-.136a3.156,3.156,0,0,0-.773-.694.275.275,0,0,1-.119-.153c-.013-.053,0-.078.028-.081a2.759,2.759,0,0,0,.535.015c.246-.045.39-.287.427-.722a2.959,2.959,0,0,0-.049-.765q-.062-.345-.234-.308a1,1,0,0,0-.423.156.826.826,0,0,0-.263.316.73.73,0,0,1-.206.317.766.766,0,0,1-.223.1.288.288,0,0,1-.287-.1,1.094,1.094,0,0,1-.157-.357.387.387,0,0,1,.058-.165c.062-.032.106-.123.136-.271a1.689,1.689,0,0,0,.168-.688,1.269,1.269,0,0,0,0-.493.325.325,0,0,0-.111-.18l-.028-.03a5.583,5.583,0,0,1-.843.807,2.869,2.869,0,0,1-.794.539c-.028,0-.045,0-.049-.025a19.157,19.157,0,0,0,1.644-2.406c.062-.131.132-.267.2-.4a.288.288,0,0,1-.11.042.293.293,0,0,1-.24-.087,3.392,3.392,0,0,1-.772-.682c-.054-.041-.079-.073-.083-.094a.041.041,0,0,1,.032-.053,1.741,1.741,0,0,1,.338-.021,2.751,2.751,0,0,1,.773.153.492.492,0,0,1,.242.288,10.36,10.36,0,0,0,.44-1.533l.036-.206c-.016-.094-.057-.143-.119-.156a7.559,7.559,0,0,1-.9.4.465.465,0,0,1-.263-.041.254.254,0,0,1-.181-.177.1.1,0,0,1,.07-.111,5.043,5.043,0,0,0,1.414-.781.6.6,0,0,1,.153-.049m-.875,4.464a2.729,2.729,0,0,1,.513.011c.149.009.264.021.338.032a1.546,1.546,0,0,0,.144-.069,1.577,1.577,0,0,0,.259-.14,2.868,2.868,0,0,0,.028-.79c-.012-.049-.057-.07-.144-.053a.343.343,0,0,0-.107.078.349.349,0,0,1-.168.1.363.363,0,0,1-.225-.07c-.079.128-.153.244-.223.342a4.782,4.782,0,0,1-.414.559m4.489.074a1.452,1.452,0,0,1,.662.147c.4.144.62.292.645.44a.1.1,0,0,1-.066.115,1.854,1.854,0,0,0-.39.518,5.591,5.591,0,0,1-.293.662c.238.053.461.106.662.164a1.786,1.786,0,0,1,.873.575,1.522,1.522,0,0,1,.217.433c.045.238-.034.373-.23.41-.316.062-.514.038-.592-.074a9.139,9.139,0,0,1-1.221-.654c-.066-.041-.128-.077-.189-.119a4.452,4.452,0,0,1-.867.8,2.535,2.535,0,0,1-1,.423c-.115.021-.176.01-.185-.045,0-.012.034-.038.107-.074a4.265,4.265,0,0,0,.715-.535,3.032,3.032,0,0,0,.707-.888,12.339,12.339,0,0,0-1.121-.537c-.087,0-.136-.026-.144-.062-.013-.058.028-.094.11-.111q.753.057,1.381.161a6.8,6.8,0,0,0,.168-.854c-.012-.087-.049-.125-.106-.112a7.247,7.247,0,0,1-1.081.382.7.7,0,0,1-.325-.036c-.144-.009-.223-.062-.243-.153a.087.087,0,0,1,.07-.115,7.784,7.784,0,0,0,1.739-.858" transform="translate(-394.578 -2580.874)" fill="#2a7d3a"/>
        <path id="Path_406" data-name="Path 406" d="M454.232,2581.09a2.2,2.2,0,0,1,.839.267q.684.382.69.58c0,.028-.032.053-.1.077a1.082,1.082,0,0,0-.4.231,1.3,1.3,0,0,0-.41.571.111.111,0,0,0-.021.032.977.977,0,0,1,.2.4.139.139,0,0,1-.132.091c-.247,0-.493.009-.741.024a.67.67,0,0,1,.145.066c.341.107.509.206.513.3-.015.045-.028.094-.045.152a2.321,2.321,0,0,0-.1.283h.062a.891.891,0,0,1,.5.181.493.493,0,0,1,.242.431c0,.17-.04.251-.131.255q-.476,0-.913.029c-.049.248-.1.527-.164.839.144-.036.284-.074.423-.1a4.276,4.276,0,0,1,.835-.107,1.454,1.454,0,0,1,.612.16c.259.186.394.357.394.518a.334.334,0,0,1-.085.185.3.3,0,0,1-.218.132c-.363,0-.7.011-1.032.019a4.01,4.01,0,0,1,.374.214c.238.174.361.325.361.457,0,.073-.07.131-.218.176a6.379,6.379,0,0,0-.867.276c-.23.091-.423.165-.576.227a6.817,6.817,0,0,0,.987.641,11.313,11.313,0,0,0,2.824.76.155.155,0,0,1,.045.119c0,.07-.1.12-.291.145-1.328.291-2.068.439-2.228.443a.488.488,0,0,1-.337-.119,11.226,11.226,0,0,1-1.493-1.323c-.673-.74-1.242-1.327-1.7-1.76l-.176.025c.131.086.2.168.2.247a1.736,1.736,0,0,1-.028.217c-.066.736-.1,1.423-.115,2.068q.653-.363,1.147-.616a.739.739,0,0,1,.229-.07c.03,0,.045.049.045.144a.6.6,0,0,1-.086.206,15.216,15.216,0,0,0-1.788,1.733.182.182,0,0,1-.111.066.562.562,0,0,1-.456-.246c-.132-.194-.2-.3-.2-.3a.435.435,0,0,0-.045-.226,1.6,1.6,0,0,0,.321-.666,18.574,18.574,0,0,0,.045-2.166.5.5,0,0,0-.034-.194c-.057.013-.119.03-.185.046a.363.363,0,0,1-.127.02c-.091,0-.227-.094-.407-.287a.5.5,0,0,0-.045-.066,8.86,8.86,0,0,1-.811,1.582,6.564,6.564,0,0,1-1.533,1.525.406.406,0,0,1-.227.058v-.034a7.757,7.757,0,0,0,.954-1.607,11.61,11.61,0,0,0,.994-3,16.041,16.041,0,0,0,.247-2.939.939.939,0,0,0-.111-.518.544.544,0,0,1-.111-.23c0-.144.041-.218.128-.218a4.3,4.3,0,0,1,.978.157,1.06,1.06,0,0,1,.276.061,13.7,13.7,0,0,0,1.476-.184,9.667,9.667,0,0,0,1.315-.37,1.242,1.242,0,0,1,.39-.083m-3.814,5.43c.448-.077.822-.135,1.126-.172.1-.008.214-.021.337-.038-.008-.32-.016-.6-.029-.851a.209.209,0,0,0-.053.013,1.359,1.359,0,0,1-.272.07.734.734,0,0,1-.435-.227c-.148-.136-.223-.246-.223-.333a.041.041,0,0,1,.012-.033.041.041,0,0,1,.033-.012q.476-.068.9-.148a4.325,4.325,0,0,0-.058-.555,1.726,1.726,0,0,0-.155-.259.328.328,0,0,1-.087-.172c0-.091.053-.132.172-.136a1.416,1.416,0,0,1,.588.127c.276.091.412.178.416.259v.14a2.505,2.505,0,0,0-.082.448c.069-.015.131-.029.184-.036.259-.053.523-.107.782-.168a3.533,3.533,0,0,0,.015-.514,1.124,1.124,0,0,0-.11-.3.516.516,0,0,1-.058-.172v-.034c-.39.038-.781.091-1.172.149q-.893.16-1.237.186a20.42,20.42,0,0,1-.489,2.474c-.038.1-.074.2-.107.3m.769-4.262a.213.213,0,0,0-.021.078q-.031.383-.074.752.482-.048,1.183-.184a11.083,11.083,0,0,0,1.653-.31.787.787,0,0,0,.053-.131.665.665,0,0,0,.082-.292c0-.234-.061-.349-.176-.349a12.094,12.094,0,0,0-1.488.222c-.535.1-.941.168-1.213.213m1.393,3.958c.079-.012.157-.025.238-.032.19-.037.37-.074.544-.1.045-.359.086-.67.123-.937-.2.024-.391.053-.588.091-.1.016-.2.036-.317.061v.92m.136.642c.407.3.79.588,1.147.858.061.054.119.1.176.153a2.1,2.1,0,0,0,.387-.408,2.674,2.674,0,0,0,.452-.711.191.191,0,0,0,.032-.042q-1.165.045-2.047.136a.813.813,0,0,1-.148.013" transform="translate(-392.043 -2581.092)" fill="#2a7d3a"/>
        <path id="Path_407" data-name="Path 407" d="M463.4,2582.59a2.213,2.213,0,0,1,.638.346c.484.337.715.571.69.707,0,.029-.038.063-.1.095a1.1,1.1,0,0,0-.374.4c-.185.329-.391.65-.608.966a2.7,2.7,0,0,1,.678.374c.394.357.579.621.554.785a.517.517,0,0,1-.312.349,1.989,1.989,0,0,0-.616.482,11.325,11.325,0,0,1-1.193,1.282c.123.124.242.243.361.358a14.708,14.708,0,0,0,3.005,2.051l-.028.172c0,.045-.1.062-.284.054a17.886,17.886,0,0,1-2.249-.2.992.992,0,0,1-.488-.168A11.864,11.864,0,0,1,462,2589a6.032,6.032,0,0,1-1.952.949,5.738,5.738,0,0,1-2.311.132c-.333-.053-.5-.111-.5-.168l.017-.107a8.319,8.319,0,0,0,2.321-.6,7.694,7.694,0,0,0,1.879-1.181c-.057-.127-.119-.254-.18-.374a10.056,10.056,0,0,0-.548-.847,2.594,2.594,0,0,0-.558-.554h-.009c-.193.262-.365.484-.518.674a6.468,6.468,0,0,1-1.73,1.414,11.16,11.16,0,0,1-1.081.41l-.461.058c-.038-.009-.053-.024-.045-.054a9.3,9.3,0,0,0,1.348-.851,8.786,8.786,0,0,0,1.332-1.488,8.5,8.5,0,0,0,1.053-1.792,3.37,3.37,0,0,0,.308-.942.469.469,0,0,0-.013-.321,1.226,1.226,0,0,0,0-.123c-.374-.009-.752-.013-1.143-.009a.407.407,0,0,1-.291-.246,1.248,1.248,0,0,1-.1-.345.121.121,0,0,1,.144-.066,28.035,28.035,0,0,0,4.238.028.568.568,0,0,1,.21-.008m-3.062,3.391.085.013a1.4,1.4,0,0,1,.419.18,2.141,2.141,0,0,1,.622.616,8.6,8.6,0,0,0,.55.74,7.8,7.8,0,0,0,1.069-1.291.889.889,0,0,0,.172-.316c.008-.062-.045-.1-.157-.125-1.389.009-2.142,0-2.248-.011a.828.828,0,0,1-.293-.157c-.078.119-.151.234-.221.35m.641-2.729a3.339,3.339,0,0,1,.325.172c.308.193.452.35.431.482a.246.246,0,0,1-.135.151,1.105,1.105,0,0,0-.264.321c-.172.3-.337.571-.5.822a10.525,10.525,0,0,0,1.147.057c.123,0,.251-.008.378-.015a.526.526,0,0,1,0-.087.164.164,0,0,1,.058-.09.813.813,0,0,0,.106-.182,5.32,5.32,0,0,0,.333-.9,2.332,2.332,0,0,0,.115-.436c.021-.119-.053-.193-.225-.221a6.11,6.11,0,0,0-.807-.053c-.324-.013-.645-.017-.97-.017" transform="translate(-389.502 -2580.656)" fill="#2a7d3a"/>
        <path id="Path_408" data-name="Path 408" d="M466.766,2586.38a.417.417,0,0,1,.107.059,3.039,3.039,0,0,0,.333.14,6.225,6.225,0,0,0,.715.159,2.763,2.763,0,0,0,.937.021.289.289,0,0,1,.172,0,1.155,1.155,0,0,1,.548.444.81.81,0,0,1,.2.7c-.025.07-.106.123-.25.156a1.878,1.878,0,0,0-.559.345,7.259,7.259,0,0,1-1.665,1.188,4.742,4.742,0,0,1-2.3.469c-.082-.024-.119-.058-.106-.094a12.524,12.524,0,0,0,1.949-1.007,10.779,10.779,0,0,0,1.574-1.489c.008-.028-.017-.053-.083-.074-.728,0-1.11-.007-1.142-.021a1.069,1.069,0,0,1-.457-.439.591.591,0,0,1-.119-.42c.041-.112.087-.157.14-.136m4.283-2.079a3.066,3.066,0,0,1,.954.612c.284.21.4.4.337.572a.231.231,0,0,1-.089.094,3.2,3.2,0,0,0-.712,1.007,11.551,11.551,0,0,0-.559,1.323c.107.268.206.518.3.752a3.138,3.138,0,0,0,.482-.259,4.032,4.032,0,0,0,.928-.63.887.887,0,0,0,.287-.3.289.289,0,0,0,.009-.148.577.577,0,0,1,.017-.176.231.231,0,0,1,.333-.16,3.529,3.529,0,0,1,.826.535c.357.378.518.632.473.752-.025.07-.123.1-.3.095a3.761,3.761,0,0,0-.745.106,15.354,15.354,0,0,1-2.236.391,14.92,14.92,0,0,0,.941,1.873,8.384,8.384,0,0,0,1.854,1.85c.115.066.159.123.144.182-.029.082-.1.111-.214.085a3.28,3.28,0,0,1-.658-.106,10.508,10.508,0,0,1-1.542-.461.754.754,0,0,1-.444-.445,13.216,13.216,0,0,1-.554-1.762c-.1-.435-.185-.826-.259-1.167q-.586,1.719-.979,3.045a2.064,2.064,0,0,1-.707.929c-.255.172-.444.235-.567.193a.456.456,0,0,1-.342-.4,6.686,6.686,0,0,0-.862-1.64.139.139,0,0,1,.2-.1,4.538,4.538,0,0,0,.835.514c.091.032.168-.013.234-.136a5.845,5.845,0,0,0,.592-1.2c.391-.9.76-1.862,1.123-2.89.21-.6.374-1.118.484-1.571a2.893,2.893,0,0,0,.1-1.175.273.273,0,0,1,0-.111c.038-.1.14-.127.3-.07" transform="translate(-386.972 -2580.157)" fill="#2a7d3a"/>
        <path id="Path_409" data-name="Path 409" d="M480.839,2592.16a1.733,1.733,0,0,1,.337.333c.132.272.164.461.1.567a.87.87,0,0,1-.214.268.392.392,0,0,1-.3.106c-.691-.254-1.389-.534-2.1-.83l-1.163,1.945c.694.3,1.237.529,1.624.682a10.58,10.58,0,0,1,.962.469,2.875,2.875,0,0,1,.484.6c.189.4.247.667.168.807-.164.283-.418.324-.772.127a2.835,2.835,0,0,1-.378-.3,3.44,3.44,0,0,0-.5-.358q-1.165-.66-2.318-1.249a19.774,19.774,0,0,0-2.019-.892c-.346-.128-.773-.272-1.291-.432-.087-.04-.136-.053-.14-.04-.1-.058-.206-.28-.312-.667a1.769,1.769,0,0,1-.03-.678.078.078,0,0,1,.119-.032c.2.094.429.206.7.333.987.452,1.854.835,2.61,1.155l1.094-1.957a13.347,13.347,0,0,1-1.249-.6c-.473-.268-.712-.576-.712-.929a.949.949,0,0,1,.041-.448c.025-.045.062-.053.115-.024.892.455,1.661.822,2.315,1.1l.254-.455a13.5,13.5,0,0,0,.811-1.669,1.313,1.313,0,0,0,.148-.752.664.664,0,0,1,.041-.112c.057-.1.172-.1.35,0a3.194,3.194,0,0,1,.814.686c.242.337.329.563.267.673a.348.348,0,0,1-.132.125,6.621,6.621,0,0,0-.809,1.056l-.546.917a13.007,13.007,0,0,0,1.3.369,1.018,1.018,0,0,1,.333.112" transform="translate(-384.596 -2579.013)" fill="#2a7d3a"/>
        <path id="Path_410" data-name="Path 410" d="M486.225,2592.46a1.932,1.932,0,0,1,.493.72c.132.284.157.48.07.579a.42.42,0,0,1-.3.136.493.493,0,0,0-.317.045,19.413,19.413,0,0,1-2.072.744c.157.406.2.649.123.739a.745.745,0,0,1-.255.168,2.46,2.46,0,0,0-.271.2l-2.323,2.877a1.031,1.031,0,0,1-.477.3c-.268.106-.436.131-.51.074-.151-.127-.14-.436.038-.933a.765.765,0,0,1,.131-.3q.2-.246,1.369-1.3a14.852,14.852,0,0,0,1.251-1.393,2.4,2.4,0,0,0,.193-.263,7.975,7.975,0,0,1-1.829.127,1.271,1.271,0,0,1-.546-.085c-.025-.021-.017-.05.016-.087a19.5,19.5,0,0,0,2.64-.809,11.463,11.463,0,0,0,1.648-.9,3.677,3.677,0,0,0,.575-.492l.17-.206c.032-.038.094-.021.18.053m.584,1.484a3.031,3.031,0,0,1,.412.44,2.9,2.9,0,0,0,.329.2c.612.325,1.106.614,1.479.856a1.969,1.969,0,0,0,.6.283.906.906,0,0,1,.111.073,5.013,5.013,0,0,1,.378.735q.289.709.2.814a.241.241,0,0,1-.185.074,1.269,1.269,0,0,0-.624.091,4,4,0,0,0-.835.4h-.017a.738.738,0,0,1-.106.349.089.089,0,0,1-.094-.024,13.994,13.994,0,0,0-1.164-.864c.107.251.115.427.021.539a.3.3,0,0,1-.144.094c-.107.082-.21.161-.312.235q.9.567,1.484.888a.6.6,0,0,1,.115.066,1.554,1.554,0,0,1,.407.637.83.83,0,0,1-.1.7c-.144.172-.284.2-.416.094s-.35-.317-.654-.626a3.85,3.85,0,0,0-.473-.472c-.225-.193-.444-.363-.641-.522a.267.267,0,0,1,0,.057,8.034,8.034,0,0,0,.14,1.792,8.759,8.759,0,0,0,.842,2.291l-.078.094c-.025.032-.1.008-.206-.074a12.416,12.416,0,0,1-1.471-1.031.427.427,0,0,1-.173-.239,13.735,13.735,0,0,1,.355-2.392c.025-.153.044-.317.069-.494-.168.173-.316.333-.439.484l-1.525,1.843a.905.905,0,0,1-.539.276c-.206.1-.37.106-.486.008-.135-.111-.155-.316-.065-.62a1.183,1.183,0,0,1,.287-.6,6.889,6.889,0,0,0,.76-.531,4.29,4.29,0,0,0,.9-.862,6.01,6.01,0,0,1-.822.106,4.207,4.207,0,0,1-1.286-.085,5.409,5.409,0,0,1-1.172-.424l.053-.066a2.844,2.844,0,0,0,.592.036,6.684,6.684,0,0,0,1.249-.082,7.027,7.027,0,0,0,1.555-.377c.053-.013.1-.029.152-.045a10.581,10.581,0,0,0-1.044-.58.9.9,0,0,1-.268-.151.867.867,0,0,1-.25-.588.925.925,0,0,1,.053-.478.077.077,0,0,1,.123-.011q.456.376,2.035,1.4a.3.3,0,0,1,.066.04,3.045,3.045,0,0,0,.4-.6,1.861,1.861,0,0,0,.07-.251c-.106-.07-.176-.119-.217-.153a.051.051,0,0,1-.017-.028.221.221,0,0,1-.2-.05.406.406,0,0,1-.136-.365.5.5,0,0,1,.07-.31,2.907,2.907,0,0,1,.4-.871,2.127,2.127,0,0,0,.234-.641.665.665,0,0,0,0-.4c.091-.111.168-.14.238-.083m-.127,2.253c.168.111.386.247.653.4a7.564,7.564,0,0,0,.814.472,3.447,3.447,0,0,0,.346-.234,2.53,2.53,0,0,0,.46-.435c.091-.107.058-.23-.094-.363a4.605,4.605,0,0,0-.571-.386,7.6,7.6,0,0,0-1-.535Z" transform="translate(-382.437 -2577.764)" fill="#2a7d3a"/>
        <path id="Path_411" data-name="Path 411" d="M492.251,2601.08a1.065,1.065,0,0,1,.144.308q.037.34-.074.431a.8.8,0,0,1-.2.132.3.3,0,0,1-.21-.008c-.217-.149-.436-.3-.654-.474-.185.157-.366.313-.546.465a1.078,1.078,0,0,1,.357.153.156.156,0,0,1-.021.246.326.326,0,0,1-.21.037l-.567-.045q-1.277,1.086-2.249,1.956a1.8,1.8,0,0,1-.945.387c-.28.016-.456-.017-.53-.108a.363.363,0,0,1-.058-.436,6.109,6.109,0,0,0,.128-1.562c.061-.053.127-.037.2.053a3.12,3.12,0,0,0,.329.637c.062.07.153.066.28-.007a6.982,6.982,0,0,0,1.123-.745c.151-.11.3-.225.452-.34a.97.97,0,0,1-.127-.021c-.469-.066-1.045-.119-1.723-.161-.106.013-.172,0-.2-.041-.066-.074-.07-.283-.013-.616a1.244,1.244,0,0,1,.263-.563c.066-.057.115-.065.153-.02a1.173,1.173,0,0,0,.423.243c.435.18,1.072.4,1.9.662.3-.243.6-.486.9-.737a5.308,5.308,0,0,1-.546-.5.9.9,0,0,1-.287-.826.711.711,0,0,1,.135-.3c.038-.032.074-.024.115.017a11.424,11.424,0,0,0,1.192,1.1c.395-.35.744-.67,1.04-.958a2.832,2.832,0,0,0,.675-.917.36.36,0,0,1,.061-.1c.094-.079.2-.054.313.082a2.407,2.407,0,0,1,.414.86c.12.271.111.46-.016.571a.257.257,0,0,1-.111.037,3.827,3.827,0,0,0-1.077.542c-.176.131-.35.263-.518.4.045.02.091.041.14.065a.382.382,0,0,1,.148.1m3.617,2.692a1.1,1.1,0,0,1,.144.321c.017.221-.008.366-.082.427a.6.6,0,0,1-.21.12.224.224,0,0,1-.2,0c-.3-.21-.607-.435-.917-.673-.242.184-.509.389-.8.612a8.662,8.662,0,0,0,.8.558,3.125,3.125,0,0,1,.592.527,1.4,1.4,0,0,1,.272.567.78.78,0,0,1-.161.654.363.363,0,0,1-.206.045.276.276,0,0,1-.217-.087q-.561-.666-1.06-1.2a.329.329,0,0,1-.094.238.16.16,0,0,1-.119.034,1.659,1.659,0,0,0-.242.131q.111.079.21.164a1.542,1.542,0,0,1,.32.272,1.052,1.052,0,0,1,.214.558.513.513,0,0,1-.176.5c-.185.151-.312.185-.387.1-.3-.35-.6-.682-.9-1.007q-.87.771-1.739,1.648a1.549,1.549,0,0,1-.958.317c-.365.008-.6-.05-.694-.164a.485.485,0,0,1-.062-.506,5.5,5.5,0,0,0,.083-1.566c.061-.053.127-.036.2.054a3.246,3.246,0,0,0,.432.83c.085.1.234.078.444-.066a17.366,17.366,0,0,0,1.475-1.167c.034-.03.07-.059.1-.087-.136-.123-.263-.242-.391-.353a10.145,10.145,0,0,0-1.036-.818,1.619,1.619,0,0,1-.263-.189.768.768,0,0,1-.087-.538.6.6,0,0,1,.14-.423c.025-.017.054,0,.091.037q.944.845,1.69,1.435c.132.106.267.218.416.333.085-.083.172-.173.259-.263.11-.115.2-.219.28-.308-.107-.094-.206-.181-.3-.272a12.6,12.6,0,0,0-1.542-1.159.174.174,0,0,1-.1-.062q-.091-.1-.028-.5a.863.863,0,0,1,.132-.4c.025-.017.053-.005.089.04.408.329.733.609.975.827.21.176.456.39.744.637.291-.238.558-.456.8-.65a4.44,4.44,0,0,1-.366-.361.892.892,0,0,1-.28-.835.69.69,0,0,1,.123-.292c.041-.034.079-.025.115.021.383.39.72.707,1.02.961a9.434,9.434,0,0,0,1-.908,1.954,1.954,0,0,0,.177-.4.546.546,0,0,1,.119-.246c.127-.107.238-.107.325-.005a1.819,1.819,0,0,1,.386.773c.161.388.189.626.091.707l-.173.119a4.978,4.978,0,0,0-1.023.629c.136.073.263.143.386.2a.383.383,0,0,1,.17.11m-5.645,1.086a1.363,1.363,0,0,1,.185.3,2.206,2.206,0,0,1,.251.727.55.55,0,0,1-.214.439.391.391,0,0,1-.308.063.54.54,0,0,1-.3-.161.3.3,0,0,1-.038-.262,4.764,4.764,0,0,1,.293-1.032.229.229,0,0,1,.045-.115.084.084,0,0,1,.089.036" transform="translate(-380.623 -2575.999)" fill="#2a7d3a"/>
        <path id="Path_412" data-name="Path 412" d="M498.939,2605.71a3.362,3.362,0,0,1,.291.712v.032a4.646,4.646,0,0,0,.378.535q1.091,1.392,1.727,2.331a6.014,6.014,0,0,0,.694.867,1.4,1.4,0,0,1,.132.185,4.092,4.092,0,0,1,.091.817c.036.506.008.79-.087.843a.264.264,0,0,1-.214-.017,1.655,1.655,0,0,0-.707-.2,5.172,5.172,0,0,0-1.028.049,1.311,1.311,0,0,1-.464-.535c-.1-.168-.111-.291-.042-.369-.353-.58-.732-1.143-1.13-1.682a1.476,1.476,0,0,1,.025.263c.078.349.078.546,0,.6-.032.011-.074.024-.123.045a1.751,1.751,0,0,0-.242.057c.061.062.119.119.176.172a.361.361,0,0,1,.119.119.971.971,0,0,1,.083.338c-.013.222-.066.353-.153.406a.524.524,0,0,1-.217.078.689.689,0,0,0-.07.017c.153.024.287.045.4.053a1.13,1.13,0,0,0,.65-.14l.144-.185c.045-.025.1.013.151.112a1.591,1.591,0,0,1,.157.831c-.012.337-.082.538-.206.613-.049.028-.131,0-.242-.075a.69.69,0,0,0-.361-.138c-.268-.054-.518-.107-.752-.165.386.484.728.9,1.027,1.236a1.312,1.312,0,0,1,.124.168,1.825,1.825,0,0,1,.189.86,1.026,1.026,0,0,1-.412.745c-.227.131-.391.106-.5-.075s-.255-.488-.461-.941a4.208,4.208,0,0,0-.32-.719q-.524-.9-.987-1.629c-.272-.085-.527-.172-.773-.263.082.095.164.185.246.272a1.834,1.834,0,0,0,.412.312.3.3,0,0,1,.1.083,2.276,2.276,0,0,1,.168.653c.021.428-.032.678-.164.757a.2.2,0,0,1-.057.008,2.237,2.237,0,0,0-.962.382c-.053.033-.243.189-.559.465a3.557,3.557,0,0,1-.493.4,1.5,1.5,0,0,1-.785.1c-.391-.078-.625-.184-.712-.329.14-.267.259-.493.363-.677-.21-.342-.427-.671-.654-.992-.272-.378-.436-.612-.486-.7v-.009a.408.408,0,0,1-.37-.176.429.429,0,0,1,.07-.469,1.207,1.207,0,0,1,.412-.366,1.078,1.078,0,0,1,.119-.057,7.6,7.6,0,0,0,.719-.321c.14-.066.3-.152.489-.263a10.23,10.23,0,0,1-1.113-.633,11.052,11.052,0,0,1-1.451-1.126,2.262,2.262,0,0,1-.325-.366c-.016-.025-.012-.04.005-.053a24.634,24.634,0,0,0,2.17,1.213q.709.315,1.353.571c.019-.021.036-.041.053-.057a2.239,2.239,0,0,1,.271-.248.118.118,0,0,1,.181.045,1.626,1.626,0,0,1,.214.518s0,.013,0,.025c.321.115.616.214.892.3-.127-.185-.251-.359-.366-.514a17.111,17.111,0,0,0-1.569-1.854,1.328,1.328,0,0,1-.35-.4,1.024,1.024,0,0,1-.025-.752,1.233,1.233,0,0,1,.259-.482.075.075,0,0,1,.115.025c.308.531,1.056,1.58,2.236,3.137.164-.094.316-.185.46-.268-.057-.086-.106-.165-.148-.229a.844.844,0,0,1-.123-.86.569.569,0,0,1,.168-.276c.041-.024.078-.008.111.045.238.366.456.675.658.93a4.1,4.1,0,0,0,.4-.272.921.921,0,0,0,.148-.222.237.237,0,0,1,.082-.14.176.176,0,0,0,.03-.017c-.2-.262-.338-.455-.419-.584a.33.33,0,0,1-.255-.18.508.508,0,0,1-.025-.452.575.575,0,0,1,.189-.3,2.508,2.508,0,0,1,.539-.654,1.421,1.421,0,0,0,.333-.51.667.667,0,0,0,.078-.4c.153-.085.255-.082.313.021m-5.895,6.433c.1.144.217.3.353.473a8.421,8.421,0,0,0,.62.744.967.967,0,0,1,.115.151.622.622,0,0,1,.091.325h.008a3.705,3.705,0,0,0,.773-.378,7.455,7.455,0,0,0,.946-.708c.053-.029.04-.106-.034-.229a4.2,4.2,0,0,0-.325-.453,8.057,8.057,0,0,0-.822-.866l-.151.085c-.091.058-.189.108-.284.157.21.217.414.423.616.609a.5.5,0,0,1,.107.115c.32.55.28.941-.128,1.183-.032.017-.07,0-.111-.038-.246-.28-.464-.542-.653-.8a3.778,3.778,0,0,1-.3-.406.883.883,0,0,1-.115-.321c-.127.066-.246.124-.35.177-.127.07-.246.127-.357.185m4.213-.954c.308.07.584.123.822.161a.142.142,0,0,1-.045-.021c-.206-.242-.4-.5-.6-.76-.144.066-.3.144-.482.23.1.135.206.263.3.39m1-3.219c.106.174.238.358.39.563a1.753,1.753,0,0,1,.321-.276,2.216,2.216,0,0,1,.242-.165c.124-.1.23-.184.313-.259l.008-.008c-.164-.222-.333-.444-.514-.666Zm.743,1.036.013.021c.148.21.28.4.4.559.221-.086.427-.177.629-.266a2.752,2.752,0,0,0,.308-.157.381.381,0,0,0,.082-.119c-.2-.284-.4-.563-.609-.847a1.836,1.836,0,0,1-.221.435.844.844,0,0,1-.28.276.754.754,0,0,1-.321.1m.688.938c.135.177.267.333.386.465a2.617,2.617,0,0,1,.193.267.487.487,0,0,1,.066.263,1.887,1.887,0,0,0,.227-.045,1.8,1.8,0,0,0,.669-.225c.111-.07.123-.193.034-.374-.079-.14-.177-.291-.293-.456.009.11-.012.18-.053.2a.313.313,0,0,1-.157.017c-.161-.017-.28-.024-.357-.032a5.673,5.673,0,0,1-.715-.083" transform="translate(-379.292 -2573.859)" fill="#2a7d3a"/>
      </g>
      <g id="Group_111" data-name="Group 111" transform="translate(6.195 62.129)">
        <path id="Path_413" data-name="Path 413" d="M400.946,2631.16l.4-2.635.378.057a1.884,1.884,0,0,0-.03.494.211.211,0,0,0,.2.185.606.606,0,0,0,.259-.008l.7-.164.28-1.813-.342-.193a1.43,1.43,0,0,0-.423-.181.3.3,0,0,0-.346.144,1.418,1.418,0,0,0-.131.435l-.378-.057.291-1.924.378.058a.884.884,0,0,0,.029.406.906.906,0,0,0,.28.357,4.986,4.986,0,0,0,.633.416l3.975,2.257-.057.4-4.617,1.036c-.324.077-.546.135-.666.176a.614.614,0,0,0-.284.2.841.841,0,0,0-.157.414Zm2.34-2.158,2.068-.472-1.837-1.032Z" transform="translate(-398.743 -2624.779)" fill="#053a7a"/>
        <path id="Path_414" data-name="Path 414" d="M404.321,2634.34a.349.349,0,0,1-.234-.1.246.246,0,0,1-.078-.193.418.418,0,0,1,.136-.25.863.863,0,0,1,.057-.066.627.627,0,0,0,.066-.079.135.135,0,0,0,.028-.064.278.278,0,0,0-.07-.21,1.71,1.71,0,0,1-.353.189.937.937,0,0,1-.416.046.951.951,0,0,1-.546-.2.984.984,0,0,1-.312-.427,2.277,2.277,0,0,1-.136-.514c-.021-.176-.041-.395-.053-.665-.028-.658-.136-1-.321-1.011-.078-.009-.14.037-.176.136a1.617,1.617,0,0,0-.083.431l-.049.633a5.3,5.3,0,0,1-.078.58,2.285,2.285,0,0,1-.189.554,1.186,1.186,0,0,1-.4.465.994.994,0,0,1-.675.147,1.147,1.147,0,0,1-.6-.229,1.41,1.41,0,0,1-.465-.7,3.147,3.147,0,0,1-.115-1.3,4.983,4.983,0,0,1,.267-1.229.73.73,0,0,1,.794-.559.621.621,0,0,1,.353.149.427.427,0,0,1,.136.374.6.6,0,0,1-.1.308.562.562,0,0,0-.3-.119.569.569,0,0,0-.5.28,1.8,1.8,0,0,0-.28.941,2.366,2.366,0,0,0,.1,1.031.558.558,0,0,0,.461.412.369.369,0,0,0,.337-.132,1.051,1.051,0,0,0,.177-.448c.032-.2.074-.5.11-.921a3.913,3.913,0,0,1,.264-1.183.643.643,0,0,1,.707-.382.684.684,0,0,1,.6.373,2.74,2.74,0,0,1,.234.822c.2-.732.58-1.073,1.139-1.027a1.178,1.178,0,0,1,.99.756,2.216,2.216,0,0,1,.123,1.04,1.864,1.864,0,0,1-.486,1.225.8.8,0,0,1,.321.7.461.461,0,0,1-.136.321.316.316,0,0,1-.259.1m-.732-1.776a1.175,1.175,0,0,0,.629-.106.532.532,0,0,0,.3-.472.553.553,0,0,0-.2-.535,1.044,1.044,0,0,0-.571-.2,1.394,1.394,0,0,0-.637.091.523.523,0,0,0-.325.5.57.57,0,0,0,.185.488.97.97,0,0,0,.62.231" transform="translate(-399.244 -2623.533)" fill="#053a7a"/>
        <path id="Path_415" data-name="Path 415" d="M402.533,2636.56l.058-2.565c-.053,0-.164.008-.338.016a1.982,1.982,0,0,0-.533.1.974.974,0,0,0-.461.329,1.013,1.013,0,0,0-.2.637,1.551,1.551,0,0,0,.1.534,1.147,1.147,0,0,0,.419.554l-.227.321a1.709,1.709,0,0,1-.752-1.582,2.639,2.639,0,0,1,.161-.871,1.939,1.939,0,0,1,.4-.658,1.637,1.637,0,0,1,.588-.407,1.74,1.74,0,0,1,.719-.131,1.884,1.884,0,0,1,.93.267,1.752,1.752,0,0,1,.665.715,2.077,2.077,0,0,1,.23,1.045,1.8,1.8,0,0,1-.267.958,1.517,1.517,0,0,1-.65.567,1.953,1.953,0,0,1-.839.168m.408-1.028c.633.017.953-.225.966-.728a.643.643,0,0,0-.247-.563,1.269,1.269,0,0,0-.682-.23Z" transform="translate(-398.846 -2622.614)" fill="#053a7a"/>
        <path id="Path_416" data-name="Path 416" d="M400.85,2640.39l-.085-2.158.382-.017a.684.684,0,0,0,.082.349.266.266,0,0,0,.194.125,2.151,2.151,0,0,0,.41.007l1.18-.045a1.24,1.24,0,0,0,.555-.123.439.439,0,0,0,.193-.437.72.72,0,0,0-.361-.637,1.4,1.4,0,0,0-.782-.185l-.932.037a.768.768,0,0,0-.448.111.525.525,0,0,0-.1.419l-.382.017-.085-2.2.382-.011a1.383,1.383,0,0,0,.061.4.275.275,0,0,0,.177.16,1.287,1.287,0,0,0,.4.029l1.344-.053a.5.5,0,0,0,.378-.128.916.916,0,0,0,.07-.5l.382-.017.423,1.607a2.559,2.559,0,0,1-.452.055.809.809,0,0,1-.091,0,.707.707,0,0,0-.091,0,2.827,2.827,0,0,1,.478.531,1.284,1.284,0,0,1,.2.7,1.508,1.508,0,0,1-.106.65,1.013,1.013,0,0,1-.374.465,1.164,1.164,0,0,1-.625.186l-1.4.053a.884.884,0,0,0-.474.115c-.085.066-.123.225-.11.484Z" transform="translate(-398.825 -2621.823)" fill="#053a7a"/>
        <path id="Path_417" data-name="Path 417" d="M402.014,2642.81a1.705,1.705,0,0,1-1.143-1.516,2.39,2.39,0,0,1,.115-1,1.809,1.809,0,0,1,.539-.8,1.627,1.627,0,0,1,.913-.378,1.741,1.741,0,0,1,.728.082,2,2,0,0,1,.662.374,2.039,2.039,0,0,1,.489.637,2.3,2.3,0,0,1,.238.827,2.214,2.214,0,0,1-.123,1.031.7.7,0,0,1-.584.5.422.422,0,0,1-.325-.107.458.458,0,0,1-.161-.3.389.389,0,0,1,.054-.267.381.381,0,0,1,.148-.136c.053-.025.148-.066.287-.115a.5.5,0,0,0,.272-.206.6.6,0,0,0,.049-.357.943.943,0,0,0-.346-.641,1.461,1.461,0,0,0-1.077-.189,2.339,2.339,0,0,0-.743.2,1.133,1.133,0,0,0-.51.427.958.958,0,0,0-.136.642.878.878,0,0,0,.264.607,2.407,2.407,0,0,0,.513.334Z" transform="translate(-398.768 -2620.767)" fill="#053a7a"/>
        <path id="Path_418" data-name="Path 418" d="M405.167,2645.76a.6.6,0,0,0-.136-.259.61.61,0,0,0-.23-.148c-.1-.041-.3-.107-.6-.2l-2.692-.814c-.6-.181-.99-.308-1.189-.378a1.5,1.5,0,0,1-.488-.263.684.684,0,0,1-.23-.437.5.5,0,0,1,.061-.345.357.357,0,0,1,.272-.184.4.4,0,0,1,.391.11,1.678,1.678,0,0,1,.263.412.975.975,0,0,0,.477.5,3.466,3.466,0,0,0,.678.234l2.516-2a.7.7,0,0,0,.221-.242.449.449,0,0,0,.017-.264l.382-.057.313,2-.378.057-.021-.126c-.029-.189-.091-.276-.181-.263a.8.8,0,0,0-.267.161l-1.389,1.11,1.4.435a1.15,1.15,0,0,0,.408.079.22.22,0,0,0,.168-.153.59.59,0,0,0,.025-.3l.378-.062.21,1.336Z" transform="translate(-399.143 -2620.083)" fill="#053a7a"/>
        <path id="Path_419" data-name="Path 419" d="M404.361,2649.81a1.764,1.764,0,0,1-1.024-.032,1.786,1.786,0,0,1-.8-.573,2.482,2.482,0,0,1-.493-1.964,1.809,1.809,0,0,1,.423-.888,1.7,1.7,0,0,1,.921-.531,1.627,1.627,0,0,1,1.484.276,2.359,2.359,0,0,1,.8,1.315,2.262,2.262,0,0,1,.013,1.123,1.711,1.711,0,0,1-.489.834,1.8,1.8,0,0,1-.83.44m-.247-1.123a2.333,2.333,0,0,0,1-.435.746.746,0,0,0,.176-.794.826.826,0,0,0-.28-.485.844.844,0,0,0-.535-.152,4.023,4.023,0,0,0-.842.127,2.654,2.654,0,0,0-.971.408.72.72,0,0,0-.2.817.729.729,0,0,0,.344.51,1.079,1.079,0,0,0,.588.123,4.27,4.27,0,0,0,.728-.118" transform="translate(-398.431 -2618.807)" fill="#053a7a"/>
        <path id="Path_420" data-name="Path 420" d="M408.288,2651.5a.47.47,0,0,1-.4-.057.535.535,0,0,1-.238-.3.426.426,0,0,1,.057-.408,1.511,1.511,0,0,1,.374-.3.4.4,0,0,0,.214-.476.316.316,0,0,0-.3-.276,2.254,2.254,0,0,0-.637.115l-1.056.308.238.814-.366.107-.238-.814-1.956.576a1.729,1.729,0,0,0-.346.127.264.264,0,0,0-.136.172.785.785,0,0,0,.041.362l.041.148-.366.108-.686-2.344.366-.108.053.181a.72.72,0,0,0,.153.3.3.3,0,0,0,.217.087,1.632,1.632,0,0,0,.357-.07l1.956-.576-.2-.669.37-.107.2.67.469-.136a3.075,3.075,0,0,1,.48-.108,1.692,1.692,0,0,1,.523.009,1.3,1.3,0,0,1,.6.246,1.7,1.7,0,0,1,.416.448,2.238,2.238,0,0,1,.242.547,1.623,1.623,0,0,1,.074.764.84.84,0,0,1-.214.461.736.736,0,0,1-.3.2" transform="translate(-398.276 -2618.027)" fill="#053a7a"/>
        <path id="Path_421" data-name="Path 421" d="M405.878,2658.86l-.563-1.406a2.213,2.213,0,0,1,.168-.287c.078-.119.172-.255.284-.4s.2-.276.272-.371l.443-.592a6.17,6.17,0,0,0,.395-.58.612.612,0,0,0,.074-.354,2.5,2.5,0,0,0-.176-.546l-.078-.2-1.37.556a1.1,1.1,0,0,0-.329.185.381.381,0,0,0-.115.3,1.535,1.535,0,0,0,.132.526l-.353.144L403.6,2653.2l.353-.14c.127.318.259.507.387.56a.731.731,0,0,0,.533-.053l3.313-1.336a.739.739,0,0,0,.423-.325.986.986,0,0,0-.111-.678l.366-.144.526,1.2c.045.091.091.2.14.316s.1.23.14.333c.034.078.083.214.153.4.1.263.18.514.246.749a3.544,3.544,0,0,1,.128.575,1.91,1.91,0,0,1-.021.646,1.394,1.394,0,0,1-.28.607,1.31,1.31,0,0,1-.58.423,1.244,1.244,0,0,1-.554.091,1.207,1.207,0,0,1-.588-.189,1.992,1.992,0,0,1-.576-.542,1.836,1.836,0,0,1-.218.646c-.111.2-.329.522-.654.981a7.324,7.324,0,0,0-.407.629,1.07,1.07,0,0,0-.14.4.96.96,0,0,0,.049.374Zm2.975-3.72c.416-.169.642-.408.678-.72a2.281,2.281,0,0,0-.2-1.077c-.021-.057-.041-.1-.053-.131s-.034-.07-.051-.111l-2.1.846.094.246a2.512,2.512,0,0,0,.584.9.957.957,0,0,0,1.047.041" transform="translate(-397.96 -2617.236)" fill="#053a7a"/>
        <path id="Path_422" data-name="Path 422" d="M407.214,2661.28c-.041-.07-.111-.193-.21-.367s-.217-.369-.35-.579a4.8,4.8,0,0,0-.337-.5l.546-.271a1.665,1.665,0,0,1-1.123-.884,1.191,1.191,0,0,1-.148-.826.981.981,0,0,1,.321-.522,2.7,2.7,0,0,1,.514-.321l1.1-.542a1.891,1.891,0,0,0,.313-.185.273.273,0,0,0,.085-.218.977.977,0,0,0-.127-.4l.346-.168.739,1.5-2.064,1.011c-.423.21-.554.477-.394.806a.692.692,0,0,0,.435.374,1.956,1.956,0,0,0,.531.111l1.233-.6a2.081,2.081,0,0,0,.321-.193.267.267,0,0,0,.078-.218,1.137,1.137,0,0,0-.14-.412l.346-.168.748,1.521-2.253,1.11a.834.834,0,0,0-.242.161.259.259,0,0,0-.058.218,1.242,1.242,0,0,0,.128.391Z" transform="translate(-397.381 -2615.935)" fill="#053a7a"/>
        <path id="Path_423" data-name="Path 423" d="M411.054,2661.89a.493.493,0,0,1-.7-.176.527.527,0,0,1,0-.478,1.142,1.142,0,0,0,.065-.193.227.227,0,0,0-.036-.156.556.556,0,0,0-.556-.268,1.6,1.6,0,0,0-.728.2l-.633.357a.9.9,0,0,0-.369.312c-.045.094-.009.255.119.478l.106.193-.333.189-1.274-2.257.333-.185.107.185c.114.206.225.308.329.308a.955.955,0,0,0,.452-.165l1.06-.6a1.091,1.091,0,0,0,.321-.243.31.31,0,0,0,.04-.259,1.9,1.9,0,0,0-.2-.424l.333-.189,1.115,1.238a5.7,5.7,0,0,1-.728.547,1.8,1.8,0,0,1,.539.045,1.608,1.608,0,0,1,.5.21.955.955,0,0,1,.344.357.723.723,0,0,1,.1.567.617.617,0,0,1-.3.4" transform="translate(-397.043 -2615.043)" fill="#053a7a"/>
        <path id="Path_424" data-name="Path 424" d="M411,2665.51a1.065,1.065,0,0,1-.522.185.828.828,0,0,1-.465-.119,1.068,1.068,0,0,1-.353-.359.984.984,0,0,1-.176-.579.634.634,0,0,1,.181-.448,2.212,2.212,0,0,1-1.221-.88,1.152,1.152,0,0,1-.214-.739.675.675,0,0,1,.329-.552.966.966,0,0,1,.533-.159,1.38,1.38,0,0,1,.6.151,3.24,3.24,0,0,1,.662.42c.23.181.5.416.809.7l.2-.128a.707.707,0,0,0,.316-.365.867.867,0,0,0-.5-.843.7.7,0,0,0-.44.057.7.7,0,0,1-.329.066c-.1,0-.2-.091-.3-.246a.5.5,0,0,1-.082-.313.355.355,0,0,1,.176-.274.819.819,0,0,1,.794-.009,2.3,2.3,0,0,1,.937.933,1.929,1.929,0,0,1,.419,1.229,1.064,1.064,0,0,1-.51.737l-1.106.711a3.174,3.174,0,0,0-.3.206.339.339,0,0,0-.11.155.227.227,0,0,0,.045.181.237.237,0,0,0,.2.1.459.459,0,0,0,.271-.078Zm-1.057-1.6.867-.555a2.448,2.448,0,0,0-.949-.583.709.709,0,0,0-.514.07.413.413,0,0,0-.193.267.423.423,0,0,0,.078.337.817.817,0,0,0,.3.292,2.356,2.356,0,0,0,.41.172" transform="translate(-396.598 -2614.321)" fill="#053a7a"/>
        <path id="Path_425" data-name="Path 425" d="M410.981,2667.18l-1.381-1.956.313-.222.1.148a.676.676,0,0,0,.259.246.267.267,0,0,0,.23,0,2.088,2.088,0,0,0,.3-.185l2.9-2.047c.161-.119.238-.23.231-.338a1.19,1.19,0,0,0-.251-.5l.317-.221,1.312,1.236-3.889,2.746a2.112,2.112,0,0,0-.275.223.27.27,0,0,0-.075.217.7.7,0,0,0,.145.325l.07.1Z" transform="translate(-396.192 -2613.986)" fill="#053a7a"/>
        <path id="Path_426" data-name="Path 426" d="M417.185,2670.47a2.871,2.871,0,0,1-.978.55,2.544,2.544,0,0,1-.979.115,2.282,2.282,0,0,1-.83-.218,4.81,4.81,0,0,1-1.517-1.262l-1.656-1.977.291-.246a1.583,1.583,0,0,0,.4.37.374.374,0,0,0,.313.049,1.146,1.146,0,0,0,.337-.206l2.733-2.294a.732.732,0,0,0,.3-.448,1.063,1.063,0,0,0-.329-.624l.3-.251.8.913c.025.032.136.161.329.386s.308.354.341.391a8.689,8.689,0,0,1,.7.953,4.036,4.036,0,0,1,.387.839,2.561,2.561,0,0,1,.119.794,2.76,2.76,0,0,1-.132.8,3.07,3.07,0,0,1-.361.731,3.011,3.011,0,0,1-.576.637m-.847-1.053a3,3,0,0,0,.913-1.2,1.784,1.784,0,0,0,.045-1.229,1.89,1.89,0,0,0-.242-.49c-.107-.153-.272-.366-.5-.633l-3.045,2.553a3.069,3.069,0,0,0-.357.344.34.34,0,0,0-.058.3,1.184,1.184,0,0,0,.263.436,1.522,1.522,0,0,0,1.464.641,3.123,3.123,0,0,0,1.516-.724" transform="translate(-395.713 -2613.422)" fill="#053a7a"/>
        <path id="Path_427" data-name="Path 427" d="M418.086,2672.26l-1.792-1.837c-.032.042-.111.123-.223.251a2,2,0,0,0-.3.456.988.988,0,0,0-.091.559,1,1,0,0,0,.316.591,1.685,1.685,0,0,0,.453.3,1.192,1.192,0,0,0,.69.087l.066.386a1.716,1.716,0,0,1-1.657-.571,2.68,2.68,0,0,1-.509-.724,2.046,2.046,0,0,1-.194-.744,1.721,1.721,0,0,1,.535-1.31,1.863,1.863,0,0,1,.843-.478,1.762,1.762,0,0,1,.974.025,2.108,2.108,0,0,1,.909.563,1.873,1.873,0,0,1,.5.864,1.567,1.567,0,0,1-.053.864,1.906,1.906,0,0,1-.465.715m-.448-1.007c.452-.444.506-.841.157-1.2a.648.648,0,0,0-.576-.218,1.233,1.233,0,0,0-.641.329Z" transform="translate(-394.646 -2611.904)" fill="#053a7a"/>
        <path id="Path_428" data-name="Path 428" d="M421.078,2673.65a.341.341,0,0,0-.3-.111,3.349,3.349,0,0,0-.526.159l-2.639,1.015-.429-.4.814-3a1.179,1.179,0,0,0,.062-.353.794.794,0,0,0-.174-.246l.259-.28,1.5,1.378-.255.283a1.173,1.173,0,0,0-.267-.189.125.125,0,0,0-.164.025.647.647,0,0,0-.1.234l-.506,1.833,1.739-.667a.637.637,0,0,0,.234-.131.135.135,0,0,0,.029-.173,1.073,1.073,0,0,0-.214-.238l.259-.284.934.854Z" transform="translate(-393.955 -2611.531)" fill="#053a7a"/>
        <path id="Path_429" data-name="Path 429" d="M422.332,2675.89l-1.977-1.629c-.032.041-.1.132-.2.276a1.834,1.834,0,0,0-.242.485,1,1,0,0,0-.034.564,1.041,1.041,0,0,0,.382.554,1.623,1.623,0,0,0,.482.251,1.152,1.152,0,0,0,.7.01l.11.378a1.7,1.7,0,0,1-1.705-.383,2.629,2.629,0,0,1-.588-.662,1.965,1.965,0,0,1-.272-.724,1.664,1.664,0,0,1,.041-.715,1.758,1.758,0,0,1,.346-.645,1.839,1.839,0,0,1,.777-.569,1.819,1.819,0,0,1,.974-.083,2.084,2.084,0,0,1,.962.461,1.8,1.8,0,0,1,.588.8,1.5,1.5,0,0,1,.045.858,1.876,1.876,0,0,1-.386.765m-.552-.954q.6-.734.021-1.208a.635.635,0,0,0-.592-.153,1.232,1.232,0,0,0-.6.4Z" transform="translate(-393.432 -2610.788)" fill="#053a7a"/>
        <path id="Path_430" data-name="Path 430" d="M422.466,2678.63l-1.916-1.444.23-.3.14.107a.763.763,0,0,0,.325.16.3.3,0,0,0,.221-.071,2.232,2.232,0,0,0,.23-.267l2.138-2.841c.119-.161.157-.289.115-.391a1.165,1.165,0,0,0-.391-.4l.23-.3,1.631.773-2.864,3.807a2.265,2.265,0,0,0-.194.3.266.266,0,0,0,0,.229.7.7,0,0,0,.238.268l.1.07Z" transform="translate(-392.965 -2610.812)" fill="#053a7a"/>
        <path id="Path_431" data-name="Path 431" d="M426.179,2678.7a1.758,1.758,0,0,1-1.763.772,2.352,2.352,0,0,1-.975-.4,2.472,2.472,0,0,1-.707-.727,1.819,1.819,0,0,1-.284-.945,1.7,1.7,0,0,1,.329-1.011,1.611,1.611,0,0,1,1.283-.788,2.315,2.315,0,0,1,1.475.439,2.26,2.26,0,0,1,.765.822,1.736,1.736,0,0,1,.193.946,1.8,1.8,0,0,1-.316.887m-.937-.669a2.346,2.346,0,0,0,.444-.987.744.744,0,0,0-.4-.707.852.852,0,0,0-.535-.177.838.838,0,0,0-.5.247,3.825,3.825,0,0,0-.543.658,2.7,2.7,0,0,0-.444.953.723.723,0,0,0,.395.748.738.738,0,0,0,.6.144,1.054,1.054,0,0,0,.518-.3,4.458,4.458,0,0,0,.461-.575" transform="translate(-392.405 -2610.011)" fill="#053a7a"/>
        <path id="Path_432" data-name="Path 432" d="M429.712,2680.55a1.911,1.911,0,0,1-.69.7,1.776,1.776,0,0,1-.921.268,1.815,1.815,0,0,1-.95-.263,1.616,1.616,0,0,1-.752-.979l-.678,1.147a1.635,1.635,0,0,0-.151.323.274.274,0,0,0,.029.227.769.769,0,0,0,.263.226l.2.115-.193.333-2.088-1.234.193-.329a1.189,1.189,0,0,0,.378.165.249.249,0,0,0,.221-.057,1.525,1.525,0,0,0,.227-.312l1.657-2.816a1.446,1.446,0,0,0,.148-.317.269.269,0,0,0-.058-.218,1.312,1.312,0,0,0-.333-.251l.2-.328,1.578.514a2.122,2.122,0,0,1-.219.485,1.876,1.876,0,0,1,.7-.058,1.8,1.8,0,0,1,.646.234,1.773,1.773,0,0,1,.567.51,1.561,1.561,0,0,1,.271.625,1.8,1.8,0,0,1,0,.666,1.832,1.832,0,0,1-.234.625m-.97-.618c.435-.735.395-1.257-.123-1.557a.9.9,0,0,0-.548-.127,1.586,1.586,0,0,0-.567.144l-.834,1.418a1.181,1.181,0,0,0,.168.55,1.059,1.059,0,0,0,.386.4q.765.45,1.517-.826" transform="translate(-392.014 -2609.613)" fill="#053a7a"/>
        <path id="Path_433" data-name="Path 433" d="M434.818,2685.02l-2.092-.987.161-.346a.929.929,0,0,0,.4.115.267.267,0,0,0,.21-.1,1.632,1.632,0,0,0,.181-.32l.537-1.143a1.063,1.063,0,0,0,.107-.51c-.008-.176-.144-.329-.41-.452a.926.926,0,0,0-.556-.091,1.029,1.029,0,0,0-.5.238,1.5,1.5,0,0,0-.374.5l-.342.731a1.452,1.452,0,0,0-.131.35.28.28,0,0,0,.07.23,1.139,1.139,0,0,0,.353.229l-.161.35-2.052-.966.16-.35a.886.886,0,0,0,.391.115.249.249,0,0,0,.214-.1,1.716,1.716,0,0,0,.181-.317l.558-1.187a.6.6,0,0,0,.034-.612.934.934,0,0,0-.333-.3,1.131,1.131,0,0,0-.523-.1.91.91,0,0,0-.484.14.86.86,0,0,0-.234.217,1.819,1.819,0,0,0-.181.321l-.374.794a1.442,1.442,0,0,0-.131.354.251.251,0,0,0,.074.225,1.056,1.056,0,0,0,.353.235l-.164.35-2.06-.974.161-.345a1.1,1.1,0,0,0,.395.119.28.28,0,0,0,.214-.095,2.069,2.069,0,0,0,.185-.325l.608-1.291q.165-.357-.293-.567l-.193-.094.164-.346,1.747.429a4.745,4.745,0,0,1-.242.583,2.476,2.476,0,0,1,.765-.152,1.635,1.635,0,0,1,.764.172,2,2,0,0,1,.637.473,1.085,1.085,0,0,1,.255.769,2.037,2.037,0,0,1,.913-.23,1.817,1.817,0,0,1,.715.177,1.486,1.486,0,0,1,.79.715,1.2,1.2,0,0,1-.087,1.02l-.546,1.167a2.154,2.154,0,0,0-.132.329.286.286,0,0,0,.041.228.7.7,0,0,0,.293.214l.131.062Z" transform="translate(-390.858 -2609.091)" fill="#053a7a"/>
        <path id="Path_434" data-name="Path 434" d="M437.19,2683.7l-2.406-.888c-.012.049-.044.16-.093.325a2.017,2.017,0,0,0-.075.537.974.974,0,0,0,.7.942,1.621,1.621,0,0,0,.539.078,1.146,1.146,0,0,0,.662-.218l.227.32a1.711,1.711,0,0,1-1.739.2,2.63,2.63,0,0,1-.773-.433,2,2,0,0,1-.493-.592,1.628,1.628,0,0,1-.193-.69,1.705,1.705,0,0,1,.11-.723,1.856,1.856,0,0,1,.552-.794,1.814,1.814,0,0,1,.892-.4,2.109,2.109,0,0,1,1.064.123,1.764,1.764,0,0,1,.818.569,1.527,1.527,0,0,1,.325.8,1.939,1.939,0,0,1-.115.848m-.835-.72c.219-.592.094-.979-.374-1.151a.652.652,0,0,0-.612.053,1.217,1.217,0,0,0-.439.571Z" transform="translate(-389.136 -2608.319)" fill="#053a7a"/>
        <path id="Path_435" data-name="Path 435" d="M440.342,2686.54l-2.068-.621.111-.365a.734.734,0,0,0,.357.036.282.282,0,0,0,.181-.144,2,2,0,0,0,.14-.385l.341-1.13a1.214,1.214,0,0,0,.062-.567c-.025-.153-.144-.259-.35-.321a.729.729,0,0,0-.719.132,1.417,1.417,0,0,0-.429.682l-.271.892a.784.784,0,0,0-.038.459c.038.094.161.174.363.235l-.111.37-2.109-.637.111-.366a1.227,1.227,0,0,0,.4.07.27.27,0,0,0,.21-.115,1.3,1.3,0,0,0,.155-.361l.387-1.291a.475.475,0,0,0,0-.4.879.879,0,0,0-.452-.23l.11-.369,1.657.123a3.074,3.074,0,0,1-.1.444c-.013.032-.021.066-.028.086s-.021.054-.03.086a2.859,2.859,0,0,1,.654-.28,1.329,1.329,0,0,1,.732.038,1.456,1.456,0,0,1,.58.308,1,1,0,0,1,.316.5,1.15,1.15,0,0,1-.028.654l-.4,1.348a.909.909,0,0,0-.049.486c.038.1.177.189.423.262Z" transform="translate(-388.469 -2608.09)" fill="#053a7a"/>
        <path id="Path_436" data-name="Path 436" d="M441.946,2686.35a1.669,1.669,0,0,1-.669.535,1.24,1.24,0,0,1-.735.028,1.1,1.1,0,0,1-.658-.365.82.82,0,0,1-.173-.5,2.706,2.706,0,0,1,.083-.554l.465-1.907-.614-.149.091-.374a1.457,1.457,0,0,0,.7.017,1.176,1.176,0,0,0,.546-.284,1.431,1.431,0,0,0,.338-.477l.329.078-.259,1.068,1.146.28-.089.374-1.147-.28-.469,1.932a1.7,1.7,0,0,0-.078.519.216.216,0,0,0,.189.214.413.413,0,0,0,.357-.075,2.41,2.41,0,0,0,.333-.32Z" transform="translate(-387.337 -2608.029)" fill="#053a7a"/>
        <path id="Path_437" data-name="Path 437" d="M448.175,2687.09a2,2,0,0,1-.251.614,1.267,1.267,0,0,1-.464.456,1,1,0,0,1-.678.106,1.142,1.142,0,0,1-.374-.119,1.5,1.5,0,0,1-.37-.283,4.262,4.262,0,0,1-.465-.564,3.01,3.01,0,0,1-.928.449,2.062,2.062,0,0,1-.843.065,1.57,1.57,0,0,1-.773-.336,1.488,1.488,0,0,1-.46-.637,1.459,1.459,0,0,1-.083-.761,1.712,1.712,0,0,1,.612-1.057,2.775,2.775,0,0,1,.937-.517,5,5,0,0,1-.221-.694,1.749,1.749,0,0,1-.013-.622,1.3,1.3,0,0,1,.206-.546,1.172,1.172,0,0,1,.37-.358,1.45,1.45,0,0,1,.464-.172,1.492,1.492,0,0,1,.493-.009,1.2,1.2,0,0,1,.6.259,1.073,1.073,0,0,1,.341.469,1.006,1.006,0,0,1,.062.535,1.163,1.163,0,0,1-.366.662,2.07,2.07,0,0,1-.838.489l1.015,1.862a5.28,5.28,0,0,0,.5-.518,1.156,1.156,0,0,0,.263-.539.516.516,0,0,0-.045-.242c-.041-.1-.148-.16-.329-.189l.062-.378,1.69.262-.058.378a1.087,1.087,0,0,0-.386.082,1.131,1.131,0,0,0-.284.2c-.087.082-.238.246-.448.489l-.223.259a5.016,5.016,0,0,1-.542.537,3.075,3.075,0,0,0,.378.593.809.809,0,0,0,.461.308.424.424,0,0,0,.221-.025.505.505,0,0,0,.215-.189,1.13,1.13,0,0,0,.168-.374Zm-2.8-.114-1.16-2.109a1.083,1.083,0,0,0-.756.826,1.317,1.317,0,0,0,.066.645,1.492,1.492,0,0,0,.361.576,1.015,1.015,0,0,0,.563.291,1.036,1.036,0,0,0,.478-.036,2.577,2.577,0,0,0,.448-.193m.4-3.712a.8.8,0,0,0-.013-.328.611.611,0,0,0-.159-.272.586.586,0,0,0-.733-.037.569.569,0,0,0-.2.349,2,2,0,0,0,.287,1.185,3.087,3.087,0,0,0,.555-.367.846.846,0,0,0,.267-.53" transform="translate(-386.505 -2608.097)" fill="#053a7a"/>
        <path id="Path_438" data-name="Path 438" d="M452.134,2686.91a1.512,1.512,0,0,1-.144.552,1.9,1.9,0,0,1-.37.542,1.726,1.726,0,0,1-.6.407,1.8,1.8,0,0,1-.8.123,2.236,2.236,0,0,1-.884-.242,2.019,2.019,0,0,1-.72-.625,2.259,2.259,0,0,0-.2.56l-.382-.021.106-1.932.382.021a3.963,3.963,0,0,0,.243.8,1.821,1.821,0,0,0,.484.658,1.277,1.277,0,0,0,.807.308.982.982,0,0,0,.694-.193.753.753,0,0,0,.287-.576.694.694,0,0,0-.061-.354.761.761,0,0,0-.214-.278,2.59,2.59,0,0,0-.4-.28c-.168-.1-.363-.206-.58-.317a4.778,4.778,0,0,1-.809-.535,2.159,2.159,0,0,1-.473-.5,1.581,1.581,0,0,1-.21-.452,1.361,1.361,0,0,1-.041-.424,1.512,1.512,0,0,1,.242-.735,1.617,1.617,0,0,1,.633-.572,1.7,1.7,0,0,1,.921-.185,1.652,1.652,0,0,1,.745.219,1.982,1.982,0,0,1,.6.518,2.794,2.794,0,0,0,.16-.486l.395.024-.087,1.571-.394-.021q-.345-1.307-1.378-1.365a.889.889,0,0,0-.612.165.652.652,0,0,0-.255.5.7.7,0,0,0,.119.437,1.261,1.261,0,0,0,.353.329c.153.094.395.229.728.41q.61.334.95.567a2.173,2.173,0,0,1,.567.576,1.323,1.323,0,0,1,.2.809" transform="translate(-384.865 -2607.932)" fill="#053a7a"/>
        <path id="Path_439" data-name="Path 439" d="M455.37,2686.25a1.722,1.722,0,0,1-1,1.639,2.342,2.342,0,0,1-1.023.234,2.483,2.483,0,0,1-1-.193,1.854,1.854,0,0,1-.773-.613,1.717,1.717,0,0,1-.308-1.019,1.631,1.631,0,0,1,.6-1.382,2.346,2.346,0,0,1,1.463-.481,2.208,2.208,0,0,1,1.094.239,1.669,1.669,0,0,1,.7.662,1.846,1.846,0,0,1,.247.913m-1.151-.013a2.39,2.39,0,0,0-.2-1.068.756.756,0,0,0-.737-.35.728.728,0,0,0-.8.649,3.765,3.765,0,0,0-.07.847,2.663,2.663,0,0,0,.181,1.036.73.73,0,0,0,.752.391.741.741,0,0,0,.575-.227,1.035,1.035,0,0,0,.247-.542,4.15,4.15,0,0,0,.049-.736" transform="translate(-383.912 -2607.407)" fill="#053a7a"/>
        <path id="Path_440" data-name="Path 440" d="M456.714,2688.35l-2.257.131-.025-.385.119,0a.682.682,0,0,0,.35-.085.283.283,0,0,0,.123-.2,1.513,1.513,0,0,0,0-.353l-.07-1.237a1.476,1.476,0,0,0-.049-.366.251.251,0,0,0-.172-.147,1.42,1.42,0,0,0-.444-.029l-.021-.384,1.686-.456.148,2.557a.894.894,0,0,0,.115.473c.062.081.219.119.473.1Zm-.765-5.146a.576.576,0,0,1-.155.439.612.612,0,0,1-1.056-.368.583.583,0,0,1,.155-.44.6.6,0,0,1,1.056.37" transform="translate(-383.025 -2607.94)" fill="#053a7a"/>
        <path id="Path_441" data-name="Path 441" d="M458.385,2688.2l-2.389.206-.032-.378.176-.017a.745.745,0,0,0,.346-.1.265.265,0,0,0,.119-.2,1.959,1.959,0,0,0,0-.357l-.312-3.54c-.017-.2-.075-.321-.173-.366a1.161,1.161,0,0,0-.554-.036l-.034-.382,1.727-.51.414,4.744a2.741,2.741,0,0,0,.054.35.272.272,0,0,0,.152.172.633.633,0,0,0,.353.037l.123-.009Z" transform="translate(-382.655 -2607.97)" fill="#053a7a"/>
        <path id="Path_442" data-name="Path 442" d="M462.925,2686.15a1.065,1.065,0,0,1-.045.552.827.827,0,0,1-.293.382,1.17,1.17,0,0,1-.473.182,1.012,1.012,0,0,1-.6-.075.635.635,0,0,1-.338-.344,2.26,2.26,0,0,1-1.3.763,1.2,1.2,0,0,1-.765-.1.7.7,0,0,1-.369-.526.929.929,0,0,1,.07-.555,1.428,1.428,0,0,1,.382-.489,3.561,3.561,0,0,1,.65-.44c.259-.135.583-.288.974-.452l-.038-.238a.729.729,0,0,0-.208-.436.642.642,0,0,0-.535-.09.676.676,0,0,0-.44.2.714.714,0,0,0-.123.429.72.72,0,0,1-.07.329.44.44,0,0,1-.35.176.472.472,0,0,1-.321-.049.353.353,0,0,1-.18-.272.817.817,0,0,1,.316-.731,2.3,2.3,0,0,1,1.234-.485,1.932,1.932,0,0,1,1.291.115,1.038,1.038,0,0,1,.467.76l.2,1.3c.025.164.049.284.066.363a.337.337,0,0,0,.095.164.251.251,0,0,0,.357-.111.455.455,0,0,0,.038-.28Zm-1.882.325-.161-1.019a2.47,2.47,0,0,0-.921.637.716.716,0,0,0-.14.5.4.4,0,0,0,.164.284.436.436,0,0,0,.341.066.83.83,0,0,0,.387-.156,2.847,2.847,0,0,0,.329-.309" transform="translate(-381.765 -2607.584)" fill="#053a7a"/>
        <path id="Path_443" data-name="Path 443" d="M466.512,2686.28l-2.109.465-.083-.378a.7.7,0,0,0,.334-.136.288.288,0,0,0,.085-.214,2.249,2.249,0,0,0-.066-.41l-.25-1.151a1.358,1.358,0,0,0-.223-.527.424.424,0,0,0-.46-.106.729.729,0,0,0-.567.463,1.393,1.393,0,0,0-.041.8l.2.911a.743.743,0,0,0,.189.42.515.515,0,0,0,.429.028l.082.374-2.149.473-.083-.373a1.214,1.214,0,0,0,.382-.132.262.262,0,0,0,.128-.206,1.285,1.285,0,0,0-.042-.385l-.287-1.315c-.045-.189-.107-.308-.194-.35a.9.9,0,0,0-.509.021l-.083-.374,1.508-.7a2.945,2.945,0,0,1,.132.431c.009.037.017.066.021.091a.748.748,0,0,0,.017.09,2.7,2.7,0,0,1,.435-.563,1.308,1.308,0,0,1,.654-.325,1.561,1.561,0,0,1,.658-.016,1.015,1.015,0,0,1,.522.288,1.2,1.2,0,0,1,.3.584l.3,1.372a.853.853,0,0,0,.193.448c.082.07.246.079.5.025Z" transform="translate(-380.985 -2607.783)" fill="#053a7a"/>
        <path id="Path_444" data-name="Path 444" d="M469.9,2685.73a9.964,9.964,0,0,0-1.5.633,1.348,1.348,0,0,1-.193-.4,1.806,1.806,0,0,1-1,.752,1.729,1.729,0,0,1-.945.008,1.938,1.938,0,0,1-1.414-1.969,1.668,1.668,0,0,1,.16-.652,1.571,1.571,0,0,1,.435-.559,1.889,1.889,0,0,1,.707-.363,1.793,1.793,0,0,1,.552-.081,1.44,1.44,0,0,1,.4.074,2.466,2.466,0,0,1,.333.156l-.382-1.312a1.148,1.148,0,0,0-.157-.374.242.242,0,0,0-.21-.1,2.209,2.209,0,0,0-.41.078l-.107-.371,1.542-.822,1.31,4.481a2.317,2.317,0,0,0,.14.395.254.254,0,0,0,.194.119,1.543,1.543,0,0,0,.435-.062Zm-1.842-.284-.473-1.62a2.4,2.4,0,0,0-.509-.259.964.964,0,0,0-.6,0,.706.706,0,0,0-.337.214.9.9,0,0,0-.2.357,1.948,1.948,0,0,0,.1.987,1.709,1.709,0,0,0,.543.924.781.781,0,0,0,.719.157,1.056,1.056,0,0,0,.461-.28,1.326,1.326,0,0,0,.3-.476" transform="translate(-379.91 -2608.59)" fill="#053a7a"/>
        <path id="Path_445" data-name="Path 445" d="M475.632,2678.19a1.2,1.2,0,0,0-.37.263.508.508,0,0,0-.1.325,5.114,5.114,0,0,0,.057.7l.612,4.464-.533.221-2.914-3.177.337,4.271-.526.221-2.948-3.6a3.981,3.981,0,0,0-.427-.461.521.521,0,0,0-.312-.144.852.852,0,0,0-.366.091l-.148-.353,2.253-.954.148.353a1.389,1.389,0,0,0-.37.206c-.07.062-.078.156-.025.279a1.889,1.889,0,0,0,.263.378l1.863,2.281-.321-4.16.5-.214,2.829,3.1-.383-2.718a1.858,1.858,0,0,0-.1-.431c-.078-.189-.189-.284-.324-.284a1.313,1.313,0,0,0-.486.1l-.148-.35,1.783-.756Z" transform="translate(-378.981 -2609.353)" fill="#053a7a"/>
        <path id="Path_446" data-name="Path 446" d="M478.6,2680.26a1.082,1.082,0,0,1,.132.539.76.76,0,0,1-.157.452,1.092,1.092,0,0,1-.386.321.971.971,0,0,1-.6.123.625.625,0,0,1-.429-.217,2.255,2.255,0,0,1-.987,1.143,1.169,1.169,0,0,1-.756.144.683.683,0,0,1-.518-.378.96.96,0,0,1-.115-.548,1.494,1.494,0,0,1,.206-.588,3.627,3.627,0,0,1,.476-.62c.2-.214.461-.461.773-.744l-.106-.214a.713.713,0,0,0-.342-.345.638.638,0,0,0-.535.086.685.685,0,0,0-.348.333.738.738,0,0,0,.019.448.69.69,0,0,1,.038.334c-.013.1-.107.193-.272.283a.517.517,0,0,1-.32.053.346.346,0,0,1-.255-.2.805.805,0,0,1,.061-.792,2.345,2.345,0,0,1,1.011-.856,1.96,1.96,0,0,1,1.262-.309,1.051,1.051,0,0,1,.686.576l.609,1.167c.079.149.136.255.181.321a.266.266,0,0,0,.144.123.237.237,0,0,0,.185-.024.255.255,0,0,0,.115-.189.464.464,0,0,0-.053-.28Zm-1.684.913-.478-.917a2.47,2.47,0,0,0-.666.9.717.717,0,0,0,.025.514.439.439,0,0,0,.247.219.463.463,0,0,0,.344-.045.876.876,0,0,0,.317-.272,2.8,2.8,0,0,0,.21-.4" transform="translate(-377.196 -2609.102)" fill="#053a7a"/>
        <path id="Path_447" data-name="Path 447" d="M480.1,2679.62a1.687,1.687,0,0,1-.11.851,1.228,1.228,0,0,1-.506.53,1.114,1.114,0,0,1-.728.2.815.815,0,0,1-.473-.243,2.44,2.44,0,0,1-.329-.452l-.994-1.7-.542.322-.194-.334a1.451,1.451,0,0,0,.518-.476,1.2,1.2,0,0,0,.194-.58,1.371,1.371,0,0,0-.091-.579l.3-.174.555.95,1.019-.6.194.329-1.02.6,1.007,1.718a2.034,2.034,0,0,0,.3.427.217.217,0,0,0,.284.017.4.4,0,0,0,.206-.3,2.38,2.38,0,0,0,.021-.465Z" transform="translate(-376.556 -2609.602)" fill="#053a7a"/>
        <path id="Path_448" data-name="Path 448" d="M481.781,2677.03l-2.151,1.4c.028.042.1.131.2.267a1.914,1.914,0,0,0,.39.383,1.007,1.007,0,0,0,.531.2,1.021,1.021,0,0,0,.641-.2,1.618,1.618,0,0,0,.387-.383,1.186,1.186,0,0,0,.217-.661l.39.009a1.693,1.693,0,0,1-.879,1.512,2.563,2.563,0,0,1-.8.361,1.979,1.979,0,0,1-.773.045,1.6,1.6,0,0,1-.666-.259,1.7,1.7,0,0,1-.514-.518,1.9,1.9,0,0,1-.308-.917,1.812,1.812,0,0,1,.214-.952,2.137,2.137,0,0,1,.732-.782,1.83,1.83,0,0,1,.945-.32,1.563,1.563,0,0,1,.835.218,1.946,1.946,0,0,1,.612.6m-1.077.243c-.346-.531-.728-.658-1.147-.387a.66.66,0,0,0-.325.527,1.236,1.236,0,0,0,.2.69Z" transform="translate(-375.902 -2609.829)" fill="#053a7a"/>
        <path id="Path_449" data-name="Path 449" d="M483.366,2674.7a.492.492,0,0,1-.1.711.514.514,0,0,1-.473.057,1.036,1.036,0,0,0-.2-.04.23.23,0,0,0-.153.053.563.563,0,0,0-.2.584,1.567,1.567,0,0,0,.284.7l.427.588a.912.912,0,0,0,.353.334c.1.032.25-.025.46-.174l.177-.131.227.312-2.092,1.521-.227-.308.172-.128c.189-.14.28-.259.272-.362a1.057,1.057,0,0,0-.217-.432l-.716-.982a.93.93,0,0,0-.28-.292.294.294,0,0,0-.259-.011,2.02,2.02,0,0,0-.4.246l-.225-.312,1.1-1.246a5.379,5.379,0,0,1,.629.662,1.734,1.734,0,0,1-.021-.543,1.694,1.694,0,0,1,.153-.518,1.026,1.026,0,0,1,.316-.387.76.76,0,0,1,.552-.159.6.6,0,0,1,.435.259" transform="translate(-375.383 -2610.353)" fill="#053a7a"/>
        <path id="Path_450" data-name="Path 450" d="M489.357,2674.01l-.3.255a1.862,1.862,0,0,0-.641-.292,3.157,3.157,0,0,1-.172.9,2.174,2.174,0,0,1-.675.905,2.821,2.821,0,0,1-1.312.653,2.777,2.777,0,0,1-1.463-.1,2.912,2.912,0,0,1-1.278-.871,3.072,3.072,0,0,1-.584-.99,2.814,2.814,0,0,1,.106-2.2,2.95,2.95,0,0,1,.737-.953,2.362,2.362,0,0,1,1.775-.629,2.484,2.484,0,0,0-.21-.51l.284-.246,1.419,1.52-.3.264a2.486,2.486,0,0,0-.913-.453,2,2,0,0,0-.921-.032,1.614,1.614,0,0,0-.76.375,1.474,1.474,0,0,0-.474.756,1.71,1.71,0,0,0,.079.99,3.492,3.492,0,0,0,.711,1.143,3.983,3.983,0,0,0,.983.851,2.028,2.028,0,0,0,.847.3,1.484,1.484,0,0,0,.637-.083,1.5,1.5,0,0,0,.435-.259,1.588,1.588,0,0,0,.514-.815,2.318,2.318,0,0,0,.054-.966,2.668,2.668,0,0,0-.284-.855l.3-.263Z" transform="translate(-374.628 -2611.681)" fill="#053a7a"/>
        <path id="Path_451" data-name="Path 451" d="M490.158,2669.82a1.761,1.761,0,0,1,.51.888,1.819,1.819,0,0,1-.062.983,2.372,2.372,0,0,1-.563.887,2.464,2.464,0,0,1-.843.568,1.8,1.8,0,0,1-.978.11,1.7,1.7,0,0,1-.941-.5,1.607,1.607,0,0,1-.544-1.4,2.335,2.335,0,0,1,.7-1.376,2.192,2.192,0,0,1,.941-.6,1.69,1.69,0,0,1,.966-.025,1.829,1.829,0,0,1,.818.473m-.826.8a2.393,2.393,0,0,0-.892-.616.747.747,0,0,0-.769.271.837.837,0,0,0-.267.493.86.86,0,0,0,.155.535,3.81,3.81,0,0,0,.552.65,2.625,2.625,0,0,0,.858.6.719.719,0,0,0,.807-.255.749.749,0,0,0,.25-.562,1.052,1.052,0,0,0-.21-.564,4.243,4.243,0,0,0-.484-.555" transform="translate(-373.461 -2611.87)" fill="#053a7a"/>
        <path id="Path_452" data-name="Path 452" d="M493.972,2668.19l-1.41,1.636-.291-.251a.7.7,0,0,0,.181-.308.275.275,0,0,0-.058-.222,2.488,2.488,0,0,0-.3-.292l-.9-.769a1.289,1.289,0,0,0-.489-.288.437.437,0,0,0-.436.189.732.732,0,0,0-.172.712,1.42,1.42,0,0,0,.448.669l.707.608a.747.747,0,0,0,.4.221c.1,0,.223-.074.363-.234l.291.251-1.439,1.669-.293-.251a1.267,1.267,0,0,0,.227-.337.269.269,0,0,0-.017-.238,1.383,1.383,0,0,0-.271-.287l-1.02-.88c-.148-.127-.267-.182-.361-.165a.954.954,0,0,0-.4.321l-.291-.247.788-1.463a3.1,3.1,0,0,1,.366.263c.029.025.049.045.07.066s.041.037.066.058a2.547,2.547,0,0,1,.012-.712,1.342,1.342,0,0,1,.329-.654,1.518,1.518,0,0,1,.518-.4,1,1,0,0,1,.588-.082,1.174,1.174,0,0,1,.588.291l1.066.917a.833.833,0,0,0,.423.238c.106.013.242-.082.41-.279Z" transform="translate(-372.95 -2612.617)" fill="#053a7a"/>
        <path id="Path_453" data-name="Path 453" d="M494.523,2665.61a.925.925,0,0,1,.357.543,1.3,1.3,0,0,1-.049.7,2.657,2.657,0,0,1-.42.764,3.438,3.438,0,0,1-.452.49,2.392,2.392,0,0,1-.51.346l.091.271-.2.259-.883-.624.21-.28a.986.986,0,0,0,.658-.03,1.717,1.717,0,0,0,.756-.624,3.316,3.316,0,0,0,.189-.284.9.9,0,0,0,.111-.358.35.35,0,0,0-.153-.329.279.279,0,0,0-.321-.03,3.7,3.7,0,0,0-.558.391c-.313.246-.576.44-.794.58a1.71,1.71,0,0,1-.675.267.908.908,0,0,1-1-1.015,2.179,2.179,0,0,1,.488-1.119,2.86,2.86,0,0,1,.506-.539,2.707,2.707,0,0,1,.407-.266l-.106-.21.2-.266.769.588-.206.271a.667.667,0,0,0-.374-.025,1.188,1.188,0,0,0-.435.214,2.142,2.142,0,0,0-.44.448,2.763,2.763,0,0,0-.3.5c-.087.181-.066.317.062.412a.21.21,0,0,0,.155.053.484.484,0,0,0,.214-.085,4.5,4.5,0,0,0,.4-.3c.189-.148.3-.239.333-.267a4.415,4.415,0,0,1,1.011-.629.918.918,0,0,1,.962.185" transform="translate(-372.238 -2613.359)" fill="#053a7a"/>
        <path id="Path_454" data-name="Path 454" d="M495.4,2662.64l-1.44,2.121c.041.025.14.083.293.168a2.007,2.007,0,0,0,.5.2.984.984,0,0,0,.567-.021,1.012,1.012,0,0,0,.514-.431,1.46,1.46,0,0,0,.21-.5,1.169,1.169,0,0,0-.053-.695l.365-.144a1.7,1.7,0,0,1-.229,1.734,2.5,2.5,0,0,1-.6.646,1.894,1.894,0,0,1-.7.336,1.6,1.6,0,0,1-.715.025,1.77,1.77,0,0,1-.675-.283,1.83,1.83,0,0,1-.633-.728,1.783,1.783,0,0,1-.172-.962,2.023,2.023,0,0,1,.374-1,1.778,1.778,0,0,1,.743-.661,1.566,1.566,0,0,1,.856-.124,1.939,1.939,0,0,1,.794.317m-.9.637c-.526-.353-.928-.329-1.208.087a.643.643,0,0,0-.094.607,1.181,1.181,0,0,0,.448.563Z" transform="translate(-371.722 -2613.928)" fill="#053a7a"/>
        <path id="Path_455" data-name="Path 455" d="M495.911,2659.92a.51.51,0,0,1,.246.325.487.487,0,0,1-.061.37.529.529,0,0,1-.416.238,1.07,1.07,0,0,0-.2.036.28.28,0,0,0-.124.107.56.56,0,0,0,.041.616,1.5,1.5,0,0,0,.531.535l.62.378a.934.934,0,0,0,.457.172c.1-.008.221-.119.353-.337l.114-.189.329.2-1.344,2.217-.329-.2.115-.185c.119-.2.157-.346.107-.435a1.007,1.007,0,0,0-.366-.317l-1.04-.629a.981.981,0,0,0-.37-.159.281.281,0,0,0-.242.089,1.918,1.918,0,0,0-.276.378l-.329-.2.539-1.574a5.35,5.35,0,0,1,.835.37,1.738,1.738,0,0,1-.227-.5,1.588,1.588,0,0,1-.062-.533,1.028,1.028,0,0,1,.144-.473.743.743,0,0,1,.444-.366.626.626,0,0,1,.506.07" transform="translate(-371.395 -2614.66)" fill="#053a7a"/>
        <path id="Path_456" data-name="Path 456" d="M497.3,2657.18a.347.347,0,0,0-.028.316,2.68,2.68,0,0,0,.287.465l1.648,2.3-.274.513-3.113-.028a1.27,1.27,0,0,0-.353.028.754.754,0,0,0-.2.23l-.338-.18.958-1.8.337.176a1.286,1.286,0,0,0-.114.3.125.125,0,0,0,.065.153.639.639,0,0,0,.251.042l1.9.02-1.085-1.513a.687.687,0,0,0-.185-.193.139.139,0,0,0-.176.017,1.11,1.11,0,0,0-.177.267l-.337-.182.592-1.113Z" transform="translate(-371.04 -2615.494)" fill="#053a7a"/>
        <path id="Path_457" data-name="Path 457" d="M500.348,2655.13a1.075,1.075,0,0,1,.435.346.8.8,0,0,1,.157.452,1.119,1.119,0,0,1-.111.493,1.007,1.007,0,0,1-.394.465.627.627,0,0,1-.474.086,2.244,2.244,0,0,1-.078,1.5,1.167,1.167,0,0,1-.51.58.671.671,0,0,1-.641.021.979.979,0,0,1-.423-.361,1.467,1.467,0,0,1-.2-.593,3.739,3.739,0,0,1-.005-.785q.045-.431.157-1.06l-.214-.1a.689.689,0,0,0-.482-.066c-.144.036-.263.168-.369.4a.655.655,0,0,0-.07.477.685.685,0,0,0,.287.341.764.764,0,0,1,.234.242.432.432,0,0,1-.045.39.5.5,0,0,1-.217.24.349.349,0,0,1-.325-.006.819.819,0,0,1-.44-.661,2.322,2.322,0,0,1,.28-1.3,1.931,1.931,0,0,1,.8-1.019,1.074,1.074,0,0,1,.9.032l1.2.55c.153.07.264.119.338.145a.322.322,0,0,0,.193.012.258.258,0,0,0,.127-.136.238.238,0,0,0-.025-.221.422.422,0,0,0-.21-.185Zm-.769,1.755-.941-.432a2.513,2.513,0,0,0,.025,1.119.725.725,0,0,0,.338.391.426.426,0,0,0,.329.024.478.478,0,0,0,.246-.251.807.807,0,0,0,.078-.407,2.323,2.323,0,0,0-.074-.444" transform="translate(-370.549 -2616.045)" fill="#053a7a"/>
        <path id="Path_458" data-name="Path 458" d="M501.2,2653.66a1.665,1.665,0,0,1,.431.741,1.242,1.242,0,0,1-.074.728,1.107,1.107,0,0,1-.456.6.82.82,0,0,1-.522.1,2.673,2.673,0,0,1-.539-.157l-1.822-.731-.234.584-.357-.144a1.476,1.476,0,0,0,.119-.691,1.2,1.2,0,0,0-.206-.58,1.379,1.379,0,0,0-.423-.4l.124-.316,1.023.41.44-1.1.353.144-.44,1.093,1.846.744a1.891,1.891,0,0,0,.5.148.211.211,0,0,0,.234-.16.4.4,0,0,0-.021-.362,2.242,2.242,0,0,0-.267-.378Z" transform="translate(-370.398 -2616.761)" fill="#053a7a"/>
        <path id="Path_459" data-name="Path 459" d="M497.592,2651.25a.608.608,0,1,1-.416,1.143.614.614,0,0,1-.341-.317.591.591,0,0,1-.021-.465.581.581,0,0,1,.312-.344.59.59,0,0,1,.465-.018m5.031,1.327-.773,2.125-.361-.128.041-.114a.7.7,0,0,0,.061-.355.3.3,0,0,0-.131-.193,2,2,0,0,0-.325-.145l-1.164-.423a1.5,1.5,0,0,0-.357-.094.237.237,0,0,0-.2.1,1.375,1.375,0,0,0-.206.4l-.357-.132.246-1.726,2.4.871a.906.906,0,0,0,.482.083q.153-.037.284-.4Z" transform="translate(-370.497 -2617.199)" fill="#053a7a"/>
        <path id="Path_460" data-name="Path 460" d="M501.53,2648.91a1.75,1.75,0,0,1,.86.555,1.785,1.785,0,0,1,.394.9,2.354,2.354,0,0,1-.089,1.045,2.431,2.431,0,0,1-.493.892,1.84,1.84,0,0,1-.818.546,1.7,1.7,0,0,1-1.064-.021,1.621,1.621,0,0,1-1.132-.994,2.362,2.362,0,0,1-.008-1.542,2.219,2.219,0,0,1,.563-.97,1.668,1.668,0,0,1,.847-.461,1.791,1.791,0,0,1,.941.046m-.366,1.09a2.368,2.368,0,0,0-1.076-.136.737.737,0,0,0-.559.588.859.859,0,0,0-.009.564.848.848,0,0,0,.378.4,4.017,4.017,0,0,0,.79.325,2.7,2.7,0,0,0,1.04.148c.287-.032.489-.23.6-.6a.734.734,0,0,0-.038-.618,1.041,1.041,0,0,0-.439-.4,4.141,4.141,0,0,0-.687-.274" transform="translate(-369.826 -2617.902)" fill="#053a7a"/>
        <path id="Path_461" data-name="Path 461" d="M504.055,2645.75l-.5,2.1-.374-.09a.736.736,0,0,0,.021-.358.292.292,0,0,0-.157-.174,2.955,2.955,0,0,0-.394-.119l-1.147-.276a1.282,1.282,0,0,0-.571-.028.438.438,0,0,0-.3.366.723.723,0,0,0,.176.711,1.4,1.4,0,0,0,.7.391l.909.217a.8.8,0,0,0,.46.013c.1-.045.164-.17.219-.374l.369.09-.514,2.137-.373-.085a1.168,1.168,0,0,0,.049-.4.273.273,0,0,0-.128-.206,1.357,1.357,0,0,0-.37-.132l-1.306-.312a.474.474,0,0,0-.4.021.925.925,0,0,0-.206.465l-.37-.091.03-1.661a3.512,3.512,0,0,1,.448.07c.032.009.065.017.089.025s.058.015.087.021a2.769,2.769,0,0,1-.316-.637,1.326,1.326,0,0,1-.009-.731,1.628,1.628,0,0,1,.276-.6.977.977,0,0,1,.484-.341,1.173,1.173,0,0,1,.654-.012l1.37.328a.859.859,0,0,0,.488.021c.1-.041.177-.185.238-.44Z" transform="translate(-369.593 -2618.837)" fill="#053a7a"/>
        <path id="Path_462" data-name="Path 462" d="M503.754,2643.46a1.672,1.672,0,0,1,.716.3,1.452,1.452,0,0,1,.476.6,1.893,1.893,0,0,1,.151.841l-.382-.065a1.649,1.649,0,0,0-.2-.794.742.742,0,0,0-.539-.378.262.262,0,0,0-.153.011.115.115,0,0,0-.078.1.744.744,0,0,0,0,.135.747.747,0,0,1-.008.21.621.621,0,0,1-.251.378.6.6,0,0,1-.476.115.607.607,0,0,1-.44-.281.694.694,0,0,1-.1-.493.729.729,0,0,1,.193-.374.971.971,0,0,1,.44-.275,1.345,1.345,0,0,1,.645-.03" transform="translate(-368.82 -2619.493)" fill="#053a7a"/>
        <path id="Path_463" data-name="Path 463" d="M505.489,2634.03l-.082,2.832-.383-.008a1.432,1.432,0,0,0-.057-.542.378.378,0,0,0-.206-.227,1.166,1.166,0,0,0-.378-.066l-3.544-.1,4.53,2.266-.008.254-4.653,2.027,3.362.1a2.91,2.91,0,0,0,.41-.009.47.47,0,0,0,.242-.086.45.45,0,0,0,.157-.243,2,2,0,0,0,.062-.459l.382.011-.062,2.092-.382-.012a1.765,1.765,0,0,0-.038-.465.424.424,0,0,0-.144-.242.446.446,0,0,0-.234-.1,3.029,3.029,0,0,0-.407-.03l-3.2-.094a2.518,2.518,0,0,0-.518.024.334.334,0,0,0-.243.2,1.449,1.449,0,0,0-.1.567l-.382-.013.057-2.062,4.041-1.764-3.933-1.994.057-2.022.387.011a1,1,0,0,0,.131.678.71.71,0,0,0,.51.164l3.551.1a1.063,1.063,0,0,0,.37-.035.389.389,0,0,0,.227-.227,1.456,1.456,0,0,0,.095-.542Z" transform="translate(-369.661 -2622.313)" fill="#053a7a"/>
        <path id="Path_464" data-name="Path 464" d="M502.152,2629.12a2.963,2.963,0,0,1,1.468.251,2.742,2.742,0,0,1,1.167.994,3.362,3.362,0,0,1,.539,1.661,3.538,3.538,0,0,1-.144,1.427,2.774,2.774,0,0,1-.608,1.043,2.837,2.837,0,0,1-.9.646,3.013,3.013,0,0,1-2.47.032,2.648,2.648,0,0,1-1.164-.979,3.338,3.338,0,0,1-.546-1.664,3.649,3.649,0,0,1,.168-1.559,2.689,2.689,0,0,1,.665-1.043,3,3,0,0,1,.9-.584,3.252,3.252,0,0,1,.924-.226m.091,1.349a5,5,0,0,0-.892.153,2.3,2.3,0,0,0-.741.35,1.484,1.484,0,0,0-.5.6,1.734,1.734,0,0,0-.132.887,1.657,1.657,0,0,0,.449,1.09,1.812,1.812,0,0,0,.932.472,4.444,4.444,0,0,0,1.176.045,6.127,6.127,0,0,0,.724-.1,2.722,2.722,0,0,0,.756-.284,1.563,1.563,0,0,0,.625-.612,1.666,1.666,0,0,0,.193-1.011,1.58,1.58,0,0,0-.361-.953,1.667,1.667,0,0,0-.728-.493,2.824,2.824,0,0,0-.794-.153,5.89,5.89,0,0,0-.707.013" transform="translate(-369.702 -2623.713)" fill="#053a7a"/>
        <path id="Path_465" data-name="Path 465" d="M504.225,2624.94l.436,2.626-.378.062a1.792,1.792,0,0,0-.127-.477.215.215,0,0,0-.251-.115.6.6,0,0,0-.242.091l-.618.369.3,1.814.386.074a1.532,1.532,0,0,0,.457.045.3.3,0,0,0,.284-.247,1.513,1.513,0,0,0-.009-.456l.379-.062.316,1.92-.378.066a.859.859,0,0,0-.153-.378.842.842,0,0,0-.378-.251,4.256,4.256,0,0,0-.732-.206l-4.476-.913-.066-.39,4.065-2.417a5.97,5.97,0,0,0,.575-.374.586.586,0,0,0,.215-.28.891.891,0,0,0,.019-.44Zm-1.558,2.775-1.816,1.089,2.064.412Z" transform="translate(-369.849 -2624.942)" fill="#053a7a"/>
      </g>
      <path id="Path_466" data-name="Path 466" d="M456.262,2656.45l-1.5,2.552h-5.319l-1.521-2.552H442.5l2.52,7.16-15.563,10.881a45.908,45.908,0,0,0,28.364,8.966l1.361-17.753,3.3-9.253Z" transform="translate(-384.145 -2553.527)" fill="#59add5"/>
      <path id="Path_467" data-name="Path 467" d="M426.265,2674.96l-4.748-5.126a31.74,31.74,0,0,0,23.16-9.463l5.084.941c-7.534,10.857-23.5,13.648-23.5,13.648m-16.6-38.89s-.293-5.937.218-5.838l12.747,6.615s-4.855,1.155-12.964-.777m40.629,24.717-5.837-1.081.855-4.629-5.409-1,.794-4.587-9.554-1.771.847-4.51-9.556-1.771.917-4.95-13.7-7.256a38.074,38.074,0,0,0,.3,12.378c8.793,1.381,12.393.444,12.393.444l8.734,1.546s-6.976,4.251-21.236,2.3c.419,1.865.913,3.654,1.472,5.347a34.3,34.3,0,0,0,19.9-2.86l8.8,1.632c-8.941,5.792-24.939,6.133-26.835,6.141.72,1.669,1.472,3.211,2.224,4.625a43.667,43.667,0,0,0,24.231-5.952l4.781.883c-4.037,6.376-16.776,9.824-26.432,9.73a43.5,43.5,0,0,0,4.09,5.266c4.748,5.065,9.652,9.677,14.5,12.419l16.143-11.267Z" transform="translate(-390.096 -2561.549)" fill="#307e39"/>
      <path id="Path_468" data-name="Path 468" d="M499.287,2649.41c-1.82,1.631-1.894,2.873-4.644,7.177a39.6,39.6,0,0,1-4.3,5.874,23.414,23.414,0,0,1-8.919,5.829,25.536,25.536,0,0,1-14.568,2.141,5.441,5.441,0,0,1-5.1-7.165c.493-2.211,1.664-2.347,3.412-5.549,1.1-2.026,2-3.678,1.66-5.616a6.585,6.585,0,0,0-2.824-4.02,32.837,32.837,0,0,1-3.794,6.343c-3.551,4.636-6.479,5.423-9.081,9.286a15.322,15.322,0,0,0-3.058,8.97L449.4,2686.5a56.914,56.914,0,0,0,36.762-11.04,55.542,55.542,0,0,0,13.137-13.595,53.006,53.006,0,0,0,7.017-15.385,12.4,12.4,0,0,0-7.033,2.926" transform="translate(-378.658 -2556.462)" fill="#2a7d3a"/>
      <path id="Path_469" data-name="Path 469" d="M462.7,2669.14a27.839,27.839,0,0,0,6.659-7.715c1.637-2.845,2.368-5.385,5.135-7.929a15.71,15.71,0,0,1,3.97-2.659c-.862,2-1.87,4.111-3.049,6.3a83.533,83.533,0,0,1-4.485,7.432,25.675,25.675,0,0,0,4.888-5.487c2.7-4.111,3.132-7.21,6.334-9.2a9.368,9.368,0,0,1,3.548-1.283q-4.273,7.8-8.541,15.608a27.03,27.03,0,0,0,5.356-6.326c2.631-4.341,3.293-7.844,6.576-9.327a7.27,7.27,0,0,1,3.179-.6c-.285.489-.728,1.27-1.251,2.241-1.5,2.79-2.236,4.8-2.725,5.619-1.907,3.234-4.04,6.865-8.282,9.734a23.137,23.137,0,0,1-5.956,2.84,24.281,24.281,0,0,1-11.354.747" transform="translate(-374.346 -2556.029)" fill="#2a7d3a"/>
      <g id="Group_112" data-name="Group 112" transform="translate(72.128 60.933)">
        <path id="Path_470" data-name="Path 470" d="M483.873,2639.19s.7-.045,4.728-6.043a52.547,52.547,0,0,0,4.767,5.961s-1.163-.695-4.743-.695c-3.557,0-4.753.777-4.753.777" transform="translate(-440.234 -2621.327)" fill="#307e39"/>
        <path id="Path_471" data-name="Path 471" d="M483.873,2636.49s.7-.041,4.728-6.149a53.534,53.534,0,0,0,4.767,6.067s-1.163-.7-4.743-.7c-3.557,0-4.753.784-4.753.784" transform="translate(-440.234 -2622.154)" fill="#307e39"/>
        <path id="Path_472" data-name="Path 472" d="M484.662,2633.66s.546-.041,3.716-6.154a54.549,54.549,0,0,0,3.748,6.075s-.912-.707-3.728-.707c-2.8,0-3.737.786-3.737.786" transform="translate(-440.001 -2622.991)" fill="#307e39"/>
        <path id="Path_473" data-name="Path 473" d="M485.125,2630.96s.461-.037,3.12-5.163a45.283,45.283,0,0,0,3.145,5.1s-.769-.6-3.128-.6c-2.343,0-3.137.662-3.137.662" transform="translate(-439.865 -2623.494)" fill="#307e39"/>
        <path id="Path_474" data-name="Path 474" d="M485.662,2628.11s.361-.028,2.47-4.09a36.021,36.021,0,0,0,2.491,4.037,4.4,4.4,0,0,0-2.479-.469,4.12,4.12,0,0,0-2.482.521" transform="translate(-439.706 -2624.018)" fill="#307e39"/>
        <path id="Path_475" data-name="Path 475" d="M488.259,2636.53h-1.2v19.409h1.2Z" transform="translate(-439.295 -2620.33)" fill="#307e39"/>
        <path id="Path_476" data-name="Path 476" d="M450.168,2652.89s.649-.038,4.423-5.653a49.342,49.342,0,0,0,4.46,5.578s-1.09-.649-4.436-.649c-3.325,0-4.447.724-4.447.724" transform="translate(-450.168 -2617.175)" fill="#307e39"/>
        <path id="Path_477" data-name="Path 477" d="M450.168,2650.36s.649-.04,4.423-5.754a50.1,50.1,0,0,0,4.46,5.676s-1.09-.658-4.436-.658c-3.325,0-4.447.736-4.447.736" transform="translate(-450.168 -2617.951)" fill="#307e39"/>
        <path id="Path_478" data-name="Path 478" d="M450.9,2647.72s.51-.042,3.478-5.759a50.686,50.686,0,0,0,3.506,5.681s-.854-.657-3.485-.657-3.5.735-3.5.735" transform="translate(-449.953 -2618.73)" fill="#307e39"/>
        <path id="Path_479" data-name="Path 479" d="M451.338,2645.19s.432-.038,2.914-4.831a42.6,42.6,0,0,0,2.943,4.764,5.161,5.161,0,0,0-2.922-.555,4.852,4.852,0,0,0-2.935.621" transform="translate(-449.823 -2619.201)" fill="#307e39"/>
        <path id="Path_480" data-name="Path 480" d="M451.834,2642.51s.337-.025,2.31-3.822a33.821,33.821,0,0,0,2.331,3.773,4.125,4.125,0,0,0-2.318-.436,3.868,3.868,0,0,0-2.323.486" transform="translate(-449.677 -2619.693)" fill="#307e39"/>
        <path id="Path_481" data-name="Path 481" d="M454.266,2650.4h-1.117v11.062h1.117Z" transform="translate(-449.289 -2616.243)" fill="#307e39"/>
      </g>
      <g id="Group_113" data-name="Group 113" transform="translate(18.877 18.875)">
        <path id="Path_482" data-name="Path 482" d="M465.135,2640.33l.164-.185a.233.233,0,0,1,.045-.061l5.421-6.112a.28.28,0,0,1,.07-.06l.206-.233.214.238a.2.2,0,0,1,.066.055l.8.9,4.583,5.077h12l-7.034-7.864H471.042l-5.376,5.8a.406.406,0,0,1-.079.132l-1.327,1.43Z" transform="translate(-392.764 -2579.58)" fill="#2a7d3a"/>
        <path id="Path_483" data-name="Path 483" d="M465.252,2638.44a.372.372,0,0,1-.009-.514l1.081-1.159h-5.886l-2.466,2.593h8.2Z" transform="translate(-394.618 -2578.201)" fill="#2a7d3a"/>
        <path id="Path_484" data-name="Path 484" d="M475.7,2639.87l-5.052-5.7-5.052,5.7v14.8h8.407a17.538,17.538,0,0,1,1.7-1.138Z" transform="translate(-392.369 -2578.967)" fill="#2a7d3a"/>
        <path id="Path_485" data-name="Path 485" d="M474.275,2638.74v12.828c.089-.045.176-.091.267-.132a1.206,1.206,0,0,1,1.353.223,1.173,1.173,0,0,1,.3.459,9.3,9.3,0,0,1,1.916-1.561,10.621,10.621,0,0,1,4-1.455,1.228,1.228,0,0,1,1.072.374v-10.737Z" transform="translate(-389.812 -2577.62)" fill="#2a7d3a"/>
        <path id="Path_486" data-name="Path 486" d="M458.734,2639.63v11.01c.366-.671.712-1.353,1.028-2.047a1.206,1.206,0,0,1,1.8-.486,7.692,7.692,0,0,1,3.312,4.793c.013.053.017.107.025.157h1.563V2639.63Z" transform="translate(-394.393 -2577.359)" fill="#2a7d3a"/>
        <path id="Path_487" data-name="Path 487" d="M465.163,2703.78a56.123,56.123,0,1,1,56.122-56.123,56.124,56.124,0,0,1-56.122,56.123m0-110.39a54.267,54.267,0,1,0,54.264,54.267,54.267,54.267,0,0,0-54.264-54.267" transform="translate(-409.04 -2591.534)" fill="#2a7d3a"/>
      </g>
      <g id="Group_114" data-name="Group 114" transform="translate(35.155 30.801)">
        <path id="Path_488" data-name="Path 488" d="M439.328,2613.29a8.667,8.667,0,1,0,8.615,8.67,8.667,8.667,0,0,0-8.615-8.67" transform="translate(-418.929 -2597.046)" fill="#bd1e21"/>
        <path id="Path_489" data-name="Path 489" d="M436.684,2646.67h1.34v-17.255h-1.34Z" transform="translate(-417.17 -2592.295)" fill="#bd1e21"/>
        <path id="Path_490" data-name="Path 490" d="M441.471,2628.62l6.52,11.363,1.159-.675-6.519-11.363Z" transform="translate(-415.759 -2592.727)" fill="#bd1e21"/>
        <path id="Path_491" data-name="Path 491" d="M427.126,2639.17l1.159.673,6.52-11.362-1.16-.675Z" transform="translate(-419.987 -2592.769)" fill="#bd1e21"/>
        <path id="Path_492" data-name="Path 492" d="M438.02,2600.75h-1.336v12.85h1.336Z" transform="translate(-417.17 -2600.745)" fill="#bd1e21"/>
        <path id="Path_493" data-name="Path 493" d="M446.852,2620.88h8.57v-1.347h-8.57Z" transform="translate(-414.173 -2595.207)" fill="#bd1e21"/>
        <path id="Path_494" data-name="Path 494" d="M430.182,2619.54h-8.57v1.347h8.57Z" transform="translate(-421.612 -2595.206)" fill="#bd1e21"/>
        <path id="Path_495" data-name="Path 495" d="M434.266,2613.36l-4.287-7.473-1.159.675,4.287,7.473Z" transform="translate(-419.487 -2599.229)" fill="#bd1e21"/>
        <path id="Path_496" data-name="Path 496" d="M431.293,2615.85l-7.424-4.312-.673,1.168,7.428,4.311Z" transform="translate(-421.145 -2597.563)" fill="#bd1e21"/>
        <path id="Path_497" data-name="Path 497" d="M430.629,2624.17l-7.428,4.312.675,1.168,7.424-4.313Z" transform="translate(-421.144 -2593.841)" fill="#bd1e21"/>
        <path id="Path_498" data-name="Path 498" d="M444.95,2625.34l7.42,4.312.669-1.168-7.428-4.312Z" transform="translate(-414.733 -2593.841)" fill="#bd1e21"/>
        <path id="Path_499" data-name="Path 499" d="M445.615,2617.02l7.424-4.312-.671-1.167-7.424,4.315Z" transform="translate(-414.735 -2597.563)" fill="#bd1e21"/>
        <path id="Path_500" data-name="Path 500" d="M446.816,2606.56l-1.164-.671-4.283,7.469,1.155.673Z" transform="translate(-415.789 -2599.228)" fill="#bd1e21"/>
      </g>
      <g id="Group_115" data-name="Group 115" transform="translate(83.041 27.917)">
        <path id="Path_501" data-name="Path 501" d="M464.883,2610.58h-1.376v-5.553h1.376Z" transform="translate(-457.15 -2596.601)" fill="#59add5"/>
        <path id="Path_502" data-name="Path 502" d="M464.883,2623.58h-1.376v-5.553h1.376Z" transform="translate(-457.15 -2592.768)" fill="#59add5"/>
        <path id="Path_503" data-name="Path 503" d="M474.7,2610.58h-1.372v-5.553H474.7Z" transform="translate(-454.255 -2596.601)" fill="#59add5"/>
        <path id="Path_504" data-name="Path 504" d="M474.7,2623.58h-1.372v-5.553H474.7Z" transform="translate(-454.255 -2592.768)" fill="#59add5"/>
        <path id="Path_505" data-name="Path 505" d="M459.975,2604.07H458.6v-5.557h1.378Z" transform="translate(-458.597 -2598.518)" fill="#59add5"/>
        <path id="Path_506" data-name="Path 506" d="M459.975,2617.08H458.6v-5.553h1.378Z" transform="translate(-458.597 -2594.684)" fill="#59add5"/>
        <path id="Path_507" data-name="Path 507" d="M459.975,2630.08H458.6v-5.559h1.378Z" transform="translate(-458.597 -2590.852)" fill="#59add5"/>
        <path id="Path_508" data-name="Path 508" d="M469.791,2605.32h-1.372v-5.557h1.372Z" transform="translate(-455.702 -2598.152)" fill="#59add5"/>
        <path id="Path_509" data-name="Path 509" d="M469.791,2617.08h-1.372v-5.553h1.372Z" transform="translate(-455.702 -2594.684)" fill="#59add5"/>
        <path id="Path_510" data-name="Path 510" d="M469.791,2628.84h-1.372v-5.557h1.372Z" transform="translate(-455.702 -2591.219)" fill="#59add5"/>
        <path id="Path_511" data-name="Path 511" d="M479.611,2616.16h-1.374v-5.553h1.374Z" transform="translate(-452.808 -2594.955)" fill="#59add5"/>
        <path id="Path_512" data-name="Path 512" d="M479.611,2627.55h-1.374V2622h1.374Z" transform="translate(-452.808 -2591.597)" fill="#59add5"/>
        <path id="Path_513" data-name="Path 513" d="M484.52,2622.93h-1.374v-5.557h1.374Z" transform="translate(-451.361 -2592.96)" fill="#59add5"/>
      </g>
    </g>
  </g>
</svg>
