<svg xmlns="http://www.w3.org/2000/svg" width="16.002" height="12.877" viewBox="0 0 16.002 12.877">
  <g id="ic-arrow-sm" transform="translate(0.001 0.027)">
    <path id="Path_223" data-name="Path 223" d="M828.445,1279.369a1.2,1.2,0,0,1-.832-2.064l4.53-4.364-4.53-4.364a1.2,1.2,0,1,1,1.665-1.728l5.427,5.228a1.2,1.2,0,0,1,0,1.728l-5.427,5.229a1.2,1.2,0,0,1-.833.336Z" transform="translate(-819.071 -1266.519)" fill="#fff"/>
    <path id="Path_224" data-name="Path 224" d="M832.433,1275.067h-13.6a1.2,1.2,0,0,1,0-2.4h13.6a1.2,1.2,0,1,1,0,2.4Z" transform="translate(-817.633 -1267.445)" fill="#fff"/>
  </g>
</svg>
