<svg xmlns="http://www.w3.org/2000/svg" width="34.56" height="27.956" viewBox="0 0 34.56 27.956">
  <g id="ic-arrow-right" transform="translate(31.56 24.956) rotate(180)">
    <path id="Path_1" data-name="Path 1" d="M224.4,572.887a2.99,2.99,0,0,1-2.081-.839l-11.4-10.978a3,3,0,0,1,0-4.322l11.4-10.978a3,3,0,0,1,4.162,4.322l-9.156,8.817,9.156,8.817a3,3,0,0,1-2.081,5.161Z" transform="translate(-213 -547.931)" fill="#fff"/>
    <path id="Line_1" data-name="Line 1" d="M28.56,3H0A3,3,0,0,1-3,0,3,3,0,0,1,0-3H28.56a3,3,0,0,1,3,3A3,3,0,0,1,28.56,3Z" transform="translate(0 10.978)" fill="#fff"/>
  </g>
</svg>
