<svg xmlns="http://www.w3.org/2000/svg" width="70" height="70" viewBox="0 0 70 70">
  <g id="ic-gotop" transform="translate(-226 1245)">
    <path id="Ellipse_1" data-name="Ellipse 1" d="M32-3A35,35,0,1,1-3,32,35.04,35.04,0,0,1,32-3Zm0,64A29,29,0,1,0,3,32,29.033,29.033,0,0,0,32,61Z" transform="translate(293 -1242) rotate(90)" fill="#106a25"/>
    <g id="Group_14" data-name="Group 14" transform="translate(271.667 -1219.143) rotate(90)">
      <path id="Path_1" data-name="Path 1" d="M8.683,19.729A2.99,2.99,0,0,1,6.6,18.89l-8.683-8.365A3,3,0,0,1-3,8.364,3,3,0,0,1-2.081,6.2L6.6-2.161a3,3,0,0,1,4.242.079,3,3,0,0,1-.079,4.242l-6.44,6.2,6.44,6.2a3,3,0,0,1-2.082,5.161Z" transform="translate(9.691 2.516)" fill="#106a25"/>
      <path id="Line_1" data-name="Line 1" d="M21.333,3H0A3,3,0,0,1-3,0,3,3,0,0,1,0-3H21.333a3,3,0,0,1,3,3A3,3,0,0,1,21.333,3Z" transform="rotate(90)" fill="#106a25"/>
    </g>
  </g>
</svg>
