<svg xmlns="http://www.w3.org/2000/svg" width="16" height="14.209" viewBox="0 0 16 14.209">
  <g id="ic-home" transform="translate(0 -30.643)">
    <path id="Path_1" data-name="Path 1" d="M15.8,37.192l-7.2-6.328a.937.937,0,0,0-1.209,0L.2,37.192c-.335.3-.246.534.2.534h2.22v6.48a.649.649,0,0,0,.646.646H5.986V40.589a.649.649,0,0,1,.646-.646H9.374a.643.643,0,0,1,.646.646v4.263h2.716a.646.646,0,0,0,.646-.646V37.724H15.6C16.042,37.724,16.131,37.487,15.8,37.192Z" transform="translate(0)" fill="#333"/>
  </g>
</svg>
