<svg xmlns="http://www.w3.org/2000/svg" width="30" height="30" viewBox="0 0 30 30">
  <g id="ic-key" transform="translate(-1573 772)">
    <path id="Icon_awesome-key" data-name="Icon awesome-key" d="M25,8.594a8.6,8.6,0,0,1-10.2,8.444l-1.172,1.319a1.172,1.172,0,0,1-.876.393H10.938V20.7a1.172,1.172,0,0,1-1.172,1.172H7.812v1.953A1.172,1.172,0,0,1,6.641,25H1.172A1.172,1.172,0,0,1,0,23.828V20.017a1.172,1.172,0,0,1,.343-.829l7.9-7.9A8.595,8.595,0,1,1,25,8.594ZM16.406,6.25A2.344,2.344,0,1,0,18.75,3.906,2.344,2.344,0,0,0,16.406,6.25Z" transform="translate(1576 -769.999)" fill="#333"/>
    <rect id="Rectangle_1" data-name="Rectangle 1" width="30" height="30" transform="translate(1573 -772)" fill="none"/>
  </g>
</svg>
