<svg xmlns="http://www.w3.org/2000/svg" width="113.629" height="113.625" viewBox="0 0 113.629 113.625">
  <g id="ic-play" transform="translate(-5.485 -5.487)">
    <path id="Subtraction_1" data-name="Subtraction 1" d="M-1453.632,694.112h0a57.686,57.686,0,0,1-5.852-.3,56.451,56.451,0,0,1-21.542-6.694,56.614,56.614,0,0,1-16.723-13.951,56.617,56.617,0,0,1-10.272-19.2,56.456,56.456,0,0,1-2.188-22.452,56.539,56.539,0,0,1,6.036-20.309,56.612,56.612,0,0,1,12.518-16.169,56.658,56.658,0,0,1,37.887-14.547,57.716,57.716,0,0,1,5.857.3,56.451,56.451,0,0,1,21.542,6.694,56.616,56.616,0,0,1,16.723,13.951,56.62,56.62,0,0,1,10.272,19.2,56.457,56.457,0,0,1,2.188,22.452,56.53,56.53,0,0,1-6.037,20.309,56.611,56.611,0,0,1-12.519,16.169A56.668,56.668,0,0,1-1453.632,694.112Zm-15.15-82.443v51.917l46.628-25.959-46.628-25.959Z" transform="translate(1516 -575)" fill="#fff"/>
  </g>
</svg>
