<svg xmlns="http://www.w3.org/2000/svg" width="15.999" height="16" viewBox="0 0 15.999 16">
  <path id="ic-plant" d="M127.111-824v-7.089a7.061,7.061,0,0,1-2.733-.544,7.074,7.074,0,0,1-2.311-1.544,6.928,6.928,0,0,1-1.533-2.311,7.187,7.187,0,0,1-.533-2.733V-840h1.778a7,7,0,0,1,2.711.544,7.069,7.069,0,0,1,2.311,1.544,6.776,6.776,0,0,1,1.144,1.511,7.558,7.558,0,0,1,.7,1.756,3.1,3.1,0,0,1,.244-.3q.133-.144.289-.3a7.073,7.073,0,0,1,2.311-1.544,7.059,7.059,0,0,1,2.733-.544H136v1.778a7.059,7.059,0,0,1-.544,2.733,7.072,7.072,0,0,1-1.544,2.311,6.957,6.957,0,0,1-2.3,1.533,7.1,7.1,0,0,1-2.722.533V-824Zm0-8.889a5.142,5.142,0,0,0-.411-2.033,5.41,5.41,0,0,0-1.167-1.722,5.414,5.414,0,0,0-1.722-1.167,5.143,5.143,0,0,0-2.033-.411,5.348,5.348,0,0,0,.4,2.044,5.228,5.228,0,0,0,1.156,1.733,5.227,5.227,0,0,0,1.733,1.156A5.348,5.348,0,0,0,127.111-832.889Zm1.778,2.667a5.266,5.266,0,0,0,2.033-.4,5.262,5.262,0,0,0,1.722-1.156,5.379,5.379,0,0,0,1.167-1.733,5.223,5.223,0,0,0,.411-2.044,5.221,5.221,0,0,0-2.044.411,5.377,5.377,0,0,0-1.733,1.167,5.26,5.26,0,0,0-1.156,1.722,5.265,5.265,0,0,0-.4,2.033ZM128.889-830.222ZM127.111-832.889Z" transform="translate(-120.001 840)" fill="#99570f"/>
</svg>
