<svg id="Group_546" data-name="Group 546" xmlns="http://www.w3.org/2000/svg" width="30.572" height="30.572" viewBox="0 0 30.572 30.572">
  <g id="Group_544" data-name="Group 544">
    <path id="Path_1332" data-name="Path 1332" d="M0,0H30.572V30.572H0Z" fill="none"/>
  </g>
  <g id="search" transform="translate(2.548 7.643)">
    <path id="Path_1333" data-name="Path 1333" d="M8.369,9.822H2V7.274H8.369Zm0,3.822H2v2.548H8.369ZM25.681,22.56,20.8,17.681a6.37,6.37,0,1,1,2.853-5.312,6.342,6.342,0,0,1-1.057,3.5l4.879,4.892ZM21.108,12.369a3.822,3.822,0,1,0-3.822,3.822A3.833,3.833,0,0,0,21.108,12.369ZM2,22.56H14.738V20.012H2Z" transform="translate(-2 -6)" fill="#333"/>
  </g>
</svg>
