<svg xmlns="http://www.w3.org/2000/svg" xmlns:xlink="http://www.w3.org/1999/xlink" width="340.711" height="44.685" viewBox="0 0 340.711 44.685">
  <defs>
    <linearGradient id="linear-gradient" x1="0.5" x2="0.5" y2="1" gradientUnits="objectBoundingBox">
      <stop offset="0" stop-color="#99d848"/>
      <stop offset="1" stop-color="#74b504"/>
    </linearGradient>
  </defs>
  <g id="logo" transform="translate(-604.579 -1183.548)">
    <g id="Group_6059" data-name="Group 6059" transform="translate(586.5 1165)">
      <g id="Group_2388" data-name="Group 2388" transform="translate(18.079 18.551)">
        <g id="Group_2385" data-name="Group 2385" transform="translate(80.112 33.809)">
          <g id="Group_2384" data-name="Group 2384">
            <path id="Path_1991" data-name="Path 1991" d="M697.727,1232.36a.673.673,0,0,1-.762-.763v-6.1a.763.763,0,0,1,1.525,0v6.1a.675.675,0,0,1-.763.763Z" transform="translate(-696.965 -1223.998)" fill="#333"/>
            <path id="Path_1992" data-name="Path 1992" d="M701.634,1232.58a.665.665,0,0,1-.753-.752v-4.4c0-.413.216-.618.649-.618a.585.585,0,0,1,.659.556l.031.2h.041a2.713,2.713,0,0,1,1.876-.9q1.781,0,1.781,2.317v2.842a.757.757,0,0,1-1.514,0v-2.657a1.7,1.7,0,0,0-.19-.932.7.7,0,0,0-.623-.273,1.219,1.219,0,0,0-.619.165,3.542,3.542,0,0,0-.587.484v3.212a.664.664,0,0,1-.751.756Z" transform="translate(-697.4 -1224.212)" fill="#333"/>
            <path id="Path_1993" data-name="Path 1993" d="M710.577,1232.55q-1.9,0-1.9-2.164v-2.555h-.257a.5.5,0,0,1-.556-.576.518.518,0,0,1,.526-.588l.361-.03.114-.959a.593.593,0,0,1,.668-.586c.44,0,.66.208.66.628v.917h.824a.6.6,0,1,1,0,1.194H710.2v2.555c0,.645.262.968.783.968H711a.5.5,0,0,1,.668.442q.114.539-.329.661a3.318,3.318,0,0,1-.762.093Z" transform="translate(-698.176 -1224.037)" fill="#333"/>
            <path id="Path_1994" data-name="Path 1994" d="M715.877,1232.72a2.73,2.73,0,0,1-2.028-.8,2.971,2.971,0,0,1-.836-2.215,3.123,3.123,0,0,1,.824-2.226,2.5,2.5,0,0,1,1.865-.812,2.213,2.213,0,0,1,1.8.783,3.021,3.021,0,0,1,.607,1.976c0,.124-.007.269-.021.433a.3.3,0,0,1-.123.181.4.4,0,0,1-.237.076h-3.245a1.64,1.64,0,0,0,.526,1.072,1.542,1.542,0,0,0,1.07.373,2.159,2.159,0,0,0,.8-.155.5.5,0,0,1,.764.235.46.46,0,0,1-.165.692A3.591,3.591,0,0,1,715.877,1232.72Zm-1.41-3.607h2.348a1.45,1.45,0,0,0-.268-.938,1,1,0,0,0-.825-.339,1.149,1.149,0,0,0-.813.319,1.581,1.581,0,0,0-.442.955Z" transform="translate(-698.748 -1224.212)" fill="#333"/>
            <path id="Path_1995" data-name="Path 1995" d="M722.227,1235.08a3.468,3.468,0,0,1-1.71-.359,1.23,1.23,0,0,1-.7-1.124,1.363,1.363,0,0,1,.824-1.193v-.052a1.111,1.111,0,0,1-.33-1.576,1.491,1.491,0,0,1,.444-.474v-.041a1.878,1.878,0,0,1-.526-.61,1.788,1.788,0,0,1-.237-.894,1.911,1.911,0,0,1,.7-1.556,2.5,2.5,0,0,1,1.628-.535,2.588,2.588,0,0,1,.866.144h1.524a.556.556,0,1,1,0,1.111h-.433a1.378,1.378,0,0,1,.268.876,1.779,1.779,0,0,1-.648,1.464,2.428,2.428,0,0,1-1.577.493,2.391,2.391,0,0,1-.742-.132.6.6,0,0,0-.246.492.377.377,0,0,0,.2.352,1.5,1.5,0,0,0,.709.123h.979q2.143,0,2.143,1.444a1.718,1.718,0,0,1-.844,1.461,4,4,0,0,1-2.292.586Zm.226-.957a2.032,2.032,0,0,0,1.06-.246.683.683,0,0,0,.4-.589.412.412,0,0,0-.246-.41,1.754,1.754,0,0,0-.711-.1h-.7a3.424,3.424,0,0,1-.8-.083.87.87,0,0,0-.383.669.622.622,0,0,0,.372.563,2.151,2.151,0,0,0,1.007.193Zm-.134-4.306a.821.821,0,0,0,.639-.276,1.322,1.322,0,0,0,0-1.566.794.794,0,0,0-.639-.278.825.825,0,0,0-.649.278,1.128,1.128,0,0,0-.257.783,1.1,1.1,0,0,0,.268.783.822.822,0,0,0,.637.269Z" transform="translate(-699.504 -1224.212)" fill="#333"/>
            <path id="Path_1996" data-name="Path 1996" d="M728.146,1232.58a.665.665,0,0,1-.752-.752v-4.4c0-.413.212-.618.639-.618a.583.583,0,0,1,.66.565l.039.454h.042a2.527,2.527,0,0,1,.752-.866,1.546,1.546,0,0,1,.886-.3h.134a.512.512,0,0,1,.381.276.834.834,0,0,1,.03.507c-.1.431-.333.618-.711.555h-.02a1.141,1.141,0,0,0-.711.257,1.92,1.92,0,0,0-.618.877v2.687a.664.664,0,0,1-.751.758Z" transform="translate(-700.346 -1224.212)" fill="#333"/>
            <path id="Path_1997" data-name="Path 1997" d="M733.7,1232.72a1.651,1.651,0,0,1-1.236-.485,1.683,1.683,0,0,1-.474-1.225,1.617,1.617,0,0,1,.788-1.437,5.985,5.985,0,0,1,2.529-.7c-.027-.665-.354-1-.979-1a2.524,2.524,0,0,0-1.04.259.549.549,0,0,1-.825-.227.482.482,0,0,1,.2-.743,4.226,4.226,0,0,1,1.947-.5,2.071,2.071,0,0,1,1.652.643,2.81,2.81,0,0,1,.563,1.9v2.75c0,.412-.221.618-.66.618a.615.615,0,0,1-.681-.535l-.009-.083h-.032a2.7,2.7,0,0,1-1.743.765Zm.5-1.186a1.619,1.619,0,0,0,1.112-.567V1229.8a4.158,4.158,0,0,0-1.462.413.787.787,0,0,0-.412.668c0,.439.253.659.762.659Z" transform="translate(-700.857 -1224.212)" fill="#333"/>
            <path id="Path_1998" data-name="Path 1998" d="M741.216,1232.55q-1.9,0-1.9-2.164v-2.555h-.257a.5.5,0,0,1-.556-.576.518.518,0,0,1,.526-.588l.361-.03.113-.959a.594.594,0,0,1,.668-.586c.44,0,.66.208.66.628v.917h.824a.6.6,0,1,1,0,1.194h-.824v2.555c0,.645.262.968.783.968h.021a.5.5,0,0,1,.668.442c.076.359-.035.579-.329.661a3.338,3.338,0,0,1-.758.093Z" transform="translate(-701.581 -1224.037)" fill="#333"/>
            <path id="Path_1999" data-name="Path 1999" d="M746.514,1232.72a2.731,2.731,0,0,1-2.028-.8,2.974,2.974,0,0,1-.835-2.215,3.123,3.123,0,0,1,.824-2.226,2.5,2.5,0,0,1,1.865-.812,2.213,2.213,0,0,1,1.8.783,3.026,3.026,0,0,1,.607,1.976c0,.124-.007.269-.022.433a.291.291,0,0,1-.122.181.4.4,0,0,1-.237.076h-3.245a1.64,1.64,0,0,0,.526,1.072,1.542,1.542,0,0,0,1.07.373,2.161,2.161,0,0,0,.8-.155.5.5,0,0,1,.763.235.459.459,0,0,1-.165.692,3.588,3.588,0,0,1-1.6.387Zm-1.41-3.607h2.348a1.45,1.45,0,0,0-.268-.938,1.006,1.006,0,0,0-.825-.339,1.148,1.148,0,0,0-.813.319,1.581,1.581,0,0,0-.446.955Z" transform="translate(-702.152 -1224.212)" fill="#333"/>
            <path id="Path_2000" data-name="Path 2000" d="M753.009,1232.43a2.075,2.075,0,0,1-1.721-.81,3.475,3.475,0,0,1-.637-2.21,3.308,3.308,0,0,1,.74-2.226,2.146,2.146,0,0,1,1.68-.812,1.914,1.914,0,0,1,.824.174,2.361,2.361,0,0,1,.638.454l-.061-.908v-1.276a.757.757,0,0,1,1.514,0v6.858a.572.572,0,0,1-.176.455.706.706,0,0,1-.483.154.609.609,0,0,1-.67-.516l-.02-.083h-.031A2.281,2.281,0,0,1,753.009,1232.43Zm.391-1.246a1.327,1.327,0,0,0,1.071-.6v-2.535a1.554,1.554,0,0,0-1.071-.431,1,1,0,0,0-.845.453,2.2,2.2,0,0,0-.35,1.318,2.392,2.392,0,0,0,.308,1.338,1.007,1.007,0,0,0,.887.463Z" transform="translate(-702.93 -1223.923)" fill="#333"/>
            <path id="Path_2001" data-name="Path 2001" d="M762.478,1232.36a.673.673,0,0,1-.762-.763v-6.189a.636.636,0,0,1,.67-.668h1.832q2.988,0,2.988,2.389a2.284,2.284,0,0,1-.855,1.915,3.31,3.31,0,0,1-2.091.609h-1.019v1.945a.675.675,0,0,1-.763.762Zm.764-3.914h.916q1.555,0,1.556-1.318a1.053,1.053,0,0,0-.413-.927,2.166,2.166,0,0,0-1.2-.259h-.864v2.5Z" transform="translate(-704.16 -1223.998)" fill="#333"/>
            <path id="Path_2002" data-name="Path 2002" d="M770.959,1232.43q-1.42,0-1.42-1.764v-5.849a.752.752,0,1,1,1.5,0v5.922c0,.3.1.453.309.453h.021a.171.171,0,0,1,.155.093.546.546,0,0,1,.083.2,1.54,1.54,0,0,1,0,.557c-.049.212-.142.334-.278.371A3.076,3.076,0,0,1,770.959,1232.43Z" transform="translate(-705.029 -1223.923)" fill="#333"/>
            <path id="Path_2003" data-name="Path 2003" d="M774.8,1232.72a1.648,1.648,0,0,1-1.235-.485,1.68,1.68,0,0,1-.475-1.225,1.617,1.617,0,0,1,.788-1.437,5.99,5.99,0,0,1,2.53-.7c-.028-.665-.354-1-.979-1a2.531,2.531,0,0,0-1.04.259.548.548,0,0,1-.824-.227.482.482,0,0,1,.2-.743,4.226,4.226,0,0,1,1.948-.5,2.073,2.073,0,0,1,1.652.643,2.815,2.815,0,0,1,.562,1.9v2.75q0,.618-.659.618a.615.615,0,0,1-.681-.535l-.009-.083h-.033a2.693,2.693,0,0,1-1.745.765Zm.5-1.186a1.622,1.622,0,0,0,1.112-.567V1229.8a4.153,4.153,0,0,0-1.462.413.787.787,0,0,0-.413.668c0,.439.251.659.758.659Z" transform="translate(-705.424 -1224.212)" fill="#333"/>
            <path id="Path_2004" data-name="Path 2004" d="M782.319,1232.55q-1.9,0-1.9-2.164v-2.555h-.257a.5.5,0,0,1-.557-.576.518.518,0,0,1,.526-.588l.362-.03.113-.959a.593.593,0,0,1,.668-.586c.44,0,.659.208.659.628v.917h.825a.6.6,0,1,1,0,1.194h-.825v2.555c0,.645.262.968.783.968h.021a.5.5,0,0,1,.668.442q.114.539-.329.661A3.324,3.324,0,0,1,782.319,1232.55Z" transform="translate(-706.148 -1224.037)" fill="#333"/>
            <path id="Path_2005" data-name="Path 2005" d="M786.335,1232.27a.669.669,0,0,1-.763-.752V1227.7h-.216a.5.5,0,0,1-.557-.576.518.518,0,0,1,.526-.588l.246-.02v-.475a2.273,2.273,0,0,1,.463-1.516,1.907,1.907,0,0,1,1.547-.618,3.19,3.19,0,0,1,.659.073c.288.088.388.306.3.649a.554.554,0,0,1-.732.474h-.021q-.7,0-.7.906v.5h.485a.6.6,0,0,1,0,1.194h-.485v3.821a.664.664,0,0,1-.752.746Z" transform="translate(-706.724 -1223.905)" fill="#333"/>
            <path id="Path_2006" data-name="Path 2006" d="M792.149,1232.72a2.625,2.625,0,0,1-1.926-.794,3.379,3.379,0,0,1,0-4.471,2.737,2.737,0,0,1,3.852,0,3.077,3.077,0,0,1,.844,2.245,3.03,3.03,0,0,1-.844,2.226,2.626,2.626,0,0,1-1.926.794Zm0-1.237a1.034,1.034,0,0,0,.9-.484,2.814,2.814,0,0,0,0-2.606,1.078,1.078,0,0,0-1.812,0,2.82,2.82,0,0,0,0,2.606,1.04,1.04,0,0,0,.912.481Z" transform="translate(-707.233 -1224.212)" fill="#333"/>
            <path id="Path_2007" data-name="Path 2007" d="M798.02,1232.58a.665.665,0,0,1-.752-.752v-4.4c0-.413.212-.618.639-.618a.583.583,0,0,1,.66.565l.039.454h.042a2.526,2.526,0,0,1,.752-.866,1.545,1.545,0,0,1,.886-.3h.134a.512.512,0,0,1,.381.276.835.835,0,0,1,.03.507c-.1.431-.332.618-.711.555h-.02a1.141,1.141,0,0,0-.712.257,1.922,1.922,0,0,0-.618.877v2.687a.664.664,0,0,1-.75.758Z" transform="translate(-708.11 -1224.212)" fill="#333"/>
            <path id="Path_2008" data-name="Path 2008" d="M803.3,1232.58a.665.665,0,0,1-.753-.752v-4.4c0-.413.216-.618.649-.618a.585.585,0,0,1,.659.556l.031.216h.041a4.13,4.13,0,0,1,.783-.651,2,2,0,0,1,.99-.266,1.594,1.594,0,0,1,1.586,1.01,4.01,4.01,0,0,1,.833-.712,1.882,1.882,0,0,1,1-.3,1.6,1.6,0,0,1,1.36.618,2.845,2.845,0,0,1,.431,1.7v2.842a.758.758,0,1,1-1.515,0v-2.657a1.715,1.715,0,0,0-.2-.938.684.684,0,0,0-.607-.268,1.676,1.676,0,0,0-1.112.65v3.212a.757.757,0,0,1-1.514,0v-2.657a1.723,1.723,0,0,0-.2-.938.687.687,0,0,0-.607-.268,1.679,1.679,0,0,0-1.114.65v3.212a.663.663,0,0,1-.741.759Z" transform="translate(-708.697 -1224.212)" fill="#333"/>
            <path id="Path_2009" data-name="Path 2009" d="M817.772,1232.27a.669.669,0,0,1-.763-.752V1227.7h-.216a.5.5,0,0,1-.556-.576.518.518,0,0,1,.526-.588l.246-.02v-.475a2.273,2.273,0,0,1,.463-1.516,1.907,1.907,0,0,1,1.547-.618,3.173,3.173,0,0,1,.659.073c.288.088.388.306.3.649a.554.554,0,0,1-.732.474h-.021q-.7,0-.7.906v.5h.485a.6.6,0,0,1,0,1.194h-.485v3.821a.664.664,0,0,1-.753.746Z" transform="translate(-710.217 -1223.905)" fill="#333"/>
            <path id="Path_2010" data-name="Path 2010" d="M823.586,1232.72a2.62,2.62,0,0,1-1.925-.794,3.376,3.376,0,0,1,0-4.471,2.736,2.736,0,0,1,3.851,0,3.072,3.072,0,0,1,.844,2.245,3.027,3.027,0,0,1-.844,2.226,2.626,2.626,0,0,1-1.926.794Zm0-1.237a1.034,1.034,0,0,0,.9-.484,2.813,2.813,0,0,0,0-2.606,1.078,1.078,0,0,0-1.812,0,2.82,2.82,0,0,0,0,2.606,1.04,1.04,0,0,0,.912.481Z" transform="translate(-710.726 -1224.212)" fill="#333"/>
            <path id="Path_2011" data-name="Path 2011" d="M829.458,1232.58a.665.665,0,0,1-.753-.752v-4.4c0-.413.211-.618.639-.618a.583.583,0,0,1,.66.565l.039.454h.042a2.526,2.526,0,0,1,.752-.866,1.546,1.546,0,0,1,.886-.3h.134a.512.512,0,0,1,.381.276.834.834,0,0,1,.03.507c-.1.431-.332.618-.711.555h-.02a1.141,1.141,0,0,0-.712.257,1.92,1.92,0,0,0-.618.877v2.687a.663.663,0,0,1-.749.758Z" transform="translate(-711.603 -1224.212)" fill="#333"/>
            <path id="Path_2012" data-name="Path 2012" d="M837.752,1232.36a.673.673,0,0,1-.762-.763v-6.189a.635.635,0,0,1,.67-.668h1.987q2.864,0,2.863,2.307a2.151,2.151,0,0,1-1.452,2.195l1.349,2.356a.457.457,0,0,1-.443.763h-.35a.81.81,0,0,1-.7-.413l-1.34-2.472h-1.06v2.119a.675.675,0,0,1-.762.765Zm.764-4.09h.988q1.515,0,1.515-1.225a.976.976,0,0,0-.392-.866,2.083,2.083,0,0,0-1.123-.237h-.988Z" transform="translate(-712.523 -1223.998)" fill="#333"/>
            <path id="Path_2013" data-name="Path 2013" d="M846.689,1232.74q-1.773,0-1.772-2.308v-2.854a.758.758,0,1,1,1.515,0v2.659a1.693,1.693,0,0,0,.2.938.685.685,0,0,0,.607.266,1.129,1.129,0,0,0,.612-.164,2.309,2.309,0,0,0,.563-.555v-3.144a.757.757,0,0,1,1.514,0v4.4q0,.617-.65.618a.593.593,0,0,1-.66-.555l-.041-.269h-.042A2.374,2.374,0,0,1,846.689,1232.74Z" transform="translate(-713.404 -1224.23)" fill="#333"/>
            <path id="Path_2014" data-name="Path 2014" d="M853.351,1232.58a.665.665,0,0,1-.753-.752v-4.4c0-.413.212-.618.64-.618a.582.582,0,0,1,.659.565l.04.454h.041a2.538,2.538,0,0,1,.753-.866,1.543,1.543,0,0,1,.885-.3h.135a.511.511,0,0,1,.38.276.826.826,0,0,1,.031.507c-.1.431-.332.618-.712.555h-.02a1.138,1.138,0,0,0-.711.257,1.914,1.914,0,0,0-.618.877v2.687a.664.664,0,0,1-.75.758Z" transform="translate(-714.258 -1224.212)" fill="#333"/>
            <path id="Path_2015" data-name="Path 2015" d="M858.909,1232.72a1.651,1.651,0,0,1-1.236-.485,1.679,1.679,0,0,1-.474-1.225,1.617,1.617,0,0,1,.788-1.437,5.983,5.983,0,0,1,2.529-.7c-.027-.665-.354-1-.979-1a2.524,2.524,0,0,0-1.04.259.548.548,0,0,1-.825-.227.482.482,0,0,1,.2-.743,4.226,4.226,0,0,1,1.948-.5,2.072,2.072,0,0,1,1.652.643,2.816,2.816,0,0,1,.563,1.9v2.75c0,.412-.221.618-.66.618a.615.615,0,0,1-.681-.535l-.009-.083h-.032a2.7,2.7,0,0,1-1.744.765Zm.5-1.186a1.622,1.622,0,0,0,1.112-.567V1229.8a4.149,4.149,0,0,0-1.462.413.787.787,0,0,0-.413.668c0,.439.254.659.759.659Z" transform="translate(-714.769 -1224.212)" fill="#333"/>
            <path id="Path_2016" data-name="Path 2016" d="M866.024,1232.43q-1.42,0-1.42-1.764v-5.849a.752.752,0,1,1,1.5,0v5.922c0,.3.1.453.309.453h.021a.171.171,0,0,1,.155.093.548.548,0,0,1,.083.2,1.544,1.544,0,0,1,0,.557c-.049.212-.142.334-.279.371A3.054,3.054,0,0,1,866.024,1232.43Z" transform="translate(-715.592 -1223.923)" fill="#333"/>
            <path id="Path_2017" data-name="Path 2017" d="M873.684,1232.36a.673.673,0,0,1-.762-.763v-5.591h-1.515a.634.634,0,0,1,0-1.267h4.573a.633.633,0,0,1,0,1.267h-1.535v5.591a.673.673,0,0,1-.761.763Z" transform="translate(-716.278 -1223.998)" fill="#333"/>
            <path id="Path_2018" data-name="Path 2018" d="M879.337,1232.72a1.65,1.65,0,0,1-1.236-.485,1.679,1.679,0,0,1-.474-1.225,1.617,1.617,0,0,1,.788-1.437,5.987,5.987,0,0,1,2.529-.7c-.027-.665-.354-1-.979-1a2.523,2.523,0,0,0-1.04.259.548.548,0,0,1-.825-.227.482.482,0,0,1,.2-.743,4.225,4.225,0,0,1,1.948-.5,2.072,2.072,0,0,1,1.652.643,2.815,2.815,0,0,1,.562,1.9v2.75q0,.618-.659.618a.615.615,0,0,1-.681-.535l-.009-.083h-.033A2.692,2.692,0,0,1,879.337,1232.72Zm.5-1.186a1.621,1.621,0,0,0,1.112-.567V1229.8a4.153,4.153,0,0,0-1.462.413.787.787,0,0,0-.413.668c0,.439.251.659.759.659Z" transform="translate(-717.039 -1224.212)" fill="#333"/>
            <path id="Path_2019" data-name="Path 2019" d="M886.454,1232.43q-1.42,0-1.42-1.764v-5.849a.752.752,0,1,1,1.5,0v5.922c0,.3.1.453.309.453h.021a.171.171,0,0,1,.155.093.564.564,0,0,1,.083.2,1.542,1.542,0,0,1,0,.557c-.049.212-.142.334-.279.371A3.053,3.053,0,0,1,886.454,1232.43Z" transform="translate(-717.862 -1223.923)" fill="#333"/>
            <path id="Path_2020" data-name="Path 2020" d="M891.373,1232.72a2.73,2.73,0,0,1-2.028-.8,2.974,2.974,0,0,1-.836-2.215,3.123,3.123,0,0,1,.825-2.226,2.5,2.5,0,0,1,1.864-.812,2.214,2.214,0,0,1,1.8.783,3.021,3.021,0,0,1,.607,1.976c0,.124-.007.269-.021.433a.3.3,0,0,1-.122.181.4.4,0,0,1-.237.076h-3.246a1.637,1.637,0,0,0,.527,1.072,1.543,1.543,0,0,0,1.07.373,2.159,2.159,0,0,0,.8-.155.5.5,0,0,1,.763.235.459.459,0,0,1-.165.692,3.588,3.588,0,0,1-1.6.387Zm-1.411-3.607h2.348a1.45,1.45,0,0,0-.268-.938,1,1,0,0,0-.824-.339,1.15,1.15,0,0,0-.814.319,1.592,1.592,0,0,0-.442.955Z" transform="translate(-718.248 -1224.212)" fill="#333"/>
            <path id="Path_2021" data-name="Path 2021" d="M896.632,1232.58a.665.665,0,0,1-.753-.752v-4.4c0-.413.216-.618.649-.618a.585.585,0,0,1,.659.556l.031.2h.041a2.71,2.71,0,0,1,1.876-.9q1.78,0,1.781,2.317v2.842a.757.757,0,0,1-1.514,0v-2.657a1.7,1.7,0,0,0-.19-.932.7.7,0,0,0-.624-.273,1.219,1.219,0,0,0-.618.165,3.544,3.544,0,0,0-.587.484v3.212a.664.664,0,0,1-.751.756Z" transform="translate(-719.067 -1224.212)" fill="#333"/>
            <path id="Path_2022" data-name="Path 2022" d="M905.575,1232.55q-1.9,0-1.9-2.164v-2.555h-.257a.5.5,0,0,1-.557-.576.518.518,0,0,1,.526-.588l.361-.03.113-.959a.594.594,0,0,1,.668-.586c.44,0,.66.208.66.628v.917h.824a.6.6,0,1,1,0,1.194h-.824v2.555c0,.645.262.968.783.968H906a.5.5,0,0,1,.668.442c.076.359-.035.579-.329.661a3.329,3.329,0,0,1-.764.093Z" transform="translate(-719.843 -1224.037)" fill="#333"/>
            <path id="Path_2023" data-name="Path 2023" d="M912.144,1232.36a.475.475,0,0,1-.5-.5v-6.448a.635.635,0,0,1,.67-.668h1.42a3.838,3.838,0,0,1,2.761.927,3.772,3.772,0,0,1,1.01,2.852,3.9,3.9,0,0,1-1,2.885,3.655,3.655,0,0,1-2.687.957H912.15Zm1.02-1.227h.472q2.309,0,2.308-2.615,0-2.565-2.308-2.565h-.472v5.18Z" transform="translate(-720.818 -1223.998)" fill="#333"/>
            <path id="Path_2024" data-name="Path 2024" d="M922.462,1232.72a2.728,2.728,0,0,1-2.028-.8,2.971,2.971,0,0,1-.836-2.215,3.123,3.123,0,0,1,.824-2.226,2.5,2.5,0,0,1,1.865-.812,2.214,2.214,0,0,1,1.8.783,3.026,3.026,0,0,1,.607,1.976c0,.124-.007.269-.021.433a.3.3,0,0,1-.123.181.4.4,0,0,1-.237.076h-3.245a1.64,1.64,0,0,0,.526,1.072,1.542,1.542,0,0,0,1.07.373,2.163,2.163,0,0,0,.8-.155.5.5,0,0,1,.763.235.459.459,0,0,1-.164.692A3.591,3.591,0,0,1,922.462,1232.72Zm-1.41-3.607H923.4a1.45,1.45,0,0,0-.268-.938,1,1,0,0,0-.825-.339,1.15,1.15,0,0,0-.813.319,1.581,1.581,0,0,0-.442.955Z" transform="translate(-721.702 -1224.212)" fill="#333"/>
            <path id="Path_2025" data-name="Path 2025" d="M928.567,1232.59a.522.522,0,0,1-.535-.38l-1.532-4.51c-.192-.584.009-.875.607-.875a.744.744,0,0,1,.792.6l.67,2.277c.063.234.158.593.289,1.081.076.3.133.517.174.668h.052c.09-.355.229-.883.422-1.584.02-.076.034-.131.041-.165l.679-2.308a.717.717,0,0,1,.753-.565q.864,0,.587.822l-1.473,4.429a.711.711,0,0,1-.273.371.747.747,0,0,1-.449.145h-.8Z" transform="translate(-722.461 -1224.23)" fill="#333"/>
            <path id="Path_2026" data-name="Path 2026" d="M936.193,1232.72a2.729,2.729,0,0,1-2.028-.8,2.971,2.971,0,0,1-.835-2.215,3.119,3.119,0,0,1,.825-2.226,2.5,2.5,0,0,1,1.864-.812,2.214,2.214,0,0,1,1.8.783,3.021,3.021,0,0,1,.607,1.976c0,.124-.007.269-.021.433a.293.293,0,0,1-.123.181.393.393,0,0,1-.237.076H934.8a1.64,1.64,0,0,0,.526,1.072,1.543,1.543,0,0,0,1.07.373,2.161,2.161,0,0,0,.8-.155.5.5,0,0,1,.764.235.46.46,0,0,1-.165.692,3.594,3.594,0,0,1-1.6.387Zm-1.41-3.607h2.348a1.449,1.449,0,0,0-.268-.938,1,1,0,0,0-.825-.339,1.15,1.15,0,0,0-.813.319,1.581,1.581,0,0,0-.442.955Z" transform="translate(-723.228 -1224.212)" fill="#333"/>
            <path id="Path_2027" data-name="Path 2027" d="M942.12,1232.43q-1.42,0-1.42-1.764v-5.849a.752.752,0,1,1,1.5,0v5.922c0,.3.1.453.309.453h.021a.171.171,0,0,1,.155.093.548.548,0,0,1,.083.2,1.541,1.541,0,0,1,0,.557c-.049.212-.142.334-.279.371A3.054,3.054,0,0,1,942.12,1232.43Z" transform="translate(-724.047 -1223.923)" fill="#333"/>
            <path id="Path_2028" data-name="Path 2028" d="M946.947,1232.72a2.623,2.623,0,0,1-1.925-.794,3.376,3.376,0,0,1,0-4.471,2.737,2.737,0,0,1,3.852,0,3.077,3.077,0,0,1,.844,2.245,3.03,3.03,0,0,1-.844,2.226,2.627,2.627,0,0,1-1.927.794Zm0-1.237a1.035,1.035,0,0,0,.906-.484,2.814,2.814,0,0,0,0-2.606,1.034,1.034,0,0,0-.906-.494,1.021,1.021,0,0,0-.907.494,2.813,2.813,0,0,0,0,2.606,1.04,1.04,0,0,0,.907.481Z" transform="translate(-724.433 -1224.212)" fill="#333"/>
            <path id="Path_2029" data-name="Path 2029" d="M952.821,1234.79a.665.665,0,0,1-.752-.751v-6.613c0-.413.219-.618.659-.618a.6.6,0,0,1,.67.535l.009.061h.042a2.671,2.671,0,0,1,1.7-.74,1.979,1.979,0,0,1,1.668.8,3.477,3.477,0,0,1,.6,2.134,3.394,3.394,0,0,1-.75,2.3,2.158,2.158,0,0,1-1.7.827,2.128,2.128,0,0,1-1.432-.628l.042.947v1a.664.664,0,0,1-.756.746Zm1.8-3.316a1.034,1.034,0,0,0,.885-.455,2.392,2.392,0,0,0,.35-1.4q0-1.711-1.142-1.708a1.685,1.685,0,0,0-1.144.6v2.533a1.6,1.6,0,0,0,1.053.436Z" transform="translate(-725.31 -1224.212)" fill="#333"/>
            <path id="Path_2030" data-name="Path 2030" d="M960.514,1232.58a.665.665,0,0,1-.752-.752v-4.4c0-.413.215-.618.648-.618a.586.586,0,0,1,.66.556l.03.216h.042a4.135,4.135,0,0,1,.783-.651,1.99,1.99,0,0,1,.989-.266,1.593,1.593,0,0,1,1.586,1.01,4.011,4.011,0,0,1,.834-.712,1.883,1.883,0,0,1,1-.3,1.593,1.593,0,0,1,1.359.618,2.839,2.839,0,0,1,.431,1.7v2.842a.757.757,0,0,1-1.514,0v-2.657a1.717,1.717,0,0,0-.2-.938.685.685,0,0,0-.607-.268,1.675,1.675,0,0,0-1.112.65v3.212a.758.758,0,1,1-1.515,0v-2.657a1.733,1.733,0,0,0-.2-.938.689.689,0,0,0-.607-.268,1.679,1.679,0,0,0-1.114.65v3.212a.664.664,0,0,1-.741.759Z" transform="translate(-726.165 -1224.212)" fill="#333"/>
            <path id="Path_2031" data-name="Path 2031" d="M973.622,1232.72a2.73,2.73,0,0,1-2.028-.8,2.974,2.974,0,0,1-.835-2.215,3.123,3.123,0,0,1,.824-2.226,2.5,2.5,0,0,1,1.865-.812,2.214,2.214,0,0,1,1.8.783,3.026,3.026,0,0,1,.607,1.976c0,.124-.007.269-.022.433a.292.292,0,0,1-.122.181.4.4,0,0,1-.237.076h-3.245a1.632,1.632,0,0,0,.526,1.072,1.543,1.543,0,0,0,1.07.373,2.161,2.161,0,0,0,.8-.155.5.5,0,0,1,.764.235.46.46,0,0,1-.165.692,3.587,3.587,0,0,1-1.6.387Zm-1.411-3.607h2.348a1.446,1.446,0,0,0-.268-.938,1,1,0,0,0-.824-.339,1.148,1.148,0,0,0-.813.319,1.587,1.587,0,0,0-.443.955Z" transform="translate(-727.387 -1224.212)" fill="#333"/>
            <path id="Path_2032" data-name="Path 2032" d="M978.881,1232.58a.665.665,0,0,1-.753-.752v-4.4c0-.413.216-.618.649-.618a.585.585,0,0,1,.659.556l.031.2h.041a2.713,2.713,0,0,1,1.876-.9q1.781,0,1.782,2.317v2.842a.757.757,0,1,1-1.515,0v-2.657a1.7,1.7,0,0,0-.19-.932.7.7,0,0,0-.623-.273,1.214,1.214,0,0,0-.618.165,3.533,3.533,0,0,0-.588.484v3.212a.664.664,0,0,1-.751.756Z" transform="translate(-728.205 -1224.212)" fill="#333"/>
            <path id="Path_2033" data-name="Path 2033" d="M987.827,1232.55q-1.9,0-1.9-2.164v-2.555h-.257a.5.5,0,0,1-.557-.576.518.518,0,0,1,.526-.588l.361-.03.114-.959a.593.593,0,0,1,.668-.586c.441,0,.66.208.66.628v.917h.825a.6.6,0,1,1,0,1.194h-.825v2.555c0,.645.262.968.783.968h.021a.5.5,0,0,1,.668.442q.114.539-.329.661a3.326,3.326,0,0,1-.758.093Z" transform="translate(-728.982 -1224.037)" fill="#333"/>
          </g>
        </g>
        <g id="Group_2386" data-name="Group 2386" transform="translate(77.047 3.141)">
          <path id="Path_2034" data-name="Path 2034" d="M713.642,1213.25a13.9,13.9,0,0,1-6.849-3.065l.025,1.006a.861.861,0,0,1-.849.952q-1.779.232-5.228.593-1.185.153-1.751.2a1.02,1.02,0,0,1-.876-.194,1.474,1.474,0,0,1-.359-.913,1.105,1.105,0,0,1,1.132-1.39l.747-.079v-3.115h-1.7a15.4,15.4,0,0,1-1.622,5,1.821,1.821,0,0,1-.9.785,1.377,1.377,0,0,1-1.106-.244q-1.367-.824-.362-2.394a17.21,17.21,0,0,0,1.468-7.751v-1.724a1.467,1.467,0,0,1,1.573-1.572h17.509a1.081,1.081,0,1,1,0,2.163h-15.58a.545.545,0,0,0-.618.618v.566q0,1.083-.077,2.371h16.944a.955.955,0,0,1,1.081,1.082.967.967,0,0,1-1.081,1.106h-.954l.747.619c.429.359.369.653-.18.876q-1.365.565-3.141,1.156a16.006,16.006,0,0,0,2.833.722,2.02,2.02,0,0,1,1.44.568q.337.488-.231,1.364a1.864,1.864,0,0,1-2.035.694Zm-16.378-14.7a1.59,1.59,0,0,1-1.674-1.675v-4.2a1.589,1.589,0,0,1,1.674-1.674h3.477v-.13a1.455,1.455,0,0,1,2.91,0v.13h2.471v-.077a1.494,1.494,0,1,1,2.988,0V1191h3.759a1.591,1.591,0,0,1,1.675,1.674v4.2a1.592,1.592,0,0,1-1.675,1.675h-15.6Zm1.108-4.659h2.369v-1.031h-1.855a.455.455,0,0,0-.514.516Zm.436,2.78h1.932v-1.031h-2.369v.593a.387.387,0,0,0,.439.437Zm1.7,7.544a.853.853,0,0,1-.954-.977.843.843,0,0,1,.954-.954h12.154a.843.843,0,0,1,.954.954.853.853,0,0,1-.954.977Zm2.086,5.845,3.682-.359a12.436,12.436,0,0,1-.954-1.161,8.827,8.827,0,0,1-.85-1.286H702.6Zm1.056-16.17h2.471v-1.031H703.65Zm0,2.78h2.471v-1.031H703.65Zm5.586,12.078q1.108-.44,3.116-1.5h-4.815a8.1,8.1,0,0,0,1.7,1.5Zm-.127-14.859h2.524v-.593a.389.389,0,0,0-.438-.438H709.11Zm0,2.78h1.983a.478.478,0,0,0,.54-.541v-.491h-2.524Z" transform="translate(-693.517 -1189.407)" fill="#333"/>
          <path id="Path_2035" data-name="Path 2035" d="M728.7,1213.46a1.309,1.309,0,0,1-1.493-1.468v-8.628a27.763,27.763,0,0,1-1.957,4.121c-.429.618-.8.911-1.107.875s-.636-.384-.979-1.056a2.074,2.074,0,0,1-.284-1.054,1.77,1.77,0,0,1,.438-.979,24.687,24.687,0,0,0,3.555-7.673h-2.112a1.443,1.443,0,1,1,0-2.885H727.2V1190.9a1.482,1.482,0,1,1,2.963,0v3.812H732.1a1.443,1.443,0,1,1,0,2.885h-1.931v1.494q1.183,1.235,3.166,3.655a1.108,1.108,0,0,1,.334.825,2.417,2.417,0,0,1-.463.876q-.618.823-1.082.822c-.327,0-.652-.291-.979-.876q-.308-.487-.977-1.517v9.116a1.3,1.3,0,0,1-1.468,1.468Zm8.729-1.262q-.668-1.984,2.009-1.879c.206,0,.456-.009.747-.025h.336a.747.747,0,0,0,.5-.13.648.648,0,0,0,.142-.489v-12.1h-5.486a1.459,1.459,0,1,1,0-2.909h5.486V1191a1.544,1.544,0,0,1,3.089,0v3.657h1.133a1.455,1.455,0,0,1,0,2.909H744.25v12.154a5.208,5.208,0,0,1-.321,2.06,2.145,2.145,0,0,1-1.094,1.081,8.952,8.952,0,0,1-3.09.593q-1.856.056-2.319-1.254Zm.155-5.975c-.324-.1-.574-.427-.745-.977-.241-.567-.448-1.038-.62-1.417q-.384-.823-.977-1.854a1.182,1.182,0,0,1,.591-1.931,1.289,1.289,0,0,1,1.828.463,22.491,22.491,0,0,1,2.036,3.837,1.127,1.127,0,0,1-.026.977,1.708,1.708,0,0,1-.8.672,1.8,1.8,0,0,1-1.29.227Z" transform="translate(-696.779 -1189.407)" fill="#333"/>
          <path id="Path_2036" data-name="Path 2036" d="M754.357,1212.27q-1.443-1.391.772-2.831a18.548,18.548,0,0,0,6.54-9.812,36.532,36.532,0,0,0,1.211-8.473.945.945,0,0,1,.489-.926,3.916,3.916,0,0,1,1.262-.13h.13a1.675,1.675,0,0,1,1.146.374,1.254,1.254,0,0,1,.4,1.044v.05a28.721,28.721,0,0,0,1.545,8.061,19.148,19.148,0,0,0,6.747,9.5,4.051,4.051,0,0,1,1.544,1.416,1.34,1.34,0,0,1-.206,1.674q-.979,1.08-2.677.155-5.949-3.864-8.371-11.974a21.953,21.953,0,0,1-7.776,11.8Q755.436,1213.33,754.357,1212.27Z" transform="translate(-700.214 -1189.481)" fill="#333"/>
          <path id="Path_2037" data-name="Path 2037" d="M789.9,1212.24q-.723-1.932,2.008-1.881h1.39a.868.868,0,0,0,.554-.165.747.747,0,0,0,.141-.528l-.025-3.632a54.648,54.648,0,0,1-7.778,2.91,1.652,1.652,0,0,1-2.136-.8,1.462,1.462,0,0,1-.233-1.418,1.966,1.966,0,0,1,1.315-.772,53.577,53.577,0,0,0,8.807-3.346l-.028-5.59H785.47a1.506,1.506,0,0,1,0-3.012h8.42l-.025-2.962a1.622,1.622,0,1,1,3.244-.025l.026,2.987h7.725a1.506,1.506,0,1,1,0,3.012h-7.7l.025,3.787a25.569,25.569,0,0,0,3.167-2.267,1.716,1.716,0,0,1,1.081-.539,2.053,2.053,0,0,1,1.186.384q1.724,1.083.232,2.344a44.256,44.256,0,0,1-5.641,3.683l.028,5.253a5.3,5.3,0,0,1-.336,2.124,2.165,2.165,0,0,1-1.184,1.1,10.172,10.172,0,0,1-3.477.59Q790.385,1213.53,789.9,1212.24Z" transform="translate(-703.539 -1189.404)" fill="#333"/>
          <path id="Path_2038" data-name="Path 2038" d="M814.276,1209.4a2.288,2.288,0,0,1-.733-2.317,1.5,1.5,0,0,1,.952-.722q.311-.1.954-.334c.378-.136.66-.241.85-.308V1198.4h-1.186a1.443,1.443,0,0,1,0-2.885H816.3v-4.4a1.417,1.417,0,0,1,2.833,0v4.4h.952a1.443,1.443,0,0,1,0,2.885h-.952v6.258l1.183-.438q1.469-.592,1.829.979a1.41,1.41,0,0,1-.9,1.776q-3.759,1.6-5.742,2.369A1.4,1.4,0,0,1,814.276,1209.4Zm8.253-8.035a1.378,1.378,0,0,1,0-2.755h2.292a15.7,15.7,0,0,0-.362-1.674,1.447,1.447,0,0,1,.077-1.172,1.374,1.374,0,0,1,.954-.655l.232-.054H823.2a1.364,1.364,0,0,1,0-2.728h4.532v-1.288a1.506,1.506,0,0,1,3.012,0v1.288h4.584a1.364,1.364,0,1,1,0,2.728H833.32l.9.209a.639.639,0,0,1,.464.334.717.717,0,0,1-.027.618q-.644,1.648-1,2.394h2.112a1.378,1.378,0,0,1,0,2.755H822.53Zm2.317,10.892a1.593,1.593,0,0,1-1.675-1.672v-5.64a1.594,1.594,0,0,1,1.675-1.675h9.116a1.592,1.592,0,0,1,1.675,1.675v5.64a1.59,1.59,0,0,1-1.675,1.672Zm1.828-2.78h5.3a.546.546,0,0,0,.618-.618v-2.24a.545.545,0,0,0-.618-.618h-5.3a.546.546,0,0,0-.618.618v2.24a.546.546,0,0,0,.619.621Zm-.18-10.868h5.561l-.668-.181a.429.429,0,0,1-.361-.591,17.676,17.676,0,0,0,.748-2.782H826.83a11.266,11.266,0,0,1,.722,2.19,1.1,1.1,0,0,1-.181.836,1.267,1.267,0,0,1-.8.5Z" transform="translate(-706.843 -1189.42)" fill="#333"/>
          <path id="Path_2039" data-name="Path 2039" d="M863.088,1199.37l-.387-.386-.2-.2q-8.961.308-16.379.489a.911.911,0,0,1-.875-.334,1.9,1.9,0,0,1-.231-1.005,1.217,1.217,0,0,1,1.338-1.416l2.163-.025q.464-.671,1.288-2.112a.229.229,0,0,1,.052-.077H845.4a1.339,1.339,0,0,1,0-2.678h8.42v-.644a1.545,1.545,0,1,1,3.09,0v.644h8.421a1.339,1.339,0,0,1,0,2.678h-3.709a38.352,38.352,0,0,1,4.043,3.321q.593.593.464,1.082a1.787,1.787,0,0,1-.85.926,1.529,1.529,0,0,1-2.191-.258Zm-14.035,14.111a1.341,1.341,0,0,1-1.517-1.517v-10.02a1.589,1.589,0,0,1,1.672-1.672h12.439a1.589,1.589,0,0,1,1.672,1.672v8.679a3.423,3.423,0,0,1-.308,1.635,1.929,1.929,0,0,1-1.107.837,11.4,11.4,0,0,1-3.219.386,1.639,1.639,0,0,1-1.752-.979c-.188-.5-.129-.866.182-1.107a1.911,1.911,0,0,1,1.313-.284c.238,0,.541-.007.9-.025h.309a.756.756,0,0,0,.463-.1.471.471,0,0,0,.13-.385v-1.186h-9.657v2.551a1.342,1.342,0,0,1-1.519,1.514Zm1.52-9.5h9.657v-.7a.479.479,0,0,0-.541-.541h-8.5a.547.547,0,0,0-.618.618Zm0,3.321h9.657v-1.236h-9.657Zm1.339-10.84,4.042-.077q2.5-.027,3.76-.051-.284-.259-.9-.722-.721-.567.077-1.082l.387-.231H853.69q-.773,1-1.777,2.161Z" transform="translate(-710.244 -1189.407)" fill="#333"/>
          <path id="Path_2040" data-name="Path 2040" d="M875.193,1213.1a1.252,1.252,0,1,1,0-2.5h2.472v-2.421a1.455,1.455,0,0,1,2.909,0v2.421h3.4v-4.713h-7.313a1.211,1.211,0,0,1,0-2.421h17.664a1.211,1.211,0,0,1,0,2.421h-7.416v1.211h5.485a.978.978,0,0,1,1.107,1.106.989.989,0,0,1-1.107,1.133h-5.485v1.263h8.961a1.252,1.252,0,1,1,0,2.5Zm19.286-10.479a12.968,12.968,0,0,1-3.09-2.01,13.839,13.839,0,0,1-3.141,1.931,1.981,1.981,0,0,1-1.325.1,1.8,1.8,0,0,1-1.019-.748c-.309-.359-.591-.668-.85-.926l-.54.7a.7.7,0,0,1-.424.308.516.516,0,0,1-.426-.077q-.491-.36-1.674-1.211c-.275-.188-.48-.324-.618-.411v1.338a1.326,1.326,0,1,1-2.652,0v-1.131a17.846,17.846,0,0,1-2.446,2.008,1.136,1.136,0,0,1-1.675-.259c-.343-.4-.476-.724-.4-.991s.356-.517.836-.758a13.607,13.607,0,0,0,2.6-1.828h-1.546a1.291,1.291,0,0,1-1.391-1.39v-1.932a1.592,1.592,0,0,1,1.675-1.675h2.344v-.875h-3.58a.9.9,0,0,1-1-1.029.888.888,0,0,1,1-1h3.58v-.051q0-1.261,1.338-1.261,1.316,0,1.314,1.261v.051h3.5a.888.888,0,0,1,1,1.005.9.9,0,0,1-1,1.029h-3.5v.875h2.782a1.286,1.286,0,0,1,1.364,1.365v.079a12.088,12.088,0,0,0,2.677-4.3,1.341,1.341,0,0,1,1.752-1.029,1.125,1.125,0,0,1,.926,1.675,2.121,2.121,0,0,1-.1.294c-.052.129-.1.23-.129.3h5.124a1.21,1.21,0,1,1,0,2.42H895.3a13.022,13.022,0,0,1-2.113,4.3,12.385,12.385,0,0,0,2.319,1.339,2.02,2.02,0,0,1,1.209.8,1.261,1.261,0,0,1-.282,1.288,1.487,1.487,0,0,1-1.953.43Zm-16.814-5.77h1.056v-1.39h-1.34a.3.3,0,0,0-.333.334v.438a.545.545,0,0,0,.617.617Zm3.708,0h1.313a.3.3,0,0,0,.336-.334v-.438a.546.546,0,0,0-.618-.618h-1.031Zm3.734,4.07a14.27,14.27,0,0,0,2.446-.929,10.355,10.355,0,0,0,2.008-1.262,16.206,16.206,0,0,1-1.468-2.238,1.841,1.841,0,0,0-.154.18,5.243,5.243,0,0,1-.489.514.693.693,0,0,1-.491.234.568.568,0,0,1-.412-.234,13.965,13.965,0,0,0-1.03-1.132v1.39a1.116,1.116,0,0,1-1.209,1.211h-1.983l.359.179q1.88.981,2.5,1.313a.409.409,0,0,1,.129.283.713.713,0,0,1-.155.437Zm6.129-3.966a8.2,8.2,0,0,0,1.183-2.5h-2.832a11.183,11.183,0,0,0,.722,1.263q.436.612.927,1.232Z" transform="translate(-713.566 -1189.407)" fill="#333"/>
          <path id="Path_2041" data-name="Path 2041" d="M905.505,1200.68a1.508,1.508,0,0,1-.979-.683,1.363,1.363,0,0,1-.334-1.338,2.135,2.135,0,0,1,1.081-1.006,27.053,27.053,0,0,0,4.609-3.527,24.335,24.335,0,0,0,3.451-3.887,1.946,1.946,0,0,1,.683-.541,2.037,2.037,0,0,1,.939-.231h.927a2.079,2.079,0,0,1,1.726.875,25.256,25.256,0,0,0,8.5,7.158,1.87,1.87,0,0,1,1.094.98,1.7,1.7,0,0,1-.426,1.39,1.625,1.625,0,0,1-.99.732,1.991,1.991,0,0,1-1.25-.3q-1.235-.747-2.524-1.672v.977a.7.7,0,0,1-.8.8H910.991a1.589,1.589,0,0,1-1.674-1.674v-.128a29.116,29.116,0,0,1-2.6,1.752A2.037,2.037,0,0,1,905.505,1200.68Zm3.812,11.884a1.59,1.59,0,0,1-1.674-1.673v-6.258a1.589,1.589,0,0,1,1.674-1.674H922.14a1.591,1.591,0,0,1,1.675,1.674v6.258a1.592,1.592,0,0,1-1.675,1.673Zm1.158-14.857h9.682c.413,0,.447-.139.1-.413a27.9,27.9,0,0,1-4.711-4.816,25.593,25.593,0,0,1-5.071,5.222Zm.772,12.153h8.832a.546.546,0,0,0,.618-.618v-2.962a.546.546,0,0,0-.618-.618h-8.832a.546.546,0,0,0-.618.618v2.962a.546.546,0,0,0,.619.618Z" transform="translate(-716.918 -1189.411)" fill="#333"/>
          <path id="Path_2042" data-name="Path 2042" d="M945.654,1213.66a1.378,1.378,0,0,1-1.572-1.547v-6.951h-8.266a1.545,1.545,0,0,1,0-3.09h8.266v-7.8H937.1a1.52,1.52,0,0,1,0-3.039h17.228a1.52,1.52,0,0,1,0,3.039H947.2v7.8h8.575a1.545,1.545,0,0,1,0,3.09H947.2v6.951a1.367,1.367,0,0,1-1.546,1.547Zm-8.164-12.54a1.484,1.484,0,0,1-.748-1.045,1.769,1.769,0,0,1,.593-1.2,15.269,15.269,0,0,0,1.828-2.78,1.5,1.5,0,0,1,1.983-.876q1.647.439.875,1.983a3.263,3.263,0,0,0-.2.334q-.593.98-.929,1.469a15.576,15.576,0,0,1-1.39,1.853,1.388,1.388,0,0,1-2.011.262Zm16.365-.129a1.776,1.776,0,0,1-1.236.257,1.521,1.521,0,0,1-.889-.85q-.385-.644-.98-1.469-.463-.7-1.236-1.647-1.08-1.312.463-2.036a1.432,1.432,0,0,1,1.828.309,32.8,32.8,0,0,1,2.756,3.555,1.223,1.223,0,0,1,.207,1.081,1.93,1.93,0,0,1-.912.8Z" transform="translate(-720.268 -1189.607)" fill="#333"/>
          <path id="Path_2043" data-name="Path 2043" d="M984.2,1199.89c-.155-.223-.387-.524-.7-.9q-2.423.129-7.34.359-1.829.077-2.7.129c-.687.036-1.683.077-2.987.13q-2.961.1-4.25.154a1.258,1.258,0,0,1-1.054-.333,1.954,1.954,0,0,1-.336-1.136q-.076-1.6,1.39-1.62.695,0,2.242-.052h.2a43.648,43.648,0,0,0,3.116-5.82,1.556,1.556,0,0,1,2.24-1q1.881.593.9,2.395-1.287,2.293-2.6,4.3,2.935-.1,8.652-.362l-.618-.6-.593-.579q-1.236-1.108.1-2.138a1.4,1.4,0,0,1,1.983.052,34.584,34.584,0,0,1,5.2,5.381,1.3,1.3,0,0,1,.259,1.056,2.052,2.052,0,0,1-.748.927,1.429,1.429,0,0,1-2.356-.343Zm-15.091,12.566a1.589,1.589,0,0,1-1.674-1.674v-6.954a1.589,1.589,0,0,1,1.674-1.674h13.648a1.589,1.589,0,0,1,1.674,1.674v6.954a1.589,1.589,0,0,1-1.674,1.674Zm2.06-2.937h9.99v-4.454h-9.99a.546.546,0,0,0-.618.618v3.219a.546.546,0,0,0,.618.618Z" transform="translate(-723.663 -1189.43)" fill="#333"/>
        </g>
        <g id="Group_2387" data-name="Group 2387">
          <path id="Path_2044" data-name="Path 2044" d="M620.634,1213.81H606.839v17.474h36.125a23.04,23.04,0,0,0-22.33-17.474Zm-6.419,7.8a.755.755,0,1,0,0-.01Zm5.517,5.518a.751.751,0,1,0,0-.008Zm5.518-5.518a.788.788,0,1,0,0-.01Z" transform="translate(-606.839 -1188.974)" fill="#e2b574"/>
          <path id="Path_2045" data-name="Path 2045" d="M669.377,1204.26v-4.911a13.478,13.478,0,0,0-13.483-13.482H620.322a13.478,13.478,0,0,0-13.483,13.482v5.831h13.795a28.485,28.485,0,0,1,27.958,22.992h20.785v-18.394H661.1a22.846,22.846,0,0,0-13.409,4.341,30.815,30.815,0,0,0-4.065-3.844,28.417,28.417,0,0,1,17.474-6.015Zm-34.469-2.207c-7.247-3.476-2.723-6.7-4.672-11.937,4.065,1.949,5.72,4.745,5.72,7.688a9.781,9.781,0,0,1-1.049,4.256Zm2.814,3.292c-.4-11.808,6.86-8.13,12.36-14.236.019.294.019.571.019.865,0,9.166-5.482,13.136-12.379,13.376Z" transform="translate(-606.839 -1185.87)" fill="url(#linear-gradient)"/>
        </g>
      </g>
    </g>
  </g>
</svg>
