<svg xmlns="http://www.w3.org/2000/svg" xmlns:xlink="http://www.w3.org/1999/xlink" width="283.667" height="35.73" viewBox="0 0 283.667 35.73">
  <defs>
    <linearGradient id="linear-gradient" x1="0.5" x2="0.5" y2="1" gradientUnits="objectBoundingBox">
      <stop offset="0" stop-color="#99d848"/>
      <stop offset="1" stop-color="#74b504"/>
    </linearGradient>
  </defs>
  <g id="Group_2379" data-name="Group 2379" transform="translate(-598.975 -1185.775)">
    <g id="Group_2380" data-name="Group 2380" transform="translate(664.615 1212.074)">
      <g id="Group_2379-2" data-name="Group 2379" transform="translate(0 0)">
        <path id="Path_1936" data-name="Path 1936" d="M691.309,1223.7h1.035v6.567h-1.035Z" transform="translate(-691.309 -1223.038)" fill="#333"/>
        <path id="Path_1937" data-name="Path 1937" d="M695.317,1225.982h.838l.08.678h.027a2.34,2.34,0,0,1,1.624-.8c1.044,0,1.507.7,1.507,1.945v3.087h-1.026v-2.962c0-.848-.249-1.187-.83-1.187a1.675,1.675,0,0,0-1.2.669v3.48h-1.017Z" transform="translate(-692.468 -1223.662)" fill="#333"/>
        <path id="Path_1938" data-name="Path 1938" d="M703.34,1228.782V1226.3h-.713v-.768l.758-.053.115-1.356h.866v1.356h1.276v.822h-1.276v2.489c0,.588.205.891.713.891a1.462,1.462,0,0,0,.526-.115l.188.757a3.13,3.13,0,0,1-.965.18C703.724,1230.505,703.34,1229.818,703.34,1228.782Z" transform="translate(-694.581 -1223.161)" fill="#333"/>
        <path id="Path_1939" data-name="Path 1939" d="M707.925,1228.445a2.384,2.384,0,0,1,2.24-2.588c1.3,0,2,.937,2,2.329a2.639,2.639,0,0,1-.045.518h-3.185a1.481,1.481,0,0,0,1.517,1.5,2.074,2.074,0,0,0,1.169-.365l.358.653a2.992,2.992,0,0,1-1.66.518A2.358,2.358,0,0,1,707.925,1228.445Zm3.355-.446c0-.848-.384-1.339-1.1-1.339a1.331,1.331,0,0,0-1.257,1.339Z" transform="translate(-696.113 -1223.662)" fill="#333"/>
        <path id="Path_1940" data-name="Path 1940" d="M715.124,1231.8a1.3,1.3,0,0,1,.714-1.07v-.045a.9.9,0,0,1-.447-.812,1.21,1.21,0,0,1,.545-.91v-.035a1.683,1.683,0,0,1-.642-1.3,1.77,1.77,0,0,1,1.9-1.766,2.028,2.028,0,0,1,.713.125h1.74v.768h-.936a1.319,1.319,0,0,1,.322.9,1.677,1.677,0,0,1-1.839,1.685,1.731,1.731,0,0,1-.687-.15.646.646,0,0,0-.267.517c0,.292.2.481.821.481h.9c1.16,0,1.768.358,1.768,1.2,0,.945-1,1.713-2.569,1.713C715.981,1233.093,715.124,1232.655,715.124,1231.8Zm3.613-.259c0-.41-.321-.534-.918-.534h-.741a3.109,3.109,0,0,1-.66-.073.886.886,0,0,0-.419.714c0,.482.5.768,1.31.768C718.166,1232.415,718.737,1232,718.737,1231.54Zm-.614-3.916a.935.935,0,1,0-1.857,0,.936.936,0,1,0,1.857,0Z" transform="translate(-698.194 -1223.662)" fill="#333"/>
        <path id="Path_1941" data-name="Path 1941" d="M723.136,1225.982h.838l.08.884h.027a1.7,1.7,0,0,1,1.392-1.009,1.218,1.218,0,0,1,.553.107l-.188.893a1.445,1.445,0,0,0-.491-.082c-.4,0-.883.277-1.2,1.053v3.06h-1.017Z" transform="translate(-700.51 -1223.662)" fill="#333"/>
        <path id="Path_1942" data-name="Path 1942" d="M727.771,1229.587c0-1.053.892-1.6,2.935-1.821-.008-.571-.214-1.069-.937-1.069a2.7,2.7,0,0,0-1.419.5l-.384-.7a3.771,3.771,0,0,1,1.982-.643c1.222,0,1.784.776,1.784,2.079v2.954h-.84l-.089-.562h-.026a2.446,2.446,0,0,1-1.561.678A1.357,1.357,0,0,1,727.771,1229.587Zm2.935.035v-1.2c-1.454.177-1.945.544-1.945,1.1,0,.481.331.678.768.678A1.73,1.73,0,0,0,730.706,1229.622Z" transform="translate(-701.85 -1223.662)" fill="#333"/>
        <path id="Path_1943" data-name="Path 1943" d="M735.369,1228.782V1226.3h-.713v-.768l.758-.053.115-1.356h.867v1.356h1.275v.822H736.4v2.489c0,.588.205.891.713.891a1.466,1.466,0,0,0,.526-.115l.188.757a3.139,3.139,0,0,1-.965.18C735.753,1230.505,735.369,1229.818,735.369,1228.782Z" transform="translate(-703.841 -1223.161)" fill="#333"/>
        <path id="Path_1944" data-name="Path 1944" d="M739.954,1228.445a2.384,2.384,0,0,1,2.24-2.588c1.3,0,2,.937,2,2.329a2.7,2.7,0,0,1-.045.518h-3.186a1.482,1.482,0,0,0,1.518,1.5,2.075,2.075,0,0,0,1.169-.365l.357.653a2.989,2.989,0,0,1-1.659.518A2.358,2.358,0,0,1,739.954,1228.445Zm3.355-.446c0-.848-.384-1.339-1.1-1.339a1.331,1.331,0,0,0-1.258,1.339Z" transform="translate(-705.372 -1223.662)" fill="#333"/>
        <path id="Path_1945" data-name="Path 1945" d="M747.327,1227.6a2.323,2.323,0,0,1,2.1-2.588,1.9,1.9,0,0,1,1.321.553l-.045-.812v-1.82h1.027v7.111H750.9l-.09-.553h-.027a2.057,2.057,0,0,1-1.427.67C748.121,1230.161,747.327,1229.224,747.327,1227.6Zm3.381,1.115v-2.4a1.531,1.531,0,0,0-1.079-.447c-.687,0-1.241.651-1.241,1.713,0,1.115.438,1.731,1.2,1.731A1.441,1.441,0,0,0,750.708,1228.715Z" transform="translate(-707.504 -1222.816)" fill="#333"/>
        <path id="Path_1946" data-name="Path 1946" d="M759.157,1223.7h1.99c1.463,0,2.507.5,2.507,1.98,0,1.437-1.044,2.1-2.472,2.1h-.99v2.49h-1.035Zm1.928,3.247c1.052,0,1.551-.4,1.551-1.268s-.544-1.15-1.587-1.15h-.857v2.418Z" transform="translate(-710.924 -1223.038)" fill="#333"/>
        <path id="Path_1947" data-name="Path 1947" d="M767.408,1228.892v-5.959h1.017v6.012c0,.278.125.376.25.376a.684.684,0,0,0,.168-.018l.134.776a1.624,1.624,0,0,1-.552.082C767.685,1230.161,767.408,1229.687,767.408,1228.892Z" transform="translate(-713.309 -1222.816)" fill="#333"/>
        <path id="Path_1948" data-name="Path 1948" d="M771,1229.587c0-1.053.891-1.6,2.935-1.821-.008-.571-.214-1.069-.937-1.069a2.7,2.7,0,0,0-1.419.5l-.384-.7a3.768,3.768,0,0,1,1.981-.643c1.222,0,1.785.776,1.785,2.079v2.954h-.84l-.089-.562h-.026a2.448,2.448,0,0,1-1.561.678A1.357,1.357,0,0,1,771,1229.587Zm2.935.035v-1.2c-1.454.177-1.945.544-1.945,1.1,0,.481.331.678.768.678A1.731,1.731,0,0,0,773.936,1229.622Z" transform="translate(-714.348 -1223.662)" fill="#333"/>
        <path id="Path_1949" data-name="Path 1949" d="M778.6,1228.782V1226.3h-.713v-.768l.759-.053.115-1.356h.867v1.356H780.9v.822h-1.275v2.489c0,.588.2.891.713.891a1.459,1.459,0,0,0,.525-.115l.188.757a3.131,3.131,0,0,1-.965.18C778.982,1230.505,778.6,1229.818,778.6,1228.782Z" transform="translate(-716.338 -1223.161)" fill="#333"/>
        <path id="Path_1950" data-name="Path 1950" d="M786.067,1223.706a1.358,1.358,0,0,0-.536-.124c-.437,0-.651.285-.651.883v.624h.99v.822h-.99V1230h-1.027v-4.086h-.668v-.768l.668-.053v-.616c0-1.007.456-1.7,1.553-1.7a2.263,2.263,0,0,1,.867.17Z" transform="translate(-717.87 -1222.769)" fill="#333"/>
        <path id="Path_1951" data-name="Path 1951" d="M787.844,1228.445a2.323,2.323,0,1,1,2.31,2.561A2.371,2.371,0,0,1,787.844,1228.445Zm3.568,0c0-1.045-.483-1.74-1.258-1.74s-1.25.695-1.25,1.74.482,1.722,1.25,1.722S791.412,1229.478,791.412,1228.445Z" transform="translate(-719.217 -1223.662)" fill="#333"/>
        <path id="Path_1952" data-name="Path 1952" d="M796.3,1225.982h.838l.08.884h.027a1.7,1.7,0,0,1,1.392-1.009,1.216,1.216,0,0,1,.553.107l-.187.893a1.452,1.452,0,0,0-.491-.082c-.4,0-.883.277-1.2,1.053v3.06H796.3Z" transform="translate(-721.661 -1223.662)" fill="#333"/>
        <path id="Path_1953" data-name="Path 1953" d="M801.684,1225.982h.838l.08.687h.027a2.137,2.137,0,0,1,1.517-.812,1.308,1.308,0,0,1,1.356.9,2.263,2.263,0,0,1,1.6-.9c1.025,0,1.507.7,1.507,1.945v3.087h-1.027v-2.962c0-.848-.267-1.187-.82-1.187a1.638,1.638,0,0,0-1.107.669v3.48h-1.026v-2.962c0-.848-.259-1.187-.82-1.187a1.657,1.657,0,0,0-1.106.669v3.48h-1.017Z" transform="translate(-723.219 -1223.662)" fill="#333"/>
        <path id="Path_1954" data-name="Path 1954" d="M819.023,1223.706a1.351,1.351,0,0,0-.536-.124c-.437,0-.651.285-.651.883v.624h.99v.822h-.99V1230H816.81v-4.086h-.668v-.768l.668-.053v-.616c0-1.007.456-1.7,1.553-1.7a2.263,2.263,0,0,1,.867.17Z" transform="translate(-727.398 -1222.769)" fill="#333"/>
        <path id="Path_1955" data-name="Path 1955" d="M820.8,1228.445a2.324,2.324,0,1,1,2.313,2.561A2.373,2.373,0,0,1,820.8,1228.445Zm3.569,0c0-1.045-.482-1.74-1.257-1.74s-1.25.695-1.25,1.74.483,1.722,1.25,1.722S824.367,1229.478,824.367,1228.445Z" transform="translate(-728.744 -1223.662)" fill="#333"/>
        <path id="Path_1956" data-name="Path 1956" d="M829.252,1225.982h.838l.08.884h.026a1.7,1.7,0,0,1,1.393-1.009,1.215,1.215,0,0,1,.552.107l-.187.893a1.445,1.445,0,0,0-.49-.082c-.4,0-.884.277-1.2,1.053v3.06h-1.017Z" transform="translate(-731.188 -1223.662)" fill="#333"/>
        <path id="Path_1957" data-name="Path 1957" d="M841.429,1230.266l-1.491-2.65h-1.062v2.65h-1.035V1223.7h2.151c1.356,0,2.374.481,2.374,1.9a1.829,1.829,0,0,1-1.374,1.883l1.606,2.784Zm-2.553-3.48h.99c.955,0,1.472-.392,1.472-1.187s-.518-1.071-1.472-1.071h-.99Z" transform="translate(-733.671 -1223.038)" fill="#333"/>
        <path id="Path_1958" data-name="Path 1958" d="M846.109,1229.12v-3.087h1.025V1229c0,.846.24,1.178.821,1.178.454,0,.766-.215,1.177-.732v-3.408h1.027v4.907h-.84l-.08-.742h-.026a2.06,2.06,0,0,1-1.606.858C846.563,1231.057,846.109,1230.369,846.109,1229.12Z" transform="translate(-736.062 -1223.713)" fill="#333"/>
        <path id="Path_1959" data-name="Path 1959" d="M854.234,1225.982h.838l.08.884h.027a1.7,1.7,0,0,1,1.393-1.009,1.215,1.215,0,0,1,.552.107l-.187.893a1.453,1.453,0,0,0-.491-.082c-.4,0-.883.277-1.195,1.053v3.06h-1.017Z" transform="translate(-738.411 -1223.662)" fill="#333"/>
        <path id="Path_1960" data-name="Path 1960" d="M858.869,1229.587c0-1.053.891-1.6,2.935-1.821-.008-.571-.213-1.069-.936-1.069a2.7,2.7,0,0,0-1.419.5l-.384-.7a3.769,3.769,0,0,1,1.981-.643c1.222,0,1.785.776,1.785,2.079v2.954h-.84l-.089-.562h-.027a2.447,2.447,0,0,1-1.561.678A1.356,1.356,0,0,1,858.869,1229.587Zm2.935.035v-1.2c-1.454.177-1.945.544-1.945,1.1,0,.481.331.678.768.678A1.729,1.729,0,0,0,861.8,1229.622Z" transform="translate(-739.751 -1223.662)" fill="#333"/>
        <path id="Path_1961" data-name="Path 1961" d="M866.742,1228.892v-5.959h1.017v6.012c0,.278.125.376.25.376a.686.686,0,0,0,.169-.018l.134.776a1.625,1.625,0,0,1-.552.082C867.019,1230.161,866.742,1229.687,866.742,1228.892Z" transform="translate(-742.027 -1222.816)" fill="#333"/>
        <path id="Path_1962" data-name="Path 1962" d="M875.039,1224.566h-1.927v-.867h4.9v.867h-1.935v5.7h-1.035Z" transform="translate(-743.868 -1223.038)" fill="#333"/>
        <path id="Path_1963" data-name="Path 1963" d="M880.333,1229.587c0-1.053.891-1.6,2.935-1.821-.008-.571-.214-1.069-.937-1.069a2.7,2.7,0,0,0-1.419.5l-.384-.7a3.771,3.771,0,0,1,1.982-.643c1.222,0,1.784.776,1.784,2.079v2.954h-.84l-.089-.562h-.026a2.447,2.447,0,0,1-1.561.678A1.357,1.357,0,0,1,880.333,1229.587Zm2.935.035v-1.2c-1.454.177-1.945.544-1.945,1.1,0,.481.331.678.768.678A1.731,1.731,0,0,0,883.268,1229.622Z" transform="translate(-745.956 -1223.662)" fill="#333"/>
        <path id="Path_1964" data-name="Path 1964" d="M888.207,1228.892v-5.959h1.017v6.012c0,.278.125.376.25.376a.689.689,0,0,0,.169-.018l.134.776a1.632,1.632,0,0,1-.553.082C888.484,1230.161,888.207,1229.687,888.207,1228.892Z" transform="translate(-748.232 -1222.816)" fill="#333"/>
        <path id="Path_1965" data-name="Path 1965" d="M891.712,1228.445a2.383,2.383,0,0,1,2.239-2.588c1.3,0,2,.937,2,2.329a2.7,2.7,0,0,1-.045.518h-3.186a1.481,1.481,0,0,0,1.517,1.5,2.072,2.072,0,0,0,1.169-.365l.358.653a2.99,2.99,0,0,1-1.66.518A2.357,2.357,0,0,1,891.712,1228.445Zm3.355-.446c0-.848-.385-1.339-1.1-1.339a1.331,1.331,0,0,0-1.258,1.339Z" transform="translate(-749.246 -1223.662)" fill="#333"/>
        <path id="Path_1966" data-name="Path 1966" d="M899.548,1225.982h.838l.08.678h.027a2.34,2.34,0,0,1,1.624-.8c1.044,0,1.507.7,1.507,1.945v3.087H902.6v-2.962c0-.848-.249-1.187-.83-1.187a1.675,1.675,0,0,0-1.2.669v3.48h-1.017Z" transform="translate(-751.511 -1223.662)" fill="#333"/>
        <path id="Path_1967" data-name="Path 1967" d="M907.573,1228.782V1226.3h-.713v-.768l.758-.053.116-1.356h.866v1.356h1.276v.822H908.6v2.489c0,.588.205.891.713.891a1.463,1.463,0,0,0,.526-.115l.188.757a3.133,3.133,0,0,1-.963.18C907.957,1230.505,907.573,1229.818,907.573,1228.782Z" transform="translate(-753.625 -1223.161)" fill="#333"/>
        <path id="Path_1968" data-name="Path 1968" d="M916.063,1223.7h1.7c2.017,0,3.167,1.115,3.167,3.257s-1.15,3.309-3.114,3.309h-1.758Zm1.633,5.719c1.41,0,2.168-.83,2.168-2.461s-.758-2.419-2.168-2.419h-.6v4.88Z" transform="translate(-756.286 -1223.038)" fill="#333"/>
        <path id="Path_1969" data-name="Path 1969" d="M924.481,1228.445a2.383,2.383,0,0,1,2.239-2.588c1.3,0,2,.937,2,2.329a2.648,2.648,0,0,1-.045.518h-3.186a1.481,1.481,0,0,0,1.518,1.5,2.076,2.076,0,0,0,1.169-.365l.357.653a2.99,2.99,0,0,1-1.659.518A2.357,2.357,0,0,1,924.481,1228.445Zm3.354-.446c0-.848-.384-1.339-1.1-1.339a1.331,1.331,0,0,0-1.258,1.339Z" transform="translate(-758.719 -1223.662)" fill="#333"/>
        <path id="Path_1970" data-name="Path 1970" d="M931.387,1226.033h1.054l.838,2.642c.135.481.285.981.429,1.462h.036c.143-.481.3-.982.429-1.462l.838-2.642h1l-1.7,4.907h-1.187Z" transform="translate(-760.716 -1223.713)" fill="#333"/>
        <path id="Path_1971" data-name="Path 1971" d="M938.847,1228.445a2.384,2.384,0,0,1,2.241-2.588c1.3,0,2,.937,2,2.329a2.634,2.634,0,0,1-.046.518h-3.185a1.481,1.481,0,0,0,1.517,1.5,2.074,2.074,0,0,0,1.169-.365l.358.653a2.992,2.992,0,0,1-1.66.518A2.358,2.358,0,0,1,938.847,1228.445ZM942.2,1228c0-.848-.384-1.339-1.1-1.339a1.331,1.331,0,0,0-1.257,1.339Z" transform="translate(-762.872 -1223.662)" fill="#333"/>
        <path id="Path_1972" data-name="Path 1972" d="M946.685,1228.892v-5.959H947.7v6.012c0,.278.125.376.251.376a.687.687,0,0,0,.169-.018l.134.776a1.627,1.627,0,0,1-.553.082C946.962,1230.161,946.685,1229.687,946.685,1228.892Z" transform="translate(-765.138 -1222.816)" fill="#333"/>
        <path id="Path_1973" data-name="Path 1973" d="M950.191,1228.445a2.323,2.323,0,1,1,2.31,2.561A2.371,2.371,0,0,1,950.191,1228.445Zm3.568,0c0-1.045-.483-1.74-1.258-1.74s-1.25.695-1.25,1.74.483,1.722,1.25,1.722S953.759,1229.478,953.759,1228.445Z" transform="translate(-766.152 -1223.662)" fill="#333"/>
        <path id="Path_1974" data-name="Path 1974" d="M958.642,1225.982h.838l.08.535h.026a2.5,2.5,0,0,1,1.508-.66c1.25,0,1.945.992,1.945,2.5,0,1.685-1.007,2.649-2.113,2.649a2.02,2.02,0,0,1-1.294-.554l.026.838v1.589h-1.017Zm3.336,2.391c0-1.026-.329-1.659-1.15-1.659a1.726,1.726,0,0,0-1.169.6v2.4a1.669,1.669,0,0,0,1.071.446C961.444,1230.158,961.978,1229.524,961.978,1228.373Z" transform="translate(-768.595 -1223.662)" fill="#333"/>
        <path id="Path_1975" data-name="Path 1975" d="M966.8,1225.982h.838l.08.687h.027a2.137,2.137,0,0,1,1.517-.812,1.309,1.309,0,0,1,1.356.9,2.263,2.263,0,0,1,1.6-.9c1.025,0,1.507.7,1.507,1.945v3.087H972.7v-2.962c0-.848-.267-1.187-.82-1.187a1.638,1.638,0,0,0-1.107.669v3.48h-1.027v-2.962c0-.848-.259-1.187-.82-1.187a1.657,1.657,0,0,0-1.107.669v3.48H966.8Z" transform="translate(-770.955 -1223.662)" fill="#333"/>
        <path id="Path_1976" data-name="Path 1976" d="M978.4,1228.445a2.384,2.384,0,0,1,2.241-2.588c1.3,0,2,.937,2,2.329a2.639,2.639,0,0,1-.046.518h-3.185a1.481,1.481,0,0,0,1.517,1.5,2.074,2.074,0,0,0,1.169-.365l.358.653a2.992,2.992,0,0,1-1.66.518A2.359,2.359,0,0,1,978.4,1228.445Zm3.355-.446c0-.848-.384-1.339-1.1-1.339A1.331,1.331,0,0,0,979.4,1228Z" transform="translate(-774.306 -1223.662)" fill="#333"/>
        <path id="Path_1977" data-name="Path 1977" d="M986.235,1225.982h.838l.08.678h.027a2.338,2.338,0,0,1,1.624-.8c1.044,0,1.508.7,1.508,1.945v3.087h-1.027v-2.962c0-.848-.249-1.187-.828-1.187a1.678,1.678,0,0,0-1.206.669v3.48h-1.017Z" transform="translate(-776.572 -1223.662)" fill="#333"/>
        <path id="Path_1978" data-name="Path 1978" d="M994.258,1228.782V1226.3h-.713v-.768l.758-.053.115-1.356h.867v1.356h1.275v.822h-1.275v2.489c0,.588.205.891.713.891a1.466,1.466,0,0,0,.526-.115l.188.757a3.137,3.137,0,0,1-.963.18C994.642,1230.505,994.258,1229.818,994.258,1228.782Z" transform="translate(-778.686 -1223.161)" fill="#333"/>
      </g>
    </g>
    <g id="Group_2381" data-name="Group 2381" transform="translate(663.186 1188.166)">
      <path id="Path_1979" data-name="Path 1979" d="M706.607,1203.982a32.072,32.072,0,0,1-3.489,1.391,15.911,15.911,0,0,0,4.7,1.069,5.969,5.969,0,0,0-1.009,1.513c-4.2-.544-6.98-2.1-8.512-4.841h-2.118v2.824l3.47-.706c-.021.425-.021,1.11,0,1.453-4.5,1.028-5.125,1.189-5.507,1.432a5.565,5.565,0,0,0-.566-1.512,1.435,1.435,0,0,0,.848-1.353v-2.138H692.79a10.651,10.651,0,0,1-1.917,4.922,7.506,7.506,0,0,0-1.574-.948c1.716-2.139,1.937-5.084,1.937-7.161v-2.582h15.755v1.392H693.032v.867h13.092v1.23H693.012a7.321,7.321,0,0,1-.06.907H707.5v1.373h-1.916Zm-.585-7.445h-14.6v-5.749h4.115v-1.311h1.836v1.311h2.5v-1.311h1.856v1.311h4.3Zm-12.889-3.449h2.4v-1.069h-2.4Zm0,2.219h2.4v-1.07h-2.4Zm4.236-3.288v1.069h2.5v-1.069Zm0,2.218v1.07h2.5v-1.07Zm2.723,8.877a6.163,6.163,0,0,0,1.634,1.494,24.3,24.3,0,0,0,3.167-1.494Zm4.136-11.1h-2.5v1.069h2.5Zm0,2.218h-2.5v1.07h2.5Z" transform="translate(-689.299 -1189.236)" fill="#333"/>
      <path id="Path_1980" data-name="Path 1980" d="M725.658,1195.679c.706.807,2.461,3.005,2.865,3.551l-1.029,1.814c-.382-.706-1.15-1.915-1.835-2.945V1208h-1.816v-8.634a19.636,19.636,0,0,1-2.441,4.881,7.91,7.91,0,0,0-.989-1.714,22.683,22.683,0,0,0,3.288-7.485h-2.742v-1.734h2.884v-3.812h1.816v3.813h2.421v1.734h-2.421Zm13.233-.06h-2.622v9.825c0,1.229-.323,1.794-1.07,2.1a12.38,12.38,0,0,1-4.094.384,8.225,8.225,0,0,0-.686-1.978c1.513.061,2.925.041,3.368.041.4-.021.585-.162.585-.566v-9.8h-5.689v-1.836h5.689v-4.238h1.9v4.238h2.622Zm-7.5,7.04a27.369,27.369,0,0,0-2.179-4.72l1.594-.667a25.2,25.2,0,0,1,2.26,4.681Z" transform="translate(-698.294 -1189.244)" fill="#333"/>
      <path id="Path_1981" data-name="Path 1981" d="M761.892,1189.561c-.019.768-.039,1.817-.141,3.007.283,2.522,1.513,10.57,8.554,13.7a5.575,5.575,0,0,0-1.372,1.593c-4.74-2.239-6.939-6.677-8.008-10.287a16.072,16.072,0,0,1-7.705,10.388,5.848,5.848,0,0,0-1.554-1.493c8.251-4.275,8.029-13.675,8.089-16.905Z" transform="translate(-707.329 -1189.26)" fill="#333"/>
      <path id="Path_1982" data-name="Path 1982" d="M800.872,1195.407h-4.981v9.906c0,1.25-.323,1.794-1.09,2.1a12.221,12.221,0,0,1-4.035.364,8.28,8.28,0,0,0-.645-1.978c1.332.06,2.744.04,3.148.04.4-.02.564-.141.564-.523v-9.321a29.443,29.443,0,0,1-9.582,9.724,7.661,7.661,0,0,0-1.472-1.693,25.035,25.035,0,0,0,9.139-8.615h-8.493v-1.916h10.408v-4.014h2.059v4.014h4.981Z" transform="translate(-716.324 -1189.236)" fill="#333"/>
      <path id="Path_1983" data-name="Path 1983" d="M820.22,1201.217l.342,1.715c-2.077.886-4.3,1.794-6.031,2.5l-.585-1.915c.685-.222,1.492-.526,2.4-.848v-6.617h-2.241v-1.774h2.241v-4.6h1.673v4.6h2.139v1.774H818.02v5.991Zm12.3-3.975v1.7H820.1v-1.7h7.422a26.367,26.367,0,0,0,1.272-3.873l1.734.464c-.4,1.13-.888,2.4-1.311,3.409Zm-.665-3.893H820.865v-1.673h4.679a16.881,16.881,0,0,0-.525-2.059l1.695-.282a19.2,19.2,0,0,1,.646,2.34h4.5Zm-10.086,7.122h9.158v7.383h-1.775v-.706h-5.669v.786h-1.714Zm1.392-3.309a13.163,13.163,0,0,0-.988-3.248l1.533-.464a15.5,15.5,0,0,1,1.069,3.187Zm.322,4.983v3.349h5.669v-3.349Z" transform="translate(-725.335 -1189.195)" fill="#333"/>
      <path id="Path_1984" data-name="Path 1984" d="M863.511,1192.89h-4.8a27.286,27.286,0,0,1,4.055,3.489l-1.594,1.009h.464v8.433c0,1.068-.3,1.513-1.088,1.755a17.891,17.891,0,0,1-3.933.222,6.693,6.693,0,0,0-.486-1.614c1.17.06,2.664.06,2.986.039.363,0,.484-.121.484-.422v-2.079c-3.066.667-6.213,1.291-8.634,1.755l-.565-1.695c2.2-.3,5.769-.868,9.2-1.452v-3.39h-9.522v1.856c0,2.258-.343,5.286-2.259,7.3a5.37,5.37,0,0,0-1.513-1.149c1.755-1.774,1.936-4.277,1.936-6.192v-3.37h12.849a13.962,13.962,0,0,0-1.231-1.311c-10.045.444-11.155.464-11.922.746a13.37,13.37,0,0,0-.565-1.755,4.44,4.44,0,0,0,1.735-1.007c.281-.2.786-.627,1.391-1.17h-4.619v-1.655h6.334c.6-.646,1.25-1.391,1.816-2.1l1.9.746c-.4.463-.807.908-1.25,1.351h8.835Zm-5.244,1.775c-.565-.444-1.11-.889-1.654-1.291l.805-.484h-4.437a30.977,30.977,0,0,1-2.422,2.037Zm-7.04,4.881a31.544,31.544,0,0,1,7.1,1.735l-.585,1.331a31.806,31.806,0,0,0-7.1-1.9Z" transform="translate(-734.567 -1189.138)" fill="#333"/>
      <path id="Path_1985" data-name="Path 1985" d="M880.658,1197.689a10.966,10.966,0,0,1-3.107,2.3,6.632,6.632,0,0,0-1.071-1.189,10.358,10.358,0,0,0,3.571-2.34H877.39v-3.611h3.269v-.867h-3.793v-1.371h3.793v-1.13h1.654v1.13h3.671v1.371h-3.671v.867h3.247v1.533a10.131,10.131,0,0,0,2.785-4.9l1.674.4a13.983,13.983,0,0,1-.605,1.755h5.345v1.514h-1.31a10.208,10.208,0,0,1-1.917,3.692,10.378,10.378,0,0,0,3.489,1.8,7.652,7.652,0,0,0-1.049,1.452,10.193,10.193,0,0,1-3.569-2.138,11.59,11.59,0,0,1-3.733,2.1,7.34,7.34,0,0,0-1.068-1.353,10.412,10.412,0,0,0,3.692-1.876,12.71,12.71,0,0,1-1.494-2.3,12.611,12.611,0,0,1-1.049,1.209,8.468,8.468,0,0,0-1.19-1.25v1.976h-2.42a11.878,11.878,0,0,1,2.4,1.533l-.788,1.07a13.158,13.158,0,0,0-2.441-1.655v2.34h-1.654Zm5.95,8.21h8.21v1.573H876.643V1205.9h3.167v-3.188h1.775v3.188h3.167v-4.1h-6.818v-1.554h15.613v1.554h-6.939v1.291h5.486v1.432h-5.486Zm-7.746-10.612h1.8v-1.27h-1.8Zm3.449-1.27v1.27h1.695v-1.27Zm.605,2.44h-.605v.706Zm5.79-3.308a10.472,10.472,0,0,0,1.634,2.562,7.741,7.741,0,0,0,1.33-2.562Z" transform="translate(-743.413 -1189.236)" fill="#333"/>
      <path id="Path_1986" data-name="Path 1986" d="M918.818,1190.239c-.2.3-.4.606-.646.907a23.811,23.811,0,0,0,8.189,5.145,5.2,5.2,0,0,0-1.31,1.715c-1.069-.526-2.1-1.049-3.107-1.655v1.332H911.9v-1.01a25.065,25.065,0,0,1-2.905,1.534,8.587,8.587,0,0,0-1.371-1.675c3.752-1.472,7.483-4.034,9.54-7.142Zm-8.07,9.542h12.609v8.068h-1.978v-.926h-8.735v1.007h-1.9Zm1.9,1.673v3.733h8.735v-3.733Zm8.674-5.507a26.337,26.337,0,0,1-4.3-3.469,23.447,23.447,0,0,1-3.995,3.469Z" transform="translate(-752.416 -1189.211)" fill="#333"/>
      <path id="Path_1987" data-name="Path 1987" d="M957.259,1201.67H949.17v6.859h-1.937v-6.859h-7.988v-1.9h7.988v-6.617h-6.938v-1.836h15.814v1.836H949.17v6.617h8.089Zm-13.96-7.684a20.137,20.137,0,0,1,1.775,4.357l-1.8.6a21.951,21.951,0,0,0-1.675-4.438Zm7.807,4.458a27.144,27.144,0,0,0,1.977-4.54l2,.545a38.859,38.859,0,0,1-2.359,4.518Z" transform="translate(-761.559 -1189.769)" fill="#333"/>
      <path id="Path_1988" data-name="Path 1988" d="M983.083,1191.481a35.444,35.444,0,0,1,5.3,5.849l-1.573,1.17a16.486,16.486,0,0,0-1.169-1.654c-11.1.584-12.387.626-13.294.948a17.528,17.528,0,0,0-.6-1.834,3.732,3.732,0,0,0,1.654-1.15,32.407,32.407,0,0,0,4.458-5.589l1.876.808a39.765,39.765,0,0,1-4.821,5.568l9.38-.384c-.867-.968-1.8-1.935-2.663-2.743Zm-9.825,7.846H986.33v8.553h-2v-1.028h-9.178v1.069h-1.9Zm1.9,1.8v3.913h9.178v-3.913Z" transform="translate(-770.955 -1189.162)" fill="#333"/>
    </g>
    <g id="Group_2382" data-name="Group 2382" transform="translate(598.975 1185.775)">
      <path id="Path_1989" data-name="Path 1989" d="M609.776,1213.123h-10.8V1226.8h28.284A18.039,18.039,0,0,0,609.776,1213.123Zm-5.026,6.106a1.426,1.426,0,1,1,1.425-1.425A1.42,1.42,0,0,1,604.75,1219.229Zm4.32,4.32a1.425,1.425,0,1,1,1.426-1.425A1.419,1.419,0,0,1,609.07,1223.549Zm4.321-4.32a1.426,1.426,0,1,1,1.425-1.425A1.419,1.419,0,0,1,613.391,1219.229Z" transform="translate(-598.975 -1193.681)" fill="#e2b574"/>
      <path id="Path_1990" data-name="Path 1990" d="M647.939,1200.176v-3.845a10.553,10.553,0,0,0-10.556-10.556H609.531a10.552,10.552,0,0,0-10.556,10.556v4.565h10.8a22.3,22.3,0,0,1,21.89,18h16.273v-14.4h-6.481a17.891,17.891,0,0,0-10.5,3.4,24.157,24.157,0,0,0-3.183-3.01,22.246,22.246,0,0,1,13.681-4.709Zm-26.988-1.728c-5.674-2.722-2.131-5.242-3.658-9.346,3.183,1.526,4.479,3.715,4.479,6.019A7.663,7.663,0,0,1,620.951,1198.448Zm2.2,2.578c-.316-9.246,5.371-6.365,9.677-11.147.015.231.015.447.015.678C632.846,1197.728,628.555,1200.839,623.154,1201.026Z" transform="translate(-598.975 -1185.775)" fill="url(#linear-gradient)"/>
    </g>
  </g>
</svg>
