<svg xmlns="http://www.w3.org/2000/svg" width="420.641" height="68.728" viewBox="0 0 420.641 68.728">
  <g id="title-bg" transform="translate(-750.002 -989.297)">
    <path id="Path_222" data-name="Path 222" d="M1155.8,1037c-32.858,21.376-34,7.628-73.195,7.628s-39.2,8.637-78.4,8.637-39.2-14.889-78.4-14.889-39.2-.446-78.4-.446-42.872,24.338-75.733,2.963c-21.375-13.905-25.385-35.049-4.01-48.955,32.858-21.375,40.539,10.349,79.738,10.349s39.2-1.159,78.4-1.159,39.2.327,78.4.327,39.2-14.536,78.4-14.536,38.973,1.926,76.442,13.454C1181.89,1007.41,1177.17,1023.1,1155.8,1037Z" transform="translate(-3.493 4.76)" fill="#fff"/>
  </g>
</svg>
